<?xml version="1.0" encoding="utf-8"?>
<!-- Generator: Adobe Illustrator 19.1.0, SVG Export Plug-In . SVG Version: 6.00 Build 0)  -->
<!DOCTYPE svg PUBLIC "-//W3C//DTD SVG 1.1//EN" "http://www.w3.org/Graphics/SVG/1.1/DTD/svg11.dtd">
<svg version="1.1" id="Layer_1" xmlns="http://www.w3.org/2000/svg" xmlns:xlink="http://www.w3.org/1999/xlink" x="0px" y="0px"
	 viewBox="-381 63 237 185" style="enable-background:new -381 63 237 185;" xml:space="preserve">
<style type="text/css">
	.st0{fill:#FFFFFF;}
	.st1{fill:none;stroke:#FFFFFF;stroke-width:2.8347;stroke-miterlimit:10;}
	.st2{fill:#1D1D1B;}
</style>
<g id="achtergrond_krullen__x2B__druplicon_2_">
	<g>
		<path class="st0" d="M-184.3,147.2c-1-2-1.5-3.5-1.6-4.6c0.3,0.1,0.7,0.2,1.1,0.2c1.7,0,3-1.2,3.1-2.9l0,0v0
			c0-1.8-0.6-2.8-1.2-3.4c-0.7-0.8-1.7-1.2-2.8-1.2c-1.1,0-2.2,0.5-3,1.3c0,0,0,0,0,0c-0.4-2.9,0-5.9,0.7-7.7l0.6-1.4l-1.5-0.5
			c-0.6-0.2-1.2-0.3-1.7-0.3c-1,0-1.9,0.4-2.6,1.1c-0.1,0.1-0.2,0.2-0.3,0.3c0.1-1.6,0.4-3.5,0.9-5.4l0.4-1.4l-1.5-0.3
			c-0.5-0.1-1-0.2-1.4-0.2c-1.3,0-2.4,0.5-3.2,1.4c-0.4,0.5-0.7,1.2-0.9,1.8c-0.4-2.1-0.8-4.8-0.9-8.1c0.5,0.4,1.1,0.9,1.9,1.3
			c0.7,0.4,1.5,0.5,2.3,0.5c3,0,6.2-2.5,6.2-6.3c0-2.1-0.8-4.1-2.2-5.6c-1.4-1.4-3.3-2.2-5.4-2.2l-0.1,0c-3.9,0.1-6.9,2.3-7.8,5.5
			c-1.2-1.3-4.1-4.2-7-4.2c-1.4,0-3.2,0.6-4.4,3.5l-0.6,1.5h-23.9c0.5-1.9,0.7-3.8,0.7-5.8c0-8.6-4.3-16.2-11.7-20.9
			c-1.4-0.8-2.6-1.4-3.8-1.9c-1.1-0.5-2.1-1-3.1-1.6c-1.1-0.7-3.3-3.4-4.2-4.5l-4.8-5.8l-0.8,7.5c-0.2,2.2-0.8,2.8-1.2,3.1
			c-1.5,1.2-2.5,1.7-3.8,2.3c-0.4,0.2-0.9,0.5-1.4,0.7c-1.4,0.7-12.4,6.9-12.4,20.6c0,2.1,0.3,4.2,0.9,6.2h-24l-0.6-1.5
			c-1.2-2.9-3.1-3.5-4.4-3.5c-2.9,0-5.8,2.8-7,4.2c-0.9-3.2-3.9-5.4-7.8-5.5l-0.1,0c-2,0-4,0.8-5.4,2.2c-1.4,1.4-2.2,3.4-2.2,5.6
			c0,3.8,3.2,6.3,6.2,6.3c0.8,0,1.6-0.2,2.3-0.5c0.8-0.4,1.4-0.9,1.9-1.3c-0.1,3.3-0.5,6.1-0.9,8.1c-0.2-0.7-0.5-1.3-0.9-1.8
			c-0.8-0.9-1.9-1.4-3.2-1.4c-0.4,0-0.9,0.1-1.4,0.2l-1.5,0.3l0.4,1.4c0.6,1.9,0.8,3.8,0.9,5.4c-0.1-0.1-0.2-0.2-0.3-0.3
			c-0.7-0.7-1.6-1.1-2.6-1.1c-0.5,0-1.1,0.1-1.7,0.3l-1.5,0.5l0.6,1.4c0.7,1.8,1.1,4.8,0.7,7.7c0,0,0,0,0,0c-0.8-0.8-1.8-1.3-3-1.3
			c-1.1,0-2.1,0.4-2.8,1.2c-0.5,0.6-1.2,1.7-1.2,3.4v0l0,0c0.1,1.7,1.4,2.9,3.1,2.9c0.4,0,0.8-0.1,1.1-0.2c-0.2,1.1-0.6,2.5-1.6,4.6
			c-2.7,5.5-8.5,22.6-2.7,35c2.8,6,7.9,10,15.2,11.8c1.5,0.4,2.9,0.6,4.2,0.6c3.8,0,6.6-1.6,8.3-3.5h109.4c1.7,1.9,4.4,3.5,8.3,3.5
			c1.3,0,2.8-0.2,4.2-0.6c7.3-1.8,12.4-5.8,15.2-11.8C-175.8,169.8-181.6,152.8-184.3,147.2z"/>
	</g>
	<g>
		<path class="st1" d="M-184.3,147.2c-1-2-1.5-3.5-1.6-4.6c0.3,0.1,0.7,0.2,1.1,0.2c1.7,0,3-1.2,3.1-2.9l0,0v0
			c0-1.8-0.6-2.8-1.2-3.4c-0.7-0.8-1.7-1.2-2.8-1.2c-1.1,0-2.2,0.5-3,1.3c0,0,0,0,0,0c-0.4-2.9,0-5.9,0.7-7.7l0.6-1.4l-1.5-0.5
			c-0.6-0.2-1.2-0.3-1.7-0.3c-1,0-1.9,0.4-2.6,1.1c-0.1,0.1-0.2,0.2-0.3,0.3c0.1-1.6,0.4-3.5,0.9-5.4l0.4-1.4l-1.5-0.3
			c-0.5-0.1-1-0.2-1.4-0.2c-1.3,0-2.4,0.5-3.2,1.4c-0.4,0.5-0.7,1.2-0.9,1.8c-0.4-2.1-0.8-4.8-0.9-8.1c0.5,0.4,1.1,0.9,1.9,1.3
			c0.7,0.4,1.5,0.5,2.3,0.5c3,0,6.2-2.5,6.2-6.3c0-2.1-0.8-4.1-2.2-5.6c-1.4-1.4-3.3-2.2-5.4-2.2l-0.1,0c-3.9,0.1-6.9,2.3-7.8,5.5
			c-1.2-1.3-4.1-4.2-7-4.2c-1.4,0-3.2,0.6-4.4,3.5l-0.6,1.5h-23.9c0.5-1.9,0.7-3.8,0.7-5.8c0-8.6-4.3-16.2-11.7-20.9
			c-1.4-0.8-2.6-1.4-3.8-1.9c-1.1-0.5-2.1-1-3.1-1.6c-1.1-0.7-3.3-3.4-4.2-4.5l-4.8-5.8l-0.8,7.5c-0.2,2.2-0.8,2.8-1.2,3.1
			c-1.5,1.2-2.5,1.7-3.8,2.3c-0.4,0.2-0.9,0.5-1.4,0.7c-1.4,0.7-12.4,6.9-12.4,20.6c0,2.1,0.3,4.2,0.9,6.2h-24l-0.6-1.5
			c-1.2-2.9-3.1-3.5-4.4-3.5c-2.9,0-5.8,2.8-7,4.2c-0.9-3.2-3.9-5.4-7.8-5.5l-0.1,0c-2,0-4,0.8-5.4,2.2c-1.4,1.4-2.2,3.4-2.2,5.6
			c0,3.8,3.2,6.3,6.2,6.3c0.8,0,1.6-0.2,2.3-0.5c0.8-0.4,1.4-0.9,1.9-1.3c-0.1,3.3-0.5,6.1-0.9,8.1c-0.2-0.7-0.5-1.3-0.9-1.8
			c-0.8-0.9-1.9-1.4-3.2-1.4c-0.4,0-0.9,0.1-1.4,0.2l-1.5,0.3l0.4,1.4c0.6,1.9,0.8,3.8,0.9,5.4c-0.1-0.1-0.2-0.2-0.3-0.3
			c-0.7-0.7-1.6-1.1-2.6-1.1c-0.5,0-1.1,0.1-1.7,0.3l-1.5,0.5l0.6,1.4c0.7,1.8,1.1,4.8,0.7,7.7c0,0,0,0,0,0c-0.8-0.8-1.8-1.3-3-1.3
			c-1.1,0-2.1,0.4-2.8,1.2c-0.5,0.6-1.2,1.7-1.2,3.4v0l0,0c0.1,1.7,1.4,2.9,3.1,2.9c0.4,0,0.8-0.1,1.1-0.2c-0.2,1.1-0.6,2.5-1.6,4.6
			c-2.7,5.5-8.5,22.6-2.7,35c2.8,6,7.9,10,15.2,11.8c1.5,0.4,2.9,0.6,4.2,0.6c3.8,0,6.6-1.6,8.3-3.5h109.4c1.7,1.9,4.4,3.5,8.3,3.5
			c1.3,0,2.8-0.2,4.2-0.6c7.3-1.8,12.4-5.8,15.2-11.8C-175.8,169.8-181.6,152.8-184.3,147.2z"/>
	</g>
</g>
<path id="vulling_krullen_6_" class="st2" d="M-200.4,154c0.3,0.6,0.6,1.1,1,1.5c-2.6,0.5-3.6,2.9-3.8,4.3l-0.2,1.6l1.6,0h0.1
	c5.2,0,9.3,1.7,11.7,4.8c1,1.4,1.7,2.9,1.9,4.6c-0.5-0.3-1-0.4-1.5-0.4h0h0h0l-2,0l0.7,1.9c1.7,4.3,0,10.3-0.5,11.6
	c0.4-3.9-0.4-8.4-1-10.9c-0.6-2.7,0.9-4.6,1-4.6l1.2-1.3l-1.6-0.9c-0.6-0.3-1.3-0.5-2-0.5c-1,0-1.9,0.4-2.6,1.1
	c-0.2,0.2-0.3,0.4-0.4,0.6c-0.7-1.1-1.6-1.8-2.4-2.2c-1.6-0.8-3.2-0.9-3.6-0.9h-0.1h0l-0.9,0l-0.4,0.8c-0.8,1.7-1.7,5.1,0.4,7.1
	c0.1,0.1,0.2,0.2,0.4,0.3c-3.7,0.6-4.3,2.3-4.4,2.8l-0.3,1.8l1.8-0.1c0.3,0,0.6,0,0.9,0c5,0,7.5,3.3,7.8,6.5c0.2,2-0.6,4.4-2.7,4.8
	c-0.3,0.1-0.6,0.1-1,0.1c-2,0-3.6-1.2-4.5-2.6c0.7,0.5,1.6,0.8,2.5,0.8c1,0,1.9-0.4,2.5-1.1c1-1.1,1.2-2.6,0.6-3.9
	c-0.8-1.8-2.8-3-5.2-3c-0.3,0-0.6,0-0.9,0.1c-1.7,0.2-3,1-4,2.2c-0.9,1.2-1.4,2.8-1.4,4.4h-104.7c0-1.6-0.5-3.2-1.4-4.4
	c-1-1.3-2.4-2-4-2.2c-0.3,0-0.6-0.1-0.9-0.1c-2.3,0-4.4,1.2-5.2,3c-0.6,1.4-0.4,2.8,0.6,3.9c0.6,0.7,1.5,1.1,2.5,1.1
	c0.9,0,1.8-0.3,2.5-0.8c-0.8,1.4-2.5,2.6-4.5,2.6c-0.3,0-0.6,0-1-0.1c-2.1-0.4-2.9-2.8-2.7-4.8c0.3-3.2,2.8-6.5,7.8-6.5
	c0.3,0,0.6,0,0.9,0l1.8,0.1l-0.3-1.8c-0.1-0.5-0.7-2.2-4.4-2.8c0.1-0.1,0.3-0.3,0.4-0.3c2.1-2,1.3-5.4,0.4-7.1l-0.4-0.8l-0.9,0h0
	h-0.1c-0.5,0-2.1,0.1-3.6,0.9c-0.8,0.4-1.7,1.1-2.4,2.2c-0.1-0.2-0.3-0.4-0.4-0.6c-0.7-0.7-1.6-1.1-2.6-1.1c-0.7,0-1.4,0.2-2,0.5
	l-1.6,0.9l1.2,1.3c0.1,0.1,1.6,1.9,1,4.6c-0.6,2.5-1.4,7.1-1,10.9c-0.6-1.3-2.2-7.3-0.5-11.6l0.7-1.9l-2,0h0h0h0
	c-0.6,0-1.1,0.1-1.5,0.4c0.2-1.7,0.9-3.3,1.9-4.6c2.3-3.1,6.5-4.8,11.7-4.8h0.1l1.6,0l-0.2-1.6c-0.2-1.3-1.1-3.8-3.8-4.3
	c0.4-0.4,0.8-0.9,1-1.5c1.3-3,0.9-4.8,0.1-7l-0.4-1.1l-1.2,0.2c-0.2,0-4.2,0.7-6.8,3.6c-0.1-0.2-0.2-0.5-0.3-0.7l0.2-0.5
	c3-6.2,5-8.9,6.9-11.5c2.6-3.6,5.1-7,9.5-18.4c0.4-1,0.7-1.9,1.1-2.6h109c0.3,0.8,0.7,1.6,1.1,2.6c4.4,11.5,6.8,14.8,9.5,18.4
	c1.9,2.6,3.9,5.3,6.9,11.5l0.2,0.5c-0.1,0.2-0.2,0.4-0.3,0.7c-2.6-2.9-6.6-3.5-6.8-3.6l-1.2-0.2l-0.4,1.1
	C-201.3,149.2-201.7,151-200.4,154z"/>
<path id="tekening_krullen_5_" class="st2" d="M-184.3,147.2c-1-2-1.5-3.5-1.6-4.6c0.3,0.1,0.7,0.2,1.1,0.2c1.7,0,3-1.2,3.1-2.9l0,0
	v0c0-1.8-0.6-2.8-1.2-3.4c-0.7-0.8-1.7-1.2-2.8-1.2c-1.1,0-2.2,0.5-3,1.3c0,0,0,0,0,0c-0.4-2.9,0-5.9,0.7-7.7l0.6-1.4l-1.5-0.5
	c-0.6-0.2-1.2-0.3-1.7-0.3c-1,0-1.9,0.4-2.6,1.1c-0.1,0.1-0.2,0.2-0.3,0.3c0.1-1.6,0.4-3.5,0.9-5.4l0.4-1.4l-1.5-0.3
	c-0.5-0.1-1-0.2-1.4-0.2c-1.3,0-2.4,0.5-3.2,1.4c-0.4,0.5-0.7,1.2-0.9,1.8c-0.4-2.1-0.8-4.8-0.9-8.1c0.5,0.4,1.1,0.9,1.9,1.3
	c0.7,0.4,1.5,0.5,2.3,0.5c3,0,6.2-2.5,6.2-6.3c0-2.1-0.8-4.1-2.2-5.6c-1.4-1.4-3.3-2.2-5.4-2.2l-0.1,0c-3.9,0.1-6.9,2.3-7.8,5.5
	c-1.2-1.3-4.1-4.2-7-4.2c-1.4,0-3.2,0.6-4.4,3.5l-0.6,1.5h-93.5l-0.6-1.5c-1.2-2.9-3.1-3.5-4.4-3.5c-2.9,0-5.8,2.8-7,4.2
	c-0.9-3.2-3.9-5.4-7.8-5.5l-0.1,0c-2,0-4,0.8-5.4,2.2c-1.4,1.4-2.2,3.4-2.2,5.6c0,3.8,3.2,6.3,6.2,6.3c0.8,0,1.6-0.2,2.3-0.5
	c0.8-0.4,1.4-0.9,1.9-1.3c-0.1,3.3-0.5,6.1-0.9,8.1c-0.2-0.7-0.5-1.3-0.9-1.8c-0.8-0.9-1.9-1.4-3.2-1.4c-0.4,0-0.9,0.1-1.4,0.2
	l-1.5,0.3l0.4,1.4c0.6,1.9,0.8,3.8,0.9,5.4c-0.1-0.1-0.2-0.2-0.3-0.3c-0.7-0.7-1.6-1.1-2.6-1.1c-0.5,0-1.1,0.1-1.7,0.3l-1.5,0.5
	l0.6,1.4c0.7,1.8,1.1,4.8,0.7,7.7c0,0,0,0,0,0c-0.8-0.8-1.8-1.3-3-1.3c-1.1,0-2.1,0.4-2.8,1.2c-0.5,0.6-1.2,1.7-1.2,3.4v0l0,0
	c0.1,1.7,1.4,2.9,3.1,2.9c0.4,0,0.8-0.1,1.1-0.2c-0.2,1.1-0.6,2.5-1.6,4.6c-2.7,5.5-8.5,22.6-2.7,35c2.8,6,7.9,10,15.2,11.8
	c1.5,0.4,2.9,0.6,4.2,0.6c3.8,0,6.6-1.6,8.3-3.5h109.4c1.7,1.9,4.4,3.5,8.3,3.5c1.3,0,2.8-0.2,4.2-0.6c7.3-1.8,12.4-5.8,15.2-11.8
	C-175.8,169.8-181.6,152.8-184.3,147.2z M-200.4,154c0.3,0.6,0.6,1.1,1,1.5c-2.6,0.5-3.6,2.9-3.8,4.3l-0.2,1.6l1.6,0h0.1
	c5.2,0,9.3,1.7,11.7,4.8c1,1.4,1.7,2.9,1.9,4.6c-0.5-0.3-1-0.4-1.5-0.4h0h0h0l-2,0l0.7,1.9c1.7,4.3,0,10.3-0.5,11.6
	c0.4-3.9-0.4-8.4-1-10.9c-0.6-2.7,0.9-4.6,1-4.6l1.2-1.3l-1.6-0.9c-0.6-0.3-1.3-0.5-2-0.5c-1,0-1.9,0.4-2.6,1.1
	c-0.2,0.2-0.3,0.4-0.4,0.6c-0.7-1.1-1.6-1.8-2.4-2.2c-1.6-0.8-3.2-0.9-3.6-0.9h-0.1h0l-0.9,0l-0.4,0.8c-0.8,1.7-1.7,5.1,0.4,7.1
	c0.1,0.1,0.2,0.2,0.4,0.3c-3.7,0.6-4.3,2.3-4.4,2.8l-0.3,1.8l1.8-0.1c0.3,0,0.6,0,0.9,0c5,0,7.5,3.3,7.8,6.5c0.2,2-0.6,4.4-2.7,4.8
	c-0.3,0.1-0.6,0.1-1,0.1c-2,0-3.6-1.2-4.5-2.6c0.7,0.5,1.6,0.8,2.5,0.8c1,0,1.9-0.4,2.5-1.1c1-1.1,1.2-2.6,0.6-3.9
	c-0.8-1.8-2.8-3-5.2-3c-0.3,0-0.6,0-0.9,0.1c-1.7,0.2-3,1-4,2.2c-0.9,1.2-1.4,2.8-1.4,4.4h-104.7c0-1.6-0.5-3.2-1.4-4.4
	c-1-1.3-2.4-2-4-2.2c-0.3,0-0.6-0.1-0.9-0.1c-2.3,0-4.4,1.2-5.2,3c-0.6,1.4-0.4,2.8,0.6,3.9c0.6,0.7,1.5,1.1,2.5,1.1
	c0.9,0,1.8-0.3,2.5-0.8c-0.8,1.4-2.5,2.6-4.5,2.6c-0.3,0-0.6,0-1-0.1c-2.1-0.4-2.9-2.8-2.7-4.8c0.3-3.2,2.8-6.5,7.8-6.5
	c0.3,0,0.6,0,0.9,0l1.8,0.1l-0.3-1.8c-0.1-0.5-0.7-2.2-4.4-2.8c0.1-0.1,0.3-0.3,0.4-0.3c2.1-2,1.3-5.4,0.4-7.1l-0.4-0.8l-0.9,0h0
	h-0.1c-0.5,0-2.1,0.1-3.6,0.9c-0.8,0.4-1.7,1.1-2.4,2.2c-0.1-0.2-0.3-0.4-0.4-0.6c-0.7-0.7-1.6-1.1-2.6-1.1c-0.7,0-1.4,0.2-2,0.5
	l-1.6,0.9l1.2,1.3c0.1,0.1,1.6,1.9,1,4.6c-0.6,2.5-1.4,7.1-1,10.9c-0.6-1.3-2.2-7.3-0.5-11.6l0.7-1.9l-2,0h0h0h0
	c-0.6,0-1.1,0.1-1.5,0.4c0.2-1.7,0.9-3.3,1.9-4.6c2.3-3.1,6.5-4.8,11.7-4.8h0.1l1.6,0l-0.2-1.6c-0.2-1.3-1.1-3.8-3.8-4.3
	c0.4-0.4,0.8-0.9,1-1.5c1.3-3,0.9-4.8,0.1-7l-0.4-1.1l-1.2,0.2c-0.2,0-4.2,0.7-6.8,3.6c-0.1-0.2-0.2-0.5-0.3-0.7l0.2-0.5
	c3-6.2,5-8.9,6.9-11.5c2.6-3.6,5.1-7,9.5-18.4c0.4-1,0.7-1.9,1.1-2.6h109c0.3,0.8,0.7,1.6,1.1,2.6c4.4,11.5,6.8,14.8,9.5,18.4
	c1.9,2.6,3.9,5.3,6.9,11.5l0.2,0.5c-0.1,0.2-0.2,0.4-0.3,0.7c-2.6-2.9-6.6-3.5-6.8-3.6l-1.2-0.2l-0.4,1.1
	C-201.3,149.2-201.7,151-200.4,154z M-317.6,114.1c0.5-1,1-1.7,1.5-2.3h104.1c0.5,0.5,1,1.3,1.5,2.3H-317.6z M-327,193.2
	c-1.2,0-2.5-0.2-3.9-0.5c-24.6-6.1-15.7-36.3-11.5-44.8c3.3-6.8,1.5-8.7,0.4-8.7c-0.6,0-0.9,0.5-0.3,1.1c0.7,0.7,0,1.2-0.9,1.2
	c-0.8,0-1.6-0.4-1.7-1.6c0-2.2,1.3-3.2,2.6-3.2c1.4,0,2.8,1.1,2.6,3.1c-0.1,0.9,0.1,1.2,0.3,1.2c0.3,0,0.6-0.5,0.8-1
	c1.3-3.6,1.1-8.7,0-11.6c0.5-0.1,0.9-0.2,1.3-0.2c2.7,0,2.7,3.7,2.7,4.8c0,0.5,0.2,0.7,0.4,0.7c0.3,0,0.8-0.4,1-0.8
	c0.4-0.9,0.6-5.8-0.7-10.5c0.4-0.1,0.8-0.1,1.1-0.1c3.6,0,3.1,4.8,2.9,6c-0.1,0.6,0.1,0.8,0.5,0.8c0.4,0,0.9-0.3,1.1-0.8
	c0.7-1.6,2.3-7.7,2-16.5c-0.1-2-2.1-3.6-4-3.6c-1.9,0-3.8,1.2-3.7,3.6c0.1,1.3,1.4,2.4,2.3,2.4c0,0,0,0,0.1,0c2.7,0,2.8-2.3,2-3
	c-0.2-0.2-0.4-0.2-0.5-0.2c-0.3,0-0.5,0.4-0.2,1.3c0.1,0.2-0.4,0.8-1,0.8c-0.4,0-0.8-0.3-1.1-1.1c-0.4-1.2,0.8-2.5,2.1-2.5
	c1.2,0,2.7,1.3,2.7,2.5c0,1.2,0.1,2.7-2.7,4.1c-0.5,0.3-1.1,0.4-1.6,0.4c-2.3,0-4.8-1.9-4.8-4.9c0-3.7,2.8-6.3,6.2-6.3
	c0,0,0.1,0,0.1,0c3.7,0.1,6.7,2.5,6.7,6.3c0,1.2-0.5,2.7-0.9,3.7c-0.2,0.6,0,0.9,0.4,0.9c0.2,0,0.5-0.1,0.7-0.4
	c0.9-1.1,1.5-4.9,1.5-4.9s3.4-4.3,6.4-4.3c1.2,0,2.3,0.7,3.1,2.6c-2.3,0.1-4.7-0.3-8.2,9.1c-7.4,19.5-9.1,14.9-16.3,29.8
	c0,0-0.4-0.2-1.1-0.2c-0.1,0-0.2,0-0.3,0c0.1-0.1,0.1-0.2,0.2-0.4c1.4-2.6,3.1-5.3,4.9-8c1.7-2.6,3.4-5.1,4.9-7.5
	c1.5-2.3,2.7-4.5,3.6-6.4c1.8-3.8,2.3-6.4,2.3-6.3c0,0-0.7,2.5-2.7,6.1c-1,1.8-2.3,3.9-3.8,6.2c-1.5,2.3-3.3,4.7-5,7.4
	c-1.8,2.7-3.4,5.4-4.8,8.1c-0.1,0.3-0.3,0.6-0.4,0.8c-1,0.2-2.2,0.8-3.4,2.2c0.7,0.9,1.1,1.7,1.4,2.5c-0.3,0.7-0.6,1.5-0.8,2.1
	c-0.8,2.3-1.2,4.3-1.4,5.7c-0.2,1.4,0,2.2,0,2.2c0,0-0.1-0.8,0.2-2.2c0.2-1.4,0.8-3.4,1.6-5.6c0.2-0.5,0.4-1,0.6-1.5
	c0.2,0.9,0.2,1.7,0.1,2c-2.3,7.8-1.2,7.9-1.2,7.9c4.9-7.2,1.5-12.8,1.5-12.8c0.6-0.5,1.7-1.1,2.6-1.1c0.8,0,1.4,0.5,1.1,2.2
	c-0.1,0.8-0.5,1.5-0.6,2.5c-0.1,0.6,0.3,0.8,0.7,0.8c0.2,0,0.5-0.1,0.5-0.3c0.9-5.8,7.8-6.9,7.8-6.9c0.7,1.9,1.1,3.3-0.1,6
	c-0.7,1.5-2.5,2.2-3,2.4c-0.4,0.2-0.3,1.2,0.4,1.2c0.1,0,0.1,0,0.2,0c0.6-0.2,1.2-0.3,1.7-0.3c3,0,3.3,3.1,3.3,3.1c0,0,0,0-0.1,0
	c-11.6,0-16.9,7.9-14.5,16.2c0.2,0.9,0.5,1.7,0.8,2.5c0,0,0,0,0,0c0,0-1.4-6.8,1.7-6.8c0,0,0,0,0,0c-1.9,5.1,0.1,12,0.7,13
	c1.7,2.9,4.9,4.2,5,4.2c0,0,0,0,0,0c-3.4-1.9-2.7-10-1.4-15.7c0.8-3.5-1.3-5.9-1.3-5.9c0.4-0.2,0.9-0.4,1.3-0.4c1.3,0,2.5,1.1,2.2,4
	c0,0.5,0.2,0.7,0.5,0.7c0.3,0,0.7-0.2,0.7-0.7c0-5.2,5.1-5.4,5.6-5.4c0,0,0,0,0,0s1.8,3.6-0.1,5.4c-2.3,2.1-2.5,2.4,0,2.7
	c3.4,0.4,3.7,1.7,3.7,1.7c-0.3,0-0.7,0-1,0c-10.7,0-11.6,13-5.4,14.1c0.4,0.1,0.8,0.1,1.2,0.1c5.1,0,8-6,5.7-7.3
	c-0.9-0.5-1.6-0.7-2.1-0.7c-1.5,0-1.5,1.6-0.7,1.6c0,0,0,0,0,0c0.1,0,0.1,0,0.1,0c2.3,0,0.6,1.7-1.1,1.7c-0.5,0-1.1-0.2-1.5-0.6
	c-1.6-1.8,0.3-4.5,3.5-4.5c0.2,0,0.5,0,0.7,0c3.4,0.4,4.5,3.7,4.2,6.3C-318.1,188.2-320.4,193.2-327,193.2z M-317.4,189.3
	c0.4-0.8,0.7-1.6,0.9-2.3h105c0.2,0.7,0.5,1.5,0.9,2.3H-317.4z M-197.1,192.7c-1.4,0.4-2.7,0.5-3.9,0.5c-6.6,0-8.9-5-9.2-7
	c-0.3-2.6,0.8-5.9,4.2-6.3c0.2,0,0.5,0,0.7,0c3.2,0,5.1,2.8,3.5,4.5c-0.4,0.5-1,0.6-1.5,0.6c-1.7,0-3.5-1.7-1.1-1.7c0,0,0.1,0,0.1,0
	c0,0,0,0,0,0c0.8,0,0.8-1.6-0.7-1.6c-0.5,0-1.2,0.2-2.1,0.7c-2.3,1.3,0.6,7.3,5.7,7.3c0.4,0,0.8,0,1.2-0.1
	c6.2-1.1,5.3-14.1-5.4-14.1c-0.3,0-0.6,0-1,0c0,0,0.2-1.3,3.7-1.7c2.4-0.3,2.3-0.6,0-2.7c-1.9-1.8-0.1-5.4-0.1-5.4s0,0,0,0
	c0.5,0,5.6,0.1,5.6,5.4c0,0.4,0.4,0.7,0.7,0.7c0.3,0,0.6-0.2,0.5-0.7c-0.3-2.9,0.9-4,2.2-4c0.5,0,0.9,0.1,1.3,0.4
	c0,0-2.1,2.3-1.3,5.9c1.3,5.6,2,13.8-1.4,15.7c0,0,0,0,0,0c0.1,0,3.3-1.3,5-4.2c0.6-1,2.7-7.9,0.7-13c0,0,0,0,0,0
	c3.1,0,1.7,6.8,1.7,6.8c0,0,0,0,0,0c0.3-0.8,0.5-1.6,0.8-2.5c2.4-8.3-2.9-16.2-14.5-16.2c0,0,0,0-0.1,0c0,0,0.4-3.1,3.3-3.1
	c0.5,0,1,0.1,1.7,0.3c0.1,0,0.2,0,0.2,0c0.7,0,0.8-1,0.4-1.2c-0.4-0.3-2.3-0.9-3-2.4c-1.1-2.6-0.8-4-0.1-6c0,0,6.9,1.1,7.8,6.9
	c0,0.2,0.3,0.3,0.5,0.3c0.4,0,0.7-0.2,0.7-0.8c-0.1-1-0.4-1.6-0.6-2.5c-0.3-1.7,0.3-2.2,1.1-2.2c0.8,0,1.9,0.6,2.6,1.1
	c0,0-3.4,5.6,1.5,12.8c0,0,1.1-0.1-1.2-7.9c-0.1-0.3-0.1-1,0.1-2c0.2,0.5,0.4,1,0.6,1.5c0.9,2.3,1.4,4.2,1.6,5.6
	c0.3,1.4,0.2,2.2,0.2,2.2c0,0,0.1-0.8,0-2.2c-0.2-1.4-0.6-3.4-1.4-5.7c-0.2-0.7-0.5-1.4-0.8-2.2c0.3-0.8,0.7-1.6,1.4-2.5
	c-1.2-1.4-2.4-2-3.4-2.2c-0.1-0.3-0.3-0.5-0.4-0.8c-1.4-2.7-3-5.4-4.8-8.1c-1.7-2.7-3.5-5.1-5-7.4c-1.5-2.3-2.8-4.4-3.8-6.2
	c-2-3.7-2.7-6.2-2.7-6.1c0,0,0.5,2.5,2.3,6.3c0.9,1.9,2.1,4.1,3.6,6.4c1.5,2.3,3.2,4.8,4.9,7.5c1.7,2.6,3.4,5.3,4.9,8
	c0.1,0.1,0.1,0.2,0.2,0.4c-0.1,0-0.2,0-0.3,0c-0.7,0-1.1,0.2-1.1,0.2c-7.2-14.9-8.9-10.3-16.3-29.8c-3.6-9.3-5.9-9-8.2-9.1
	c0.8-1.9,1.9-2.6,3.1-2.6c3,0,6.4,4.3,6.4,4.3s0.6,3.8,1.5,4.9c0.2,0.2,0.4,0.4,0.7,0.4c0.4,0,0.6-0.3,0.4-0.9
	c-0.4-1-0.9-2.5-0.9-3.7c0-3.7,3-6.2,6.7-6.3c0,0,0.1,0,0.1,0c3.4,0,6.2,2.6,6.2,6.3c0,3-2.5,4.9-4.8,4.9c-0.6,0-1.1-0.1-1.6-0.4
	c-2.7-1.4-2.7-2.9-2.7-4.1c0-1.2,1.5-2.5,2.7-2.5c1.3,0,2.5,1.3,2.1,2.5c-0.3,0.8-0.7,1.1-1.1,1.1c-0.6,0-1.1-0.6-1-0.8
	c0.4-0.9,0.2-1.3-0.2-1.3c-0.2,0-0.3,0.1-0.5,0.2c-0.8,0.7-0.7,3,2,3c0,0,0,0,0.1,0c0.9,0,2.3-1.1,2.3-2.4c0.1-2.4-1.8-3.6-3.7-3.6
	c-1.9,0-3.9,1.6-4,3.6c-0.3,8.9,1.3,14.9,2,16.5c0.2,0.5,0.7,0.8,1.1,0.8c0.3,0,0.6-0.2,0.5-0.8c-0.2-1.1-0.7-6,2.9-6
	c0.3,0,0.7,0,1.1,0.1c-1.4,4.7-1.1,9.5-0.7,10.5c0.2,0.4,0.6,0.8,1,0.8c0.2,0,0.4-0.2,0.4-0.7c0-1.1,0-4.8,2.7-4.8
	c0.4,0,0.8,0.1,1.3,0.2c-1.2,2.9-1.3,8,0,11.6c0.2,0.5,0.6,1,0.8,1c0.2,0,0.4-0.3,0.3-1.2c-0.2-2,1.2-3.1,2.6-3.1
	c1.3,0,2.6,1,2.6,3.2c-0.1,1.2-0.9,1.6-1.7,1.6c-0.9,0-1.6-0.6-0.9-1.2c0.7-0.6,0.3-1.1-0.3-1.1c-1.1,0-3,1.9,0.4,8.7
	C-181.4,156.3-172.5,186.6-197.1,192.7z"/>
<path class="st2" d="M-341.2,177.8c-3.8-12.6,5-18.9,12.8-18.6c0,0-8.9-1.4-12.8,6.1C-344.5,171.9-341.2,177.8-341.2,177.8z"/>
<path class="st2" d="M-327.6,106.4c3,0.9,3.9,4.5,2.6,7C-325,113.4-323.9,108.5-327.6,106.4z"/>
<path class="st2" d="M-330.1,105.7c-5,1.2-6.4,4.6-4.7,8.9C-339,109.2-333.2,104.8-330.1,105.7z"/>
<path class="st2" d="M-333.2,122.9c1.1,0.7,1.6,2.1,0.8,6C-332.3,124.8-333.2,122.9-333.2,122.9z"/>
<path class="st2" d="M-346.3,167c-0.1,18.5,12.3,26.2,23.6,24.3C-326.5,194-348.5,191.5-346.3,167z"/>
<path class="st2" d="M-331.9,155c3.1-1.3,2.9-4.8,2.6-5.5C-329.8,152.2-331.9,155-331.9,155z"/>
<path class="st2" d="M-326.8,171.1c2.3-1,2-2.7,1.8-3.2C-325.5,170-326.8,171.1-326.8,171.1z"/>
<path class="st2" d="M-337.8,128.8c1.1,2.6,0.8,7.4,0.4,8.9C-336.2,134.3-335.9,128.4-337.8,128.8z"/>
<path class="st2" d="M-186.8,177.8c3.8-12.6-5-18.9-12.8-18.6c0,0,8.9-1.4,12.8,6.1C-183.5,171.9-186.8,177.8-186.8,177.8z"/>
<path class="st2" d="M-200.4,106.4c-3,0.9-3.9,4.5-2.6,7C-203,113.4-204.1,108.5-200.4,106.4z"/>
<path class="st2" d="M-197.9,105.7c5,1.2,6.4,4.6,4.7,8.9C-189,109.2-194.8,104.8-197.9,105.7z"/>
<path class="st2" d="M-194.8,122.9c-1.1,0.7-1.6,2.1-0.8,6C-195.7,124.8-194.8,122.9-194.8,122.9z"/>
<path class="st2" d="M-181.7,167c0.1,18.5-12.3,26.2-23.6,24.3C-201.5,194-179.5,191.5-181.7,167z"/>
<path class="st2" d="M-196.1,155c-3.1-1.3-2.9-4.8-2.6-5.5C-198.1,152.2-196.1,155-196.1,155z"/>
<path class="st2" d="M-201.2,171.1c-2.3-1-2-2.7-1.8-3.2C-202.5,170-201.2,171.1-201.2,171.1z"/>
<path class="st2" d="M-190.2,128.8c-1.1,2.6-0.8,7.4-0.4,8.9C-191.8,134.3-192.1,128.4-190.2,128.8z"/>
<path id="buitenste_rand_druplicon_4_" class="st2" d="M-268.1,69.5l-0.8,7.5c-0.2,2.2-0.8,2.8-1.2,3.1c-1.5,1.2-2.5,1.7-3.8,2.3
	c-0.4,0.2-0.9,0.5-1.4,0.7c-1.4,0.7-12.4,6.9-12.4,20.6c0,12.8,10.6,23.3,23.7,23.3c13.3,0,23.4-9.9,23.4-22.9
	c0-8.6-4.3-16.2-11.7-20.9c-1.4-0.8-2.6-1.4-3.8-1.9c-1.1-0.5-2.1-1-3.1-1.6c-1.1-0.7-3.3-3.4-4.2-4.5L-268.1,69.5L-268.1,69.5z"/>
<path id="zwart_hoofd_druplicon_2_" class="st2" d="M-253.9,86c-2.4-1.5-4.6-2.1-6.9-3.5c-1.4-0.9-3.3-3.2-4.9-5.1
	c-0.3,3.1-1.3,4.4-2.3,5.2c-2.3,1.8-3.7,2.3-5.7,3.4c-1.7,0.9-10.7,6.2-10.7,17.8s9.7,20.1,20.6,20.1c10.8,0,20.2-7.9,20.2-19.7
	S-252.4,86.9-253.9,86z"/>
<path id="witte_rand_in_druplicon_2_" class="st0" d="M-265.7,77.3c1.6,1.9,3.5,4.2,4.9,5.1c2.2,1.5,4.5,2.1,6.9,3.5
	c1.4,0.9,10.2,6.3,10.2,18.2s-9.4,19.7-20.2,19.7s-20.6-8.5-20.6-20.1s9-17,10.7-17.8c2-1.1,3.4-1.6,5.7-3.4
	C-266.9,81.7-266,80.4-265.7,77.3 M-266.8,73.6l-0.4,3.5c-0.3,2.8-1.1,3.6-1.8,4.2c-1.6,1.2-2.7,1.8-4.1,2.5
	c-0.4,0.2-0.9,0.5-1.4,0.7c-1.1,0.6-11.5,6.3-11.5,19.1c0,11.9,9.9,21.6,22.1,21.6c12.4,0,21.7-9.1,21.7-21.2c0-8-4-15.1-10.9-19.4
	c-1.3-0.8-2.4-1.3-3.6-1.8c-1.1-0.5-2.2-1-3.3-1.7c-1.3-0.9-3.5-3.5-4.6-4.8L-266.8,73.6L-266.8,73.6z"/>
<path class="st0" d="M-258.2,113.1c0.7,0,1.5,0,2,0.4s0.9,1.2,1,1.6c0.2,0.4,0,0.7-0.4,0.9c-0.3,0.2-0.4,0.1-0.7-0.5
	c-0.3-0.6-0.6-1.2-2.2-1.2c-1.6,0-2.1,0.5-2.8,1.2c-0.8,0.6-1,0.9-1.3,0.5c-0.3-0.4-0.2-0.7,0.3-1.2c0.5-0.4,1.3-1.2,2.1-1.5
	C-259.3,113.1-258.9,113.1-258.2,113.1L-258.2,113.1z"/>
<path class="st0" d="M-265.6,118.3c0.9,0.7,2.2,1.3,5.1,1.3c2.9,0,4.9-0.8,5.8-1.5c0.4-0.3,0.6,0,0.6,0.1c0,0.2,0.1,0.5-0.2,0.8
	c-0.2,0.2-2.3,1.7-4.7,1.9c-2.4,0.2-5.7,0.4-7.7-1.4c-0.3-0.3-0.2-0.8,0-0.9c0.2-0.2,0.4-0.3,0.7-0.3
	C-265.7,118.2-265.8,118.2-265.6,118.3L-265.6,118.3z"/>
<path class="st0" d="M-276.2,110.1c0-3.5,3.3-6.8,7.5-6.8c5.2,0,8.9,5.2,11.5,5.2c2.2,0,6.6-4.4,8.7-4.4c2.2,0,2.9,2.3,2.9,3.7
	c0,1.4-0.4,3.9-1.5,5.5c-1.1,1.6-1.8,2.2-3,2.1c-1.6-0.1-4.8-5.2-6.9-5.3c-2.6-0.1-8.3,5.4-12.7,5.4c-2.7,0-3.5-0.4-4.4-1
	C-275.6,113.5-276.3,112.1-276.2,110.1L-276.2,110.1z"/>
<g>
	<path class="st0" d="M-290.7,89.3c0.3,0,0.7,0.1,1,0.2c0.4,0.1,0.7,0.4,1,0.6c0.3,0.3,0.6,0.6,0.8,1c0.2,0.4,0.3,0.8,0.3,1.2
		c0,0.4-0.1,0.8-0.2,1.2c-0.1,0.4-0.4,0.7-0.6,1c-0.3,0.3-0.6,0.5-1,0.7c-0.4,0.2-0.9,0.3-1.3,0.3c-0.1,0-0.2,0-0.2,0
		c-0.5,0-1-0.2-1.5-0.5c-0.5-0.3-0.8-0.7-1.1-1.3c-0.2-0.4-0.3-0.8-0.3-1.2c0-0.4,0.1-0.8,0.2-1.2c0.1-0.4,0.4-0.7,0.6-1
		c0.3-0.3,0.6-0.5,1-0.7c0.4-0.2,0.8-0.3,1.2-0.3C-290.8,89.3-290.8,89.3-290.7,89.3 M-290,94.3c0.1,0,0.2,0,0.4-0.1
		c0.5-0.3,0.6-0.8,0.1-1.8c-0.1-0.2-0.2-0.4-0.4-0.7c-0.2-0.2-0.4-0.5-0.6-0.7c-0.2-0.2-0.4-0.3-0.7-0.4c-0.1,0-0.2-0.1-0.3-0.1
		c-0.1,0-0.2,0-0.4,0.1c-0.2,0.1-0.3,0.2-0.4,0.4c-0.1,0.2-0.1,0.4,0,0.6c0,0.2,0.1,0.4,0.2,0.6c0.1,0.3,0.4,0.6,0.6,1
		c0.3,0.4,0.6,0.6,0.9,0.8C-290.4,94.3-290.2,94.3-290,94.3 M-237,89.6c0.6,0,1.3,0.2,2,0.5c0.4,0.2,0.7,0.4,1,0.7
		c0.3,0.3,0.5,0.6,0.5,1c0.1,0.4,0,0.7-0.2,1.1c-0.2,0.3-0.4,0.6-0.7,0.8c-0.3,0.2-0.6,0.4-1,0.5c-0.4,0.1-0.7,0.2-1.1,0.2
		c-0.1,0-0.2,0-0.4,0c-0.2,0-0.5,0-0.8,0l0,0l2.7,1.3c-0.1,0.1-0.3,0.5-0.7,1l-4.2-2.2l0.5-0.8c0.2,0,0.4,0,0.7,0c0.1,0,0.3,0,0.4,0
		c0.3,0,0.7-0.1,1-0.2c0.3-0.1,0.6-0.2,0.8-0.4s0.5-0.4,0.6-0.8c0.2-0.3,0.2-0.6,0.2-0.8c0-0.3-0.1-0.4-0.4-0.6
		c-0.2-0.1-0.4-0.1-0.5-0.1c0,0,0,0,0,0c-0.2,0-0.3,0-0.5,0.1c-0.2,0.1-0.3,0.2-0.4,0.4l-0.4-0.2C-237.5,90.6-237.3,90.1-237,89.6
		C-237,89.6-237,89.6-237,89.6 M-295.5,91.5l0.2,0.3c-0.1,0.1-0.2,0.1-0.2,0.2c0,0.1,0,0.2,0,0.3l2.8,4.4l-1.1,0.7
		c-0.4-0.2-0.8-0.3-1.2-0.5c-0.4-0.2-0.8-0.4-1.2-0.5c-0.4-0.2-0.8-0.3-1.1-0.5c-0.4-0.2-0.8-0.3-1.1-0.4l0,0l1.8,2.8
		c0.1,0.2,0.2,0.2,0.4,0.2c0.1,0,0.3,0,0.4-0.1l0.2,0.3c-0.5,0.2-0.8,0.4-1,0.6c-0.2,0.1-0.4,0.3-0.8,0.6l-0.2-0.3
		c0.2-0.2,0.3-0.4,0.1-0.6l-2.3-3.6c-0.1-0.2-0.2-0.2-0.4-0.2c-0.1,0-0.2,0-0.3,0.1l-0.2-0.3c0.6-0.3,1-0.6,1.2-0.7
		c0.2-0.1,0.5-0.4,1-0.7c0.3,0.1,0.6,0.2,0.9,0.4c0.3,0.1,0.6,0.2,0.9,0.4c0.3,0.1,0.6,0.3,0.9,0.4c0.2,0.1,0.5,0.2,0.8,0.3l0,0
		l-1.2-1.9c-0.1-0.2-0.2-0.3-0.3-0.3c0,0,0,0,0,0c-0.1,0-0.2,0-0.4,0.1l-0.2-0.3c0.4-0.2,0.8-0.4,0.9-0.5
		C-296.2,92-295.9,91.8-295.5,91.5 M-231.1,92.7c0.1,0,0.2,0,0.3,0c0.4,0.1,0.8,0.2,1.2,0.5c0.4,0.3,0.7,0.5,0.9,0.9
		c0.2,0.3,0.3,0.7,0.3,1c0,0.3,0,0.7-0.2,1.1c-0.1,0.4-0.3,0.7-0.5,1.1c-0.2,0.4-0.5,0.7-0.8,1c-0.3,0.3-0.6,0.5-0.9,0.6
		c-0.2,0.1-0.5,0.1-0.7,0.1c-0.1,0-0.2,0-0.3,0c-0.4-0.1-0.8-0.2-1.2-0.5c-0.4-0.3-0.7-0.5-0.9-0.9c-0.2-0.3-0.3-0.7-0.3-1
		c0-0.4,0-0.7,0.2-1.1c0.1-0.4,0.3-0.7,0.5-1.1c0.2-0.4,0.5-0.7,0.8-0.9c0.3-0.3,0.6-0.5,0.9-0.6C-231.6,92.8-231.3,92.7-231.1,92.7
		 M-232.2,97.7c0.1,0,0.2,0,0.3-0.1c0.2-0.2,0.5-0.4,0.7-0.9l0.6-1c0.3-0.4,0.5-0.8,0.5-1c0.1-0.3,0-0.4-0.2-0.6
		c-0.1-0.1-0.2-0.1-0.3-0.1c-0.1,0-0.2,0-0.3,0.1c-0.2,0.2-0.5,0.4-0.7,0.9l-0.6,1c-0.3,0.4-0.5,0.8-0.5,1c-0.1,0.3,0,0.4,0.2,0.6
		C-232.4,97.6-232.3,97.7-232.2,97.7 M-301.4,95.4l0.2,0.3c-0.1,0.1-0.1,0.2-0.2,0.3c0,0.1,0,0.2,0.1,0.3l3.4,4l-1,0.9
		c-0.4-0.1-0.8-0.2-1.3-0.4c-0.5-0.1-0.9-0.2-1.3-0.3c-0.4-0.1-0.8-0.2-1.2-0.3c-0.4-0.1-0.8-0.2-1.2-0.3l0,0l2.1,2.5
		c0.1,0.1,0.2,0.2,0.4,0.2c0.1,0,0.3-0.1,0.4-0.2l0.2,0.3c-0.4,0.3-0.7,0.5-0.9,0.7c-0.2,0.1-0.4,0.4-0.7,0.6l0,0
		c0.1-0.1,0.2-0.2,0.2-0.2l-0.3-0.2c0,0-0.1,0.1-0.1,0.1c0.1-0.1,0-0.3-0.1-0.5l-2.8-3.3c-0.1-0.1-0.2-0.2-0.3-0.2
		c-0.1,0-0.2,0-0.3,0.1l-0.2-0.3c0.5-0.4,0.9-0.7,1.1-0.8c0.2-0.1,0.5-0.4,0.9-0.8c0.3,0.1,0.6,0.2,0.9,0.2c0.3,0.1,0.6,0.2,1,0.3
		c0.4,0.1,0.7,0.2,0.9,0.3c0.3,0.1,0.5,0.2,0.8,0.2l0,0L-302,97c-0.1-0.1-0.2-0.2-0.4-0.2c0,0,0,0,0,0c-0.1,0-0.3,0.1-0.4,0.2
		l-0.2-0.3c0.4-0.3,0.7-0.5,0.8-0.6C-302,96-301.8,95.7-301.4,95.4 M-226.4,96.1c0.4,0.3,0.8,0.5,1.2,0.7c0.4,0.2,0.9,0.4,1.3,0.6
		c-0.3,0.3-0.6,0.7-0.8,0.9c-0.2,0.3-0.5,0.6-0.9,1c-0.3,0.4-0.7,0.8-0.9,1.1s-0.6,0.7-0.9,1c-0.2,0.2-0.2,0.5,0.1,0.7l-0.2,0.3
		c-0.6-0.5-1-0.9-1.3-1.1c-0.3-0.2-0.7-0.5-1.2-0.9l0.2-0.3c0.1,0.1,0.3,0.2,0.4,0.2c0,0,0,0,0.1,0c0.1,0,0.2-0.1,0.3-0.2l2.5-3.1
		c0.1-0.1,0.2-0.3,0.1-0.4c0-0.1-0.2-0.3-0.3-0.4L-226.4,96.1 M-221.9,99.5l3,3.2c-0.1,0.1-0.3,0.2-0.4,0.3
		c-0.1,0.1-0.2,0.2-0.3,0.2c-0.1,0.1-0.2,0.1-0.3,0.3l-2.1-2.2l-0.7,0.7c0.5,0.2,0.9,0.5,1.2,0.9c0.2,0.3,0.4,0.5,0.5,0.8
		c0.1,0.3,0.1,0.6,0.1,0.9s-0.2,0.6-0.5,0.8c-0.3,0.3-0.7,0.5-1.1,0.5c-0.1,0-0.2,0-0.3,0c-0.3,0-0.6-0.1-1-0.2
		c-0.4-0.2-0.9-0.4-1.3-0.6c-0.4-0.3-0.8-0.6-1.1-0.9c-0.1-0.1-0.3-0.3-0.5-0.5c0.1-0.1,0.1-0.2,0.3-0.3c0.1-0.1,0.2-0.2,0.2-0.3
		c0.3,0.3,0.6,0.5,1,0.7c0.3,0.2,0.7,0.3,1.1,0.4c0.1,0,0.1,0,0.2,0c0.3,0,0.5-0.1,0.7-0.3c0.2-0.2,0.3-0.5,0.2-0.8
		s-0.3-0.6-0.5-0.8c-0.3-0.3-0.6-0.5-0.9-0.7c0.2-0.2,0.5-0.4,0.7-0.6s0.5-0.4,0.8-0.7C-222.5,99.9-222.2,99.7-221.9,99.5
		 M-307.9,101.3l4.7,2.1c0.2,0.1,0.3,0.1,0.4,0.2c0.1,0,0.1,0,0.2,0c0,0,0,0,0.1,0c0.1,0,0.1,0,0.1-0.1c0,0.1-0.1,0.1-0.1,0.2
		l0.2,0.3c-0.3,0.3-0.6,0.6-0.8,0.8c-0.2,0.2-0.5,0.6-0.9,1.1l-0.3-0.2c0.1-0.1,0.1-0.2,0.1-0.2c0-0.1,0-0.2,0-0.2
		c-0.1-0.1-0.4-0.3-1-0.5l-1.3,1.4c0.2,0.3,0.3,0.5,0.4,0.7c0.1,0.1,0.2,0.2,0.2,0.3c0,0,0.1,0.1,0.1,0.1c0,0,0.1,0,0.1,0
		c0.1,0,0.2-0.1,0.2-0.2l0.3,0.2c-0.3,0.3-0.6,0.5-0.7,0.7c-0.1,0.2-0.3,0.4-0.6,0.8l-0.3-0.2c0.1-0.1,0.1-0.1,0.1-0.2
		c0-0.1,0-0.2-0.1-0.3c0-0.1-0.1-0.3-0.3-0.5l-1.9-3.2c-0.2-0.3-0.3-0.5-0.4-0.5c0,0-0.1-0.1-0.1-0.1c0,0,0,0-0.1,0
		c-0.1,0-0.2,0.1-0.2,0.2l-0.3-0.2c0.5-0.5,0.8-0.8,1-1.1C-308.6,102.2-308.3,101.8-307.9,101.3 M-306.9,105.2l0.9-1l-2.2-1l0,0
		L-306.9,105.2 M-215.2,194.5c0.8,0,1.6,0.3,2.2,0.9c0.6,0.6,0.9,1.4,0.9,2.2c0,0.8-0.3,1.6-0.9,2.2c-0.5,0.5-1.2,0.8-1.9,0.9
		c0.7,0.8,1,1.7,1,2.7c0,1.1-0.4,2.2-1.2,2.9c-0.8,0.8-1.8,1.2-2.9,1.2s-2.2-0.4-2.9-1.2c-1.6-1.6-1.6-4.3,0-5.9
		c0.8-0.8,1.8-1.2,2.9-1.2c0,0,0.1,0,0.1,0c-0.3-0.5-0.5-1.1-0.5-1.7c0-0.9,0.3-1.6,0.9-2.2C-216.8,194.8-216,194.5-215.2,194.5
		 M-215.2,199.4c0.5,0,0.9-0.2,1.3-0.5c0.3-0.3,0.5-0.8,0.5-1.3s-0.2-0.9-0.5-1.3c-0.3-0.3-0.8-0.5-1.3-0.5s-0.9,0.2-1.3,0.5
		c-0.3,0.3-0.5,0.8-0.5,1.3s0.2,0.9,0.5,1.3C-216.1,199.2-215.7,199.4-215.2,199.4 M-218,206.2c0.7,0,1.5-0.3,2-0.8
		c0.5-0.5,0.8-1.2,0.8-2s-0.3-1.5-0.8-2c-0.5-0.5-1.2-0.8-2-0.8s-1.5,0.3-2,0.8c-1.1,1.1-1.1,2.9,0,4
		C-219.4,206-218.7,206.2-218,206.2 M-312.8,194.5c0.8,0,1.6,0.3,2.2,0.9c0.6,0.6,0.9,1.4,0.9,2.2c0,0.6-0.2,1.2-0.5,1.7
		c0,0,0.1,0,0.1,0c1.1,0,2.2,0.4,2.9,1.2c1.6,1.6,1.6,4.3,0,5.9c-0.8,0.8-1.8,1.2-2.9,1.2c-1.1,0-2.2-0.4-2.9-1.2
		c-1.6-1.6-1.6-4-0.2-5.7c-0.7-0.1-1.4-0.4-1.9-0.9c-0.6-0.6-0.9-1.4-0.9-2.2c0-0.9,0.3-1.6,0.9-2.2
		C-314.5,194.8-313.6,194.5-312.8,194.5 M-312.8,199.4c0.5,0,0.9-0.2,1.3-0.5c0.3-0.3,0.5-0.8,0.5-1.3c0-0.5-0.2-0.9-0.5-1.3
		c-0.3-0.3-0.8-0.5-1.3-0.5c-0.5,0-0.9,0.2-1.3,0.5c-0.3,0.3-0.5,0.8-0.5,1.3s0.2,0.9,0.5,1.3C-313.7,199.2-313.3,199.4-312.8,199.4
		 M-310,206.2c0.7,0,1.5-0.3,2-0.8c1.1-1.1,1.1-2.9,0-4c-0.5-0.5-1.2-0.8-2-0.8c-0.7,0-1.5,0.3-2,0.8c-1.1,1.1-1.1,2.9,0,4
		C-311.5,206-310.8,206.2-310,206.2 M-294.9,194.6v0.8c-0.5,0-0.8,0.1-1,0.2c-0.2,0.1-0.3,0.4-0.3,0.8v9.1h3.2
		c0.8,0,1.3-0.2,1.6-0.7s0.5-1,0.6-1.6h0.8c-0.1,0.9-0.2,1.5-0.3,1.8c0,0.3-0.1,0.8-0.1,1.2c0,0.5-0.1,1-0.1,1.5h-11.2v-0.8
		c0.3,0,0.5-0.1,0.7-0.2c0.2-0.1,0.3-0.4,0.3-0.7v-9.9c0-0.6-0.3-0.9-1-0.9v-0.8c1.4,0.1,2.4,0.1,3,0.1
		C-298,194.7-296.7,194.7-294.9,194.6 M-233.5,197.4c0,0.3-0.1,0.6-0.1,1c-0.1,0.4-0.1,0.7-0.1,0.9h0c0.4-0.5,0.9-0.8,1.5-1.1
		c0.5-0.3,1.1-0.4,1.7-0.4c2.3,0,3.4,1.2,3.4,3.7v4.7c0,0.4,0.1,0.6,0.2,0.7c0.1,0.1,0.4,0.2,0.8,0.2v0.8c-1.1-0.1-1.9-0.1-2.5-0.1
		c-0.6,0-1.5,0-2.7,0.1c0.1-0.5,0.1-1,0.1-1.4v-4.7c0-0.4-0.1-0.7-0.2-0.9c-0.2-0.2-0.4-0.3-0.8-0.3c-0.4,0-0.7,0.1-0.9,0.4
		c-0.2,0.2-0.3,0.6-0.3,1.1v4.3c0,0.3,0.1,0.5,0.3,0.6c0.2,0.1,0.4,0.1,0.7,0.1v0.8c-1.5-0.1-2.5-0.1-3-0.1c-0.6,0-1.6,0-3.1,0.1
		v-0.8c0.3,0,0.5,0,0.7-0.1c0.2-0.1,0.3-0.3,0.3-0.6V200c0-0.4-0.3-0.7-1-0.7v-0.8c0.7-0.1,1.6-0.2,2.6-0.4
		C-235,197.9-234.2,197.7-233.5,197.4 M-265,197.4c0,0.4,0,1.2,0,2.3c0,1.1,0,1.7,0,1.8v4.7c0,0.4,0.1,0.6,0.2,0.7
		c0.1,0.1,0.4,0.2,0.8,0.2v0.8c-1.1-0.1-2-0.1-2.6-0.1c-0.5,0-1.3,0-2.4,0.1v-1.6h0c-0.2,0.4-0.5,0.7-0.8,1s-0.7,0.5-1,0.7
		c-0.4,0.2-0.8,0.2-1.2,0.2c-1.1,0-1.9-0.3-2.5-0.9c-0.6-0.6-0.9-1.5-0.9-2.8V200c0-0.4-0.3-0.7-1-0.7v-0.8c0.7-0.1,1.6-0.2,2.6-0.4
		c1-0.2,1.9-0.4,2.5-0.7c0,0.6,0,1.1,0,1.5c0,0.4,0,0.8,0,1.4c0,0.6,0,1.2,0,1.8c0,0.6,0,1.1,0,1.5c0,0.6,0.1,1.1,0.3,1.3
		c0.2,0.2,0.5,0.4,0.9,0.4c0.4,0,0.6-0.1,0.8-0.4c0.2-0.3,0.3-0.6,0.3-1.1V200c0-0.4-0.3-0.7-1-0.7v-0.8c0.7-0.1,1.6-0.2,2.6-0.4
		C-266.5,197.9-265.7,197.7-265,197.4 M-245.5,197.9c1.2,0,2.2,0.2,3.1,0.6c0.8,0.4,1.5,0.9,1.9,1.6s0.6,1.5,0.6,2.4
		c0,0.4,0,0.8-0.1,1h-6.5c0,0.8,0.3,1.4,0.8,1.8c0.5,0.4,1.2,0.5,2.1,0.5c0.5,0,1.1-0.1,1.6-0.3c0.6-0.2,1.1-0.4,1.5-0.7l-0.3,2.4
		c-0.6,0.4-1.3,0.7-1.9,0.8s-1.6,0.3-2.9,0.3c-0.9,0-1.7-0.1-2.5-0.4c-0.7-0.3-1.4-0.7-1.8-1.2s-0.8-1-1.1-1.7
		c-0.2-0.6-0.4-1.3-0.4-1.9c0-0.8,0.1-1.5,0.4-2.2s0.7-1.2,1.2-1.7c0.5-0.5,1.2-0.8,1.9-1C-247,198-246.3,197.9-245.5,197.9
		 M-246.7,201.8h3c0-0.5-0.1-0.9-0.4-1.2c-0.2-0.3-0.6-0.5-1.1-0.5c-0.5,0-0.9,0.2-1.1,0.5C-246.6,200.8-246.7,201.2-246.7,201.8
		 M-283.4,197.9c1.2,0,2.2,0.2,3.1,0.6c0.8,0.4,1.5,0.9,1.9,1.6s0.6,1.5,0.6,2.4c0,0.4,0,0.8-0.1,1h-6.5c0,0.8,0.3,1.4,0.8,1.8
		c0.5,0.4,1.2,0.5,2.1,0.5c0.5,0,1.1-0.1,1.6-0.3c0.6-0.2,1.1-0.4,1.5-0.7l-0.3,2.4c-0.6,0.4-1.3,0.7-1.9,0.8
		c-0.7,0.2-1.6,0.3-2.9,0.3c-0.9,0-1.7-0.1-2.5-0.4c-0.7-0.3-1.4-0.7-1.8-1.2s-0.8-1-1.1-1.7c-0.2-0.6-0.4-1.3-0.4-1.9
		c0-0.8,0.1-1.5,0.4-2.2s0.7-1.2,1.2-1.7c0.5-0.5,1.2-0.8,1.9-1C-285,198-284.2,197.9-283.4,197.9 M-284.6,201.8h3
		c0-0.5-0.1-0.9-0.4-1.2c-0.2-0.3-0.6-0.5-1.1-0.5c-0.5,0-0.9,0.2-1.1,0.5C-284.5,200.8-284.6,201.2-284.6,201.8 M-251.6,198.2v0.8
		c-0.3,0-0.5,0.1-0.6,0.2c-0.2,0.1-0.3,0.5-0.5,1l-2.4,7.7h-5l-2.6-8.4c-0.1-0.2-0.2-0.4-0.3-0.4c-0.2-0.1-0.4-0.1-0.6-0.1v-0.8
		c1.5,0.1,2.6,0.1,3.3,0.1c0.8,0,1.8,0,3.2-0.1v0.8c-0.4,0-0.7,0.1-0.8,0.2c-0.1,0.1-0.2,0.3-0.2,0.5c0,0.2,0.1,0.7,0.3,1.5l1.1,4
		h0.1l1-3.9c0.2-0.8,0.3-1.3,0.3-1.5c0-0.3-0.1-0.5-0.2-0.6c-0.1-0.1-0.4-0.2-0.7-0.2v-0.8c0.9,0.1,1.6,0.1,2.1,0.1
		C-253.6,198.3-252.7,198.3-251.6,198.2 M-290.7,88.3L-290.7,88.3c-0.1,0-0.1,0-0.2,0c-0.5,0-1.1,0.2-1.6,0.4
		c-0.5,0.2-0.9,0.6-1.3,1c-0.4,0.4-0.6,0.9-0.8,1.4c0,0,0,0,0,0.1l-0.1-0.1c-0.2-0.2-0.4-0.4-0.7-0.4c-0.1,0-0.1,0-0.2,0
		c-0.2,0-0.4,0.1-0.6,0.2c-0.5,0.3-0.7,0.5-0.7,0.5c-0.1,0.1-0.3,0.2-0.9,0.5c-0.2,0.1-0.4,0.4-0.5,0.6c0,0,0,0.1,0,0.1
		c-0.1,0-0.2,0-0.3,0c-0.2,0-0.4,0.1-0.6,0.2c-0.4,0.3-0.7,0.5-0.9,0.7c-0.2,0.1-0.6,0.3-1.1,0.7c-0.2,0.1-0.3,0.2-0.4,0.4
		c-0.2,0-0.4,0.1-0.5,0.3c-0.4,0.4-0.6,0.6-0.7,0.6c-0.1,0.1-0.3,0.2-0.8,0.6c-0.2,0.2-0.4,0.4-0.4,0.7c0,0,0,0.1,0,0.1
		c-0.1,0-0.1,0-0.2,0c-0.3,0-0.5,0.1-0.7,0.3c-0.5,0.5-0.7,0.7-0.8,0.8c-0.2,0.1-0.5,0.4-1,0.8c-0.2,0.2-0.4,0.4-0.4,0.7
		c0,0.3,0.1,0.5,0.2,0.8l0.2,0.3c0.2,0.2,0.5,0.4,0.8,0.4c0,0,0.1,0,0.1,0l0.6,0.7l-2.3-1c-0.1-0.1-0.3-0.1-0.4-0.1
		c-0.3,0-0.6,0.1-0.8,0.4c-0.5,0.6-0.8,0.9-0.9,1.1c-0.2,0.2-0.6,0.6-1,1c-0.2,0.2-0.3,0.5-0.3,0.7c0,0.3,0.1,0.5,0.3,0.7l0.3,0.2
		c0.2,0.2,0.4,0.3,0.7,0.3c0,0,0,0,0,0l1.8,3.2c0,0.1,0.1,0.1,0.1,0.2c-0.1,0.4,0,0.8,0.3,1l0.3,0.2c0.2,0.2,0.4,0.3,0.7,0.3
		c0,0,0.1,0,0.1,0c0.3,0,0.5-0.2,0.7-0.4c0.3-0.4,0.5-0.6,0.6-0.7c0.2-0.2,0.4-0.4,0.7-0.7c0.2-0.2,0.3-0.5,0.3-0.7
		c0-0.1,0-0.1,0-0.2c0,0,0.1,0,0.1,0s0.1,0,0.1,0c0.3,0,0.5-0.2,0.7-0.4c0.4-0.5,0.7-0.8,0.9-1c0.2-0.2,0.4-0.4,0.7-0.7
		c0,0,0.1-0.1,0.1-0.1c0.3-0.3,0.5-0.5,0.6-0.6c0.2-0.1,0.5-0.4,0.9-0.7c0.2-0.2,0.4-0.4,0.4-0.7c0-0.3,0-0.6-0.2-0.8l-0.1-0.1
		c0.3,0.1,0.6,0.2,0.8,0.2c0.1,0,0.2,0,0.3,0c0.2,0,0.5-0.1,0.6-0.2l1-0.9c0.1-0.1,0.1-0.1,0.2-0.2c0.1,0,0.1-0.1,0.2-0.1
		c0.3-0.2,0.5-0.4,0.7-0.5c0.1-0.1,0.4-0.3,0.9-0.5c0.2-0.1,0.4-0.4,0.5-0.6c0.1-0.3,0-0.6-0.1-0.8l-0.1-0.1l0,0l0.8,0.3
		c0.1,0.1,0.3,0.1,0.4,0.1c0.2,0,0.4-0.1,0.5-0.2l1.1-0.7c0.4-0.2,0.5-0.7,0.4-1.1c0.2,0.1,0.4,0.1,0.7,0.1c0.1,0,0.2,0,0.3,0
		c0.6,0,1.2-0.1,1.8-0.4c0.5-0.2,0.9-0.6,1.3-0.9c0.4-0.4,0.6-0.8,0.8-1.3c0.2-0.5,0.3-1,0.3-1.6c0-0.6-0.2-1.1-0.4-1.6
		c-0.2-0.5-0.6-1-1-1.3c-0.4-0.4-0.9-0.7-1.4-0.8C-289.8,88.4-290.3,88.3-290.7,88.3L-290.7,88.3z M-290.4,93
		c-0.1-0.1-0.2-0.2-0.3-0.3c-0.2-0.3-0.4-0.6-0.5-0.8c0,0,0,0,0,0c0.1,0.1,0.3,0.3,0.4,0.5c0.1,0.2,0.3,0.4,0.3,0.6
		C-290.4,93-290.4,93-290.4,93L-290.4,93z M-237,88.6C-237,88.6-237,88.6-237,88.6c-0.4,0-0.7,0.2-0.9,0.5c-0.2,0.5-0.5,0.9-0.8,1.3
		c-0.2,0.2-0.2,0.5-0.1,0.8c0.1,0.3,0.3,0.5,0.5,0.6l0.4,0.2c0.1,0.1,0.3,0.1,0.5,0.1c0.3,0,0.5-0.1,0.7-0.3c0,0,0,0,0.1-0.1
		c0,0,0,0,0,0c-0.1,0.2-0.2,0.3-0.3,0.4c-0.2,0.1-0.3,0.2-0.5,0.3c-0.2,0.1-0.5,0.1-0.8,0.1c-0.1,0-0.2,0-0.4,0c-0.2,0-0.4,0-0.6,0
		c0,0,0,0-0.1,0c-0.4,0-0.7,0.2-0.9,0.5l-0.5,0.8c-0.1,0.2-0.2,0.5-0.1,0.8c0.1,0.3,0.3,0.5,0.5,0.6l4.2,2.2
		c0.1,0.1,0.3,0.1,0.5,0.1c0.2,0,0.3,0,0.5-0.1c0.1,0.2,0.2,0.4,0.3,0.6c0.3,0.4,0.7,0.8,1.2,1.2c0.5,0.3,1,0.5,1.6,0.6
		c0.2,0,0.3,0,0.5,0c0.3,0,0.6,0,0.9-0.1c-0.2,0.2-0.3,0.5-0.2,0.8c0,0.3,0.2,0.5,0.4,0.7c0.5,0.4,0.9,0.7,1.1,0.9
		c0.3,0.2,0.7,0.6,1.2,1.1c0.2,0.2,0.4,0.2,0.6,0.3c0,0.3,0,0.5,0.2,0.8c0.2,0.2,0.4,0.4,0.5,0.6c0.4,0.4,0.8,0.7,1.2,1
		c0.5,0.3,1,0.6,1.5,0.7c0.4,0.1,0.9,0.2,1.3,0.2c0.1,0,0.3,0,0.4,0c0.6-0.1,1.2-0.3,1.7-0.8c0.4-0.4,0.7-0.8,0.8-1.4
		c0-0.1,0-0.2,0-0.3c0.2,0,0.4-0.1,0.6-0.2l0.2-0.1l0.2-0.1l0.3-0.2c0.1-0.1,0.2-0.2,0.4-0.3c0.2-0.2,0.4-0.4,0.4-0.7
		s-0.1-0.6-0.3-0.8l-3-3.2c-0.2-0.2-0.5-0.3-0.7-0.3c-0.2,0-0.5,0.1-0.7,0.2c-0.3,0.2-0.5,0.5-0.8,0.7l-0.1,0.1
		c-0.3,0.2-0.5,0.4-0.7,0.6c-0.3,0.2-0.5,0.4-0.7,0.6c-0.3,0.2-0.4,0.6-0.3,0.9s0.3,0.6,0.6,0.8c0.2,0.1,0.4,0.2,0.6,0.4
		c0.1,0.1,0.1,0.1,0.2,0.2c-0.2,0-0.4-0.1-0.6-0.2c-0.3-0.2-0.6-0.4-0.8-0.6c-0.2-0.2-0.4-0.2-0.6-0.2c0,0-0.1,0-0.1,0
		c0,0-0.1,0-0.1,0c0,0,0-0.1,0-0.1l0.6-0.7l1-1.1l0.1-0.1c0.3-0.4,0.6-0.7,0.8-1l0.8-1c0.2-0.3,0.3-0.6,0.2-0.9s-0.3-0.6-0.6-0.7
		c-0.4-0.1-0.8-0.3-1.2-0.5c-0.4-0.2-0.8-0.4-1.2-0.7c-0.2-0.1-0.4-0.2-0.5-0.2c-0.3,0-0.6,0.1-0.8,0.4l-0.2,0.3c0,0,0,0,0,0
		c0-0.2,0-0.5,0-0.7c0-0.5-0.2-1-0.5-1.5c-0.3-0.4-0.7-0.8-1.2-1.2c-0.5-0.3-1-0.5-1.6-0.6c-0.2,0-0.3,0-0.5,0l0,0
		c-0.4,0-0.7,0.1-1.1,0.2c-0.1,0-0.2,0.1-0.3,0.1c0-0.1,0-0.3-0.1-0.4c-0.1-0.5-0.4-1-0.8-1.5c-0.4-0.4-0.8-0.7-1.3-0.9
		C-235.4,88.8-236.2,88.6-237,88.6L-237,88.6z M-228.3,98c0,0,0.1-0.1,0.1-0.1c0.3-0.4,0.5-0.9,0.6-1.3c0,0.1,0.1,0.3,0.2,0.4
		L-228.3,98L-228.3,98z M-229.5,99.2c0.1-0.1,0.2-0.1,0.3-0.2c0.1,0,0.1-0.1,0.2-0.1L-229.5,99.2C-229.4,99.2-229.4,99.2-229.5,99.2
		L-229.5,99.2z M-215.2,193.5c-1.1,0-2.2,0.4-3,1.2c-0.8,0.8-1.2,1.8-1.2,3c0,0.3,0,0.6,0.1,0.9c-0.9,0.2-1.7,0.7-2.3,1.3
		c-1,1-1.5,2.3-1.5,3.7c0,1.4,0.5,2.7,1.5,3.7c1,1,2.3,1.5,3.7,1.5c1.4,0,2.7-0.5,3.7-1.5c1-1,1.5-2.3,1.5-3.7
		c0-0.7-0.2-1.5-0.5-2.2c0.4-0.2,0.7-0.4,1-0.8c0.8-0.8,1.2-1.8,1.2-3c0-1.1-0.4-2.2-1.2-3C-213,193.9-214.1,193.5-215.2,193.5
		L-215.2,193.5z M-215.2,198.4c-0.2,0-0.4-0.1-0.6-0.2c-0.2-0.2-0.2-0.4-0.2-0.6s0.1-0.4,0.2-0.6c0.2-0.2,0.4-0.2,0.6-0.2
		s0.4,0.1,0.6,0.2c0.2,0.2,0.2,0.4,0.2,0.6c0,0.2-0.1,0.4-0.2,0.6C-214.8,198.3-215,198.4-215.2,198.4L-215.2,198.4z M-218,205.2
		c-0.5,0-1-0.2-1.3-0.5c-0.3-0.3-0.5-0.8-0.5-1.3s0.2-0.9,0.5-1.3c0.3-0.3,0.8-0.5,1.3-0.5c0.5,0,0.9,0.2,1.3,0.5
		c0.3,0.3,0.5,0.8,0.5,1.3c0,0.5-0.2,0.9-0.5,1.3C-217,205.1-217.5,205.2-218,205.2L-218,205.2z M-312.8,193.5L-312.8,193.5
		c-1.1,0-2.2,0.4-3,1.2c-0.8,0.8-1.2,1.8-1.2,3c0,1.1,0.4,2.2,1.2,2.9c0.3,0.3,0.7,0.6,1.1,0.8c-0.9,1.9-0.5,4.3,1,5.8
		c1,1,2.3,1.5,3.7,1.5s2.7-0.5,3.7-1.5c1-1,1.5-2.3,1.5-3.7s-0.5-2.7-1.5-3.7c-0.7-0.7-1.5-1.1-2.3-1.3c0.1-0.3,0.1-0.6,0.1-0.9
		c0-1.1-0.4-2.2-1.2-3C-310.6,193.9-311.7,193.5-312.8,193.5L-312.8,193.5L-312.8,193.5z M-312.8,198.4c-0.2,0-0.4-0.1-0.6-0.2
		c-0.2-0.2-0.2-0.4-0.2-0.6c0-0.2,0.1-0.4,0.2-0.6c0.2-0.2,0.4-0.2,0.6-0.2s0.4,0.1,0.6,0.2c0.2,0.2,0.2,0.4,0.2,0.6
		c0,0.2-0.1,0.4-0.2,0.6C-312.4,198.3-312.6,198.4-312.8,198.4L-312.8,198.4z M-310,205.2c-0.5,0-1-0.2-1.3-0.5
		c-0.7-0.7-0.7-1.8,0-2.6c0.3-0.3,0.8-0.5,1.3-0.5s0.9,0.2,1.3,0.5c0.7,0.7,0.7,1.8,0,2.6C-309.1,205.1-309.5,205.2-310,205.2
		L-310,205.2z M-294.9,193.6C-294.9,193.6-294.9,193.6-294.9,193.6c-1.9,0.1-3.1,0.1-3.8,0.1c-0.6,0-1.6,0-3-0.1c0,0,0,0-0.1,0
		c-0.3,0-0.5,0.1-0.7,0.3c-0.2,0.2-0.3,0.5-0.3,0.7v0.8c0,0.6,0.4,1,1,1c0,0,0,0,0,0l0,9.7c0,0,0,0,0,0c-0.6,0-1,0.4-1,1v0.8
		c0,0.6,0.4,1,1,1h11.2c0.6,0,1-0.4,1-1c0-0.5,0-1,0.1-1.4c0-0.1,0-0.1,0-0.2c0.3,0.4,0.6,0.9,0.9,1.2c0.6,0.6,1.3,1.1,2.2,1.4
		c0.9,0.3,1.8,0.5,2.8,0.5c1.4,0,2.4-0.1,3.1-0.3c0.7-0.2,1.5-0.5,2.2-0.9c0.3-0.2,0.4-0.4,0.5-0.7l0.3-2.4c0-0.2,0-0.4-0.1-0.6
		c0.3-0.1,0.5-0.4,0.5-0.7c0-0.3,0.1-0.7,0.1-1.2c0-1.1-0.3-2-0.8-2.9c-0.5-0.9-1.3-1.5-2.3-2c-1-0.5-2.1-0.7-3.5-0.7
		c-0.9,0-1.8,0.1-2.6,0.4c-0.8,0.3-1.6,0.7-2.2,1.2c-0.6,0.6-1.1,1.2-1.5,2c-0.2,0.5-0.4,1.1-0.5,1.7h-0.6c-0.5,0-0.9,0.3-1,0.8
		c-0.1,0.5-0.2,0.9-0.5,1.2c0,0.1-0.3,0.2-0.7,0.2h-2.2v-8.1c0.1,0,0.2,0,0.3,0c0.6,0,1-0.4,1-1v-0.8c0-0.3-0.1-0.5-0.3-0.7
		C-294.4,193.7-294.6,193.6-294.9,193.6L-294.9,193.6z M-283.1,204.5h3.1c-0.1,0-0.2,0.1-0.2,0.1c-0.5,0.2-0.9,0.2-1.3,0.2
		C-282.2,204.8-282.7,204.7-283.1,204.5L-283.1,204.5z M-233.5,196.4c-0.1,0-0.2,0-0.4,0.1c-0.6,0.2-1.4,0.4-2.4,0.6
		c-1,0.2-1.8,0.3-2.5,0.4c-0.5,0-0.9,0.5-0.9,1v0.8c0,0.5,0.4,1,1,1v5.9c-0.5,0-1,0.5-1,1v0.8c0,0.3,0.1,0.5,0.3,0.7
		c0.2,0.2,0.4,0.3,0.7,0.3c0,0,0,0,0.1,0c1.5-0.1,2.5-0.1,3-0.1c0.5,0,1.5,0,3,0.1c0,0,0,0,0.1,0c0.2,0,0.4-0.1,0.6-0.2
		c0.2,0.1,0.4,0.2,0.6,0.2c0,0,0,0,0.1,0c1.2-0.1,2.1-0.1,2.6-0.1c0.6,0,1.4,0,2.4,0.1c0,0,0.1,0,0.1,0c0.3,0,0.5-0.1,0.7-0.3
		c0.2-0.2,0.3-0.5,0.3-0.7v-0.8c0-0.3-0.1-0.5-0.3-0.7c-0.2-0.2-0.4-0.3-0.7-0.3v-4.6c0-3-1.6-4.7-4.4-4.7c-0.7,0-1.3,0.1-2,0.4
		c0-0.3-0.2-0.5-0.4-0.7C-233.1,196.5-233.3,196.4-233.5,196.4L-233.5,196.4z M-232.6,206.2v-4c0-0.2,0-0.3,0.1-0.4
		c0,0,0-0.1,0.2-0.1c0,0,0,0,0,0c0,0,0,0.1,0,0.1v4.4C-232.3,206.2-232.4,206.2-232.6,206.2L-232.6,206.2z M-271.4,196.4
		c-0.1,0-0.2,0-0.4,0.1c-0.6,0.2-1.4,0.4-2.4,0.6c-1,0.2-1.8,0.3-2.5,0.4c-0.5,0-0.9,0.5-0.9,1v0.8c0,0.5,0.4,1,1,1v4.3
		c0,1.6,0.4,2.8,1.3,3.5c0.8,0.8,1.9,1.1,3.2,1.1c0.6,0,1.1-0.1,1.6-0.3c0.3-0.1,0.5-0.2,0.8-0.4c0,0,0.1,0.1,0.1,0.1
		c0.2,0.2,0.4,0.3,0.7,0.3c0,0,0.1,0,0.1,0c1-0.1,1.8-0.1,2.3-0.1c0.5,0,1.4,0,2.5,0.1c0,0,0,0,0.1,0c0.3,0,0.5-0.1,0.7-0.3
		c0.2-0.2,0.3-0.5,0.3-0.7v-0.8c0-0.5-0.4-1-1-1v-4.6c0-0.1,0-0.7,0-1.6c0.1,0,0.2,0,0.3,0c0,0,0,0,0,0l2.6,8.3
		c0.1,0.4,0.5,0.7,1,0.7h5c0.4,0,0.8-0.3,1-0.7l2.4-7.7c0.1-0.3,0.2-0.4,0.2-0.5c0,0,0.1,0,0.1,0c-0.1,0.2-0.2,0.4-0.3,0.5
		c-0.3,0.8-0.5,1.7-0.5,2.6c0,0.8,0.1,1.6,0.4,2.3c0.3,0.8,0.7,1.4,1.3,2c0.6,0.6,1.3,1.1,2.2,1.4c0.9,0.3,1.8,0.5,2.8,0.5
		c1.4,0,2.4-0.1,3.1-0.3c0.7-0.2,1.5-0.5,2.2-0.9c0.3-0.2,0.4-0.4,0.5-0.7l0.3-2.4c0-0.2,0-0.4-0.1-0.6c0.3-0.1,0.5-0.4,0.5-0.7
		c0-0.3,0.1-0.7,0.1-1.2c0-1.1-0.3-2-0.8-2.9c-0.5-0.9-1.3-1.5-2.3-2c-1-0.5-2.1-0.7-3.5-0.7c-0.9,0-1.8,0.1-2.6,0.4
		c-0.8,0.3-1.6,0.7-2.2,1.2c-0.1,0.1-0.2,0.2-0.4,0.3v-0.6c0-0.3-0.1-0.5-0.3-0.7c-0.2-0.2-0.4-0.3-0.7-0.3c0,0,0,0-0.1,0
		c-1.1,0.1-1.9,0.1-2.4,0.1c-0.5,0-1.2,0-2-0.1c0,0-0.1,0-0.1,0c-0.2,0-0.3,0-0.5,0.1c-0.2-0.1-0.3-0.1-0.5-0.1c0,0,0,0-0.1,0
		c-1.3,0.1-2.4,0.1-3.1,0.1c-0.7,0-1.8,0-3.2-0.1c0,0,0,0-0.1,0c-0.1,0-0.2,0-0.3,0c0-0.3-0.2-0.5-0.4-0.7c-0.2-0.1-0.4-0.2-0.5-0.2
		c-0.1,0-0.2,0-0.4,0.1c-0.6,0.2-1.4,0.4-2.4,0.6c-1,0.2-1.8,0.3-2.5,0.4c-0.1,0-0.1,0-0.2,0c0,0,0-0.1,0-0.1c0-0.3-0.2-0.6-0.4-0.8
		C-271,196.5-271.2,196.4-271.4,196.4L-271.4,196.4z M-257.1,200c0.1,0,0.3-0.1,0.4-0.1c0.1,0.1,0.2,0.1,0.3,0.1
		c0,0.2-0.1,0.5-0.3,1l-0.1,0.4l-0.1-0.5C-257,200.4-257.1,200.2-257.1,200L-257.1,200z M-270.4,204.3c0-0.1-0.1-0.3-0.1-0.7
		c0-0.4,0-0.9,0-1.5c0-0.6,0-1.2,0-1.8c0,0,0-0.1,0-0.1c0.1,0,0.2,0,0.3,0v3.5c0,0.4-0.1,0.5-0.1,0.5
		C-270.3,204.3-270.3,204.3-270.4,204.3C-270.4,204.3-270.4,204.3-270.4,204.3L-270.4,204.3z M-245.1,204.5h3.1
		c-0.1,0-0.2,0.1-0.2,0.1c-0.5,0.2-0.9,0.2-1.3,0.2C-244.3,204.8-244.8,204.7-245.1,204.5L-245.1,204.5z"/>
</g>
<g>
	<path class="st2" d="M-300.7,206.2v-9.9c0-0.6-0.3-0.9-1-0.9v-0.8c1.4,0.1,2.4,0.1,3,0.1c0.7,0,2,0,3.8-0.1v0.8
		c-0.5,0-0.8,0.1-1,0.2c-0.2,0.1-0.3,0.4-0.3,0.8v9.1h3.2c0.8,0,1.3-0.2,1.6-0.7s0.5-1,0.6-1.6h0.8c-0.1,0.9-0.2,1.5-0.3,1.8
		c0,0.3-0.1,0.8-0.1,1.2c0,0.5-0.1,1-0.1,1.5h-11.2v-0.8c0.3,0,0.5-0.1,0.7-0.2C-300.8,206.8-300.7,206.5-300.7,206.2z"/>
</g>
<g>
	<path class="st2" d="M-277.9,203.5h-6.5c0,0.8,0.3,1.4,0.8,1.8c0.5,0.4,1.2,0.5,2.1,0.5c0.5,0,1.1-0.1,1.7-0.3
		c0.6-0.2,1.1-0.4,1.5-0.7l-0.3,2.4c-0.6,0.4-1.3,0.7-1.9,0.8c-0.7,0.2-1.6,0.3-2.9,0.3c-0.9,0-1.7-0.1-2.5-0.4
		c-0.7-0.3-1.4-0.7-1.8-1.2s-0.8-1-1.1-1.7c-0.2-0.6-0.4-1.3-0.4-1.9c0-0.8,0.1-1.5,0.4-2.2s0.7-1.2,1.2-1.7c0.5-0.5,1.2-0.8,1.9-1
		c0.7-0.2,1.5-0.4,2.3-0.4c1.2,0,2.2,0.2,3,0.6c0.8,0.4,1.5,0.9,1.9,1.6s0.6,1.5,0.6,2.4C-277.9,202.9-277.9,203.2-277.9,203.5z
		 M-284.6,201.8h3c0-0.5-0.1-0.9-0.4-1.2c-0.2-0.3-0.6-0.5-1.1-0.5c-0.5,0-0.9,0.2-1.1,0.5C-284.5,200.8-284.6,201.2-284.6,201.8z"
		/>
</g>
<g>
	<path class="st2" d="M-276.6,199.3v-0.8c0.7-0.1,1.6-0.2,2.6-0.4c1-0.2,1.9-0.4,2.5-0.7c0,0.6,0,1.1,0,1.5c0,0.4,0,0.8,0,1.4
		c0,0.6,0,1.2,0,1.8c0,0.6,0,1.1,0,1.5c0,0.6,0.1,1.1,0.3,1.3c0.2,0.2,0.5,0.4,0.9,0.4c0.4,0,0.6-0.1,0.8-0.4
		c0.2-0.3,0.3-0.6,0.3-1.1V200c0-0.4-0.3-0.7-1-0.7v-0.8c0.7-0.1,1.6-0.2,2.6-0.4c1-0.2,1.9-0.4,2.5-0.7c0,0.4,0,1.2,0,2.3
		c0,1.1,0,1.7,0,1.8v4.7c0,0.4,0.1,0.6,0.2,0.7c0.1,0.1,0.4,0.2,0.8,0.2v0.8c-1.1-0.1-2-0.1-2.6-0.1c-0.5,0-1.3,0-2.4,0.1v-1.6h0
		c-0.2,0.4-0.5,0.7-0.8,1s-0.7,0.5-1,0.7c-0.4,0.2-0.8,0.2-1.2,0.2c-1.1,0-1.9-0.3-2.5-0.9c-0.6-0.6-0.9-1.5-0.9-2.8V200
		C-275.6,199.5-275.9,199.3-276.6,199.3z"/>
</g>
<g>
	<path class="st2" d="M-260.2,208l-2.6-8.4c-0.1-0.2-0.2-0.4-0.3-0.4c-0.2-0.1-0.4-0.1-0.6-0.1v-0.8c1.5,0.1,2.6,0.1,3.3,0.1
		c0.8,0,1.8,0,3.2-0.1v0.8c-0.4,0-0.7,0.1-0.8,0.2c-0.1,0.1-0.2,0.3-0.2,0.5c0,0.2,0.1,0.7,0.3,1.5l1.1,4h0.1l1-3.9
		c0.2-0.8,0.3-1.3,0.3-1.5c0-0.3-0.1-0.5-0.2-0.6c-0.1-0.1-0.4-0.2-0.7-0.2v-0.8c0.9,0.1,1.6,0.1,2.1,0.1c0.6,0,1.4,0,2.5-0.1v0.8
		c-0.3,0-0.5,0.1-0.6,0.2c-0.2,0.1-0.3,0.5-0.5,1l-2.4,7.7L-260.2,208L-260.2,208z"/>
</g>
<g>
	<path class="st2" d="M-240,203.5h-6.5c0,0.8,0.3,1.4,0.8,1.8c0.5,0.4,1.2,0.5,2.1,0.5c0.5,0,1.1-0.1,1.6-0.3
		c0.6-0.2,1.1-0.4,1.5-0.7l-0.3,2.4c-0.6,0.4-1.3,0.7-1.9,0.8s-1.6,0.3-2.9,0.3c-0.9,0-1.7-0.1-2.5-0.4c-0.7-0.3-1.4-0.7-1.8-1.2
		s-0.8-1-1.1-1.7c-0.2-0.6-0.4-1.3-0.4-1.9c0-0.8,0.1-1.5,0.4-2.2s0.7-1.2,1.2-1.7c0.5-0.5,1.2-0.8,1.9-1c0.7-0.2,1.5-0.4,2.3-0.4
		c1.2,0,2.2,0.2,3.1,0.6c0.8,0.4,1.5,0.9,1.9,1.6s0.6,1.5,0.6,2.4C-239.9,202.9-240,203.2-240,203.5z M-246.7,201.8h3
		c0-0.5-0.1-0.9-0.4-1.2c-0.2-0.3-0.6-0.5-1.1-0.5c-0.5,0-0.9,0.2-1.1,0.5C-246.6,200.8-246.7,201.2-246.7,201.8z"/>
</g>
<g>
	<path class="st2" d="M-238.7,208v-0.8c0.3,0,0.5,0,0.7-0.1c0.2-0.1,0.3-0.3,0.3-0.6V200c0-0.4-0.3-0.7-1-0.7v-0.8
		c0.7-0.1,1.6-0.2,2.6-0.4c1-0.2,1.9-0.4,2.5-0.7c0,0.3-0.1,0.6-0.1,1c-0.1,0.4-0.1,0.7-0.1,0.9h0c0.4-0.5,0.9-0.8,1.5-1.1
		c0.5-0.3,1.1-0.4,1.7-0.4c2.3,0,3.4,1.2,3.4,3.7v4.7c0,0.4,0.1,0.6,0.2,0.7c0.1,0.1,0.4,0.2,0.8,0.2v0.8c-1.1-0.1-1.9-0.1-2.5-0.1
		c-0.6,0-1.5,0-2.7,0.1c0.1-0.5,0.1-1,0.1-1.4v-4.7c0-0.4-0.1-0.7-0.2-0.9c-0.2-0.2-0.4-0.3-0.8-0.3c-0.4,0-0.7,0.1-0.9,0.4
		c-0.2,0.2-0.3,0.6-0.3,1.1v4.3c0,0.3,0.1,0.5,0.3,0.6c0.2,0.1,0.4,0.1,0.7,0.1v0.8c-1.5-0.1-2.5-0.1-3-0.1
		C-236.2,207.9-237.2,207.9-238.7,208z"/>
</g>
<g>
	<path class="st2" d="M-306.4,108.5l-0.3-0.2c0.1-0.1,0.1-0.1,0.1-0.2c0-0.1,0-0.2-0.1-0.3c0-0.1-0.1-0.3-0.3-0.5l-1.9-3.2
		c-0.2-0.3-0.3-0.5-0.4-0.5c-0.1-0.1-0.1-0.1-0.2,0c-0.1,0-0.2,0.1-0.2,0.2l-0.3-0.2c0.5-0.5,0.8-0.8,1-1.1c0.2-0.2,0.5-0.6,0.9-1.1
		l4.7,2.1c0.2,0.1,0.3,0.1,0.4,0.2c0.1,0,0.2,0,0.3,0c0.1,0,0.2-0.1,0.2-0.1l0.3,0.2c-0.4,0.4-0.8,0.8-1.1,1.1
		c-0.2,0.2-0.5,0.6-0.9,1.1l-0.3-0.2c0.1-0.1,0.1-0.2,0.1-0.2c0-0.1,0-0.2,0-0.2c-0.1-0.1-0.4-0.3-1-0.5l-1.3,1.4
		c0.2,0.3,0.3,0.5,0.4,0.7c0.1,0.1,0.2,0.2,0.2,0.3c0.1,0.1,0.2,0.1,0.2,0c0.1,0,0.2-0.1,0.2-0.2l0.3,0.2c-0.3,0.3-0.6,0.5-0.7,0.7
		C-305.9,107.9-306.1,108.2-306.4,108.5z M-306.9,105.2l0.9-1l-2.2-1l0,0L-306.9,105.2z"/>
</g>
<g>
	<path class="st2" d="M-302.3,103.9l-0.2-0.3c0.2-0.2,0.2-0.4,0-0.6l-2.8-3.3c-0.2-0.2-0.4-0.3-0.6-0.1l-0.2-0.3
		c0.5-0.4,0.9-0.7,1.1-0.8c0.2-0.1,0.5-0.4,0.9-0.8c0.3,0.1,0.6,0.2,0.9,0.2c0.3,0.1,0.6,0.2,1,0.3c0.4,0.1,0.7,0.2,0.9,0.3
		c0.3,0.1,0.5,0.2,0.8,0.2l0,0L-302,97c-0.1-0.2-0.3-0.2-0.4-0.2c-0.1,0-0.3,0.1-0.4,0.2l-0.2-0.3c0.4-0.3,0.7-0.5,0.8-0.6
		c0.1-0.1,0.4-0.4,0.7-0.7l0.2,0.3c-0.1,0.1-0.1,0.2-0.2,0.3c0,0.1,0,0.2,0.1,0.3l3.4,4l-1,0.9c-0.4-0.1-0.8-0.2-1.3-0.4
		c-0.5-0.1-0.9-0.2-1.3-0.3c-0.4-0.1-0.8-0.2-1.2-0.3c-0.4-0.1-0.8-0.2-1.2-0.3l0,0l2.1,2.5c0.2,0.3,0.5,0.3,0.8,0l0.2,0.3
		c-0.4,0.3-0.7,0.5-0.9,0.7C-301.8,103.4-302,103.7-302.3,103.9z"/>
</g>
<g>
	<path class="st2" d="M-297.5,99.9l-0.2-0.3c0.2-0.2,0.3-0.4,0.1-0.6l-2.3-3.6c-0.2-0.3-0.4-0.3-0.6-0.2l-0.2-0.3
		c0.6-0.3,1-0.6,1.2-0.7c0.2-0.1,0.5-0.4,1-0.7c0.3,0.1,0.6,0.2,0.9,0.4c0.3,0.1,0.6,0.2,0.9,0.4c0.3,0.1,0.6,0.3,0.9,0.4
		c0.2,0.1,0.5,0.2,0.8,0.3l0,0l-1.2-1.9c-0.1-0.2-0.2-0.3-0.3-0.3c-0.1,0-0.3,0-0.4,0.1l-0.2-0.3c0.4-0.2,0.8-0.4,0.9-0.5
		c0.2-0.1,0.4-0.3,0.8-0.6l0.2,0.3c-0.1,0.1-0.2,0.1-0.2,0.2c0,0.1,0,0.2,0,0.3l2.8,4.4l-1.1,0.7c-0.4-0.2-0.8-0.3-1.2-0.5
		c-0.4-0.2-0.8-0.4-1.2-0.5s-0.8-0.3-1.1-0.5c-0.4-0.2-0.8-0.3-1.1-0.4l0,0l1.8,2.8c0.2,0.3,0.4,0.3,0.8,0.1l0.2,0.3
		c-0.5,0.2-0.8,0.4-1,0.6C-296.9,99.5-297.2,99.6-297.5,99.9z"/>
</g>
<g>
	<path class="st2" d="M-293.6,93.8c-0.2-0.4-0.3-0.8-0.3-1.2c0-0.4,0.1-0.8,0.2-1.2c0.1-0.4,0.4-0.7,0.6-1s0.6-0.5,1-0.7
		c0.4-0.2,0.8-0.3,1.2-0.3c0.4,0,0.8,0,1.2,0.2c0.4,0.1,0.7,0.3,1,0.6c0.3,0.3,0.6,0.6,0.8,1c0.2,0.4,0.3,0.8,0.3,1.2
		c0,0.4-0.1,0.8-0.2,1.2c-0.1,0.4-0.4,0.7-0.6,1c-0.3,0.3-0.6,0.5-1,0.7c-0.5,0.2-1,0.3-1.6,0.3c-0.5,0-1-0.2-1.5-0.5
		S-293.3,94.3-293.6,93.8z M-292,92.3c0.1,0.3,0.4,0.6,0.6,1c0.3,0.4,0.6,0.6,0.9,0.8c0.3,0.2,0.6,0.2,0.9,0.1
		c0.5-0.3,0.6-0.8,0.1-1.8c-0.1-0.2-0.2-0.4-0.4-0.7c-0.2-0.2-0.4-0.5-0.6-0.7c-0.2-0.2-0.4-0.3-0.7-0.4c-0.2-0.1-0.5-0.1-0.7,0
		c-0.2,0.1-0.3,0.2-0.4,0.4c-0.1,0.2-0.1,0.4,0,0.6C-292.2,91.9-292.1,92.1-292,92.3z"/>
</g>
<g>
	<path class="st2" d="M-235.5,96.6l-4.2-2.2l0.5-0.8c0.4,0,0.7,0,1.1,0s0.7-0.1,1-0.2c0.3-0.1,0.6-0.2,0.8-0.4s0.5-0.4,0.6-0.8
		c0.2-0.3,0.2-0.6,0.2-0.8c0-0.3-0.1-0.4-0.4-0.6c-0.2-0.1-0.4-0.1-0.5-0.1c-0.2,0-0.3,0-0.5,0.1c-0.2,0.1-0.3,0.2-0.4,0.4l-0.4-0.2
		c0.3-0.5,0.6-0.9,0.9-1.4c0.7,0,1.3,0.2,2,0.5c0.4,0.2,0.7,0.4,1,0.7c0.3,0.3,0.5,0.6,0.5,1c0.1,0.4,0,0.7-0.2,1.1
		c-0.2,0.3-0.4,0.6-0.7,0.8c-0.3,0.2-0.6,0.4-1,0.5c-0.4,0.1-0.7,0.2-1.1,0.2c-0.4,0-0.7,0-1.1,0l0,0l2.7,1.3
		C-234.9,95.8-235.1,96.1-235.5,96.6z"/>
</g>
<g>
	<path class="st2" d="M-233.5,94.4c0.2-0.4,0.5-0.7,0.8-0.9c0.3-0.3,0.6-0.5,0.9-0.6c0.3-0.1,0.7-0.2,1.1-0.1
		c0.4,0.1,0.8,0.2,1.2,0.5c0.4,0.3,0.7,0.5,0.9,0.9c0.2,0.3,0.3,0.7,0.3,1c0,0.3,0,0.7-0.2,1.1c-0.1,0.4-0.3,0.7-0.5,1.1
		c-0.2,0.4-0.5,0.7-0.8,1s-0.6,0.5-0.9,0.6c-0.3,0.1-0.7,0.2-1.1,0.1c-0.4-0.1-0.8-0.2-1.2-0.5c-0.4-0.3-0.7-0.5-0.9-0.9
		c-0.2-0.3-0.3-0.7-0.3-1c0-0.4,0-0.7,0.2-1.1C-234,95.1-233.8,94.7-233.5,94.4z M-231.5,95l-0.6,1c-0.3,0.4-0.5,0.8-0.5,1
		c-0.1,0.3,0,0.4,0.2,0.6c0.2,0.1,0.4,0.1,0.6,0c0.2-0.2,0.5-0.4,0.7-0.9l0.6-1c0.3-0.4,0.5-0.8,0.5-1c0.1-0.3,0-0.4-0.2-0.6
		c-0.2-0.1-0.4-0.1-0.6,0C-231,94.3-231.2,94.6-231.5,95z"/>
</g>
<g>
	<path class="st2" d="M-229.9,100.4l0.2-0.3c0.1,0.1,0.3,0.2,0.4,0.2c0.1,0,0.2,0,0.3-0.2l2.5-3.1c0.1-0.1,0.2-0.3,0.1-0.4
		c0-0.1-0.2-0.3-0.3-0.4l0.2-0.3c0.4,0.3,0.8,0.5,1.2,0.7c0.4,0.2,0.9,0.4,1.3,0.6c-0.3,0.3-0.6,0.7-0.8,0.9c-0.2,0.3-0.5,0.6-0.9,1
		c-0.3,0.4-0.7,0.8-0.9,1.1s-0.6,0.7-0.9,1c-0.2,0.2-0.2,0.5,0.1,0.7l-0.2,0.3c-0.6-0.5-1-0.9-1.3-1.1
		C-229,101.1-229.4,100.8-229.9,100.4z"/>
</g>
<g>
	<path class="st2" d="M-222.1,101.2l-0.7,0.7c0.5,0.2,0.9,0.5,1.2,0.9c0.2,0.3,0.4,0.5,0.5,0.8c0.1,0.3,0.1,0.6,0.1,0.9
		s-0.2,0.6-0.5,0.8c-0.3,0.3-0.7,0.5-1.1,0.5c-0.4,0-0.8,0-1.3-0.2s-0.9-0.4-1.3-0.6c-0.4-0.3-0.8-0.6-1.1-0.9
		c-0.1-0.1-0.3-0.3-0.5-0.5c0.1-0.1,0.1-0.2,0.3-0.3c0.1-0.1,0.2-0.2,0.2-0.3c0.3,0.3,0.6,0.5,1,0.7c0.3,0.2,0.7,0.3,1.1,0.4
		c0.4,0.1,0.7,0,0.9-0.3c0.2-0.2,0.3-0.5,0.2-0.8s-0.3-0.6-0.5-0.8c-0.3-0.3-0.6-0.5-0.9-0.7c0.2-0.2,0.5-0.4,0.7-0.6
		c0.2-0.2,0.5-0.4,0.8-0.7c0.3-0.2,0.6-0.5,0.8-0.7l3,3.2c-0.1,0.1-0.3,0.2-0.4,0.3c-0.1,0.1-0.2,0.2-0.3,0.2
		c-0.1,0.1-0.2,0.1-0.3,0.3L-222.1,101.2z"/>
</g>
<g id="Acht_links_3_">
	<path class="st2" d="M-310,199.3c0,0-0.1,0-0.1,0c0.3-0.5,0.5-1.1,0.5-1.7c0-0.9-0.3-1.6-0.9-2.2c-1.2-1.2-3.3-1.2-4.5,0
		c-0.6,0.6-0.9,1.4-0.9,2.2c0,0.8,0.3,1.6,0.9,2.2c0.5,0.5,1.2,0.8,1.9,0.9c-1.4,1.6-1.4,4.1,0.2,5.7c0.8,0.8,1.8,1.2,2.9,1.2
		c1.1,0,2.2-0.4,2.9-1.2c1.6-1.6,1.6-4.3,0-5.9C-307.9,199.7-308.9,199.3-310,199.3z M-314.6,197.6c0-0.5,0.2-0.9,0.5-1.3
		c0.3-0.3,0.8-0.5,1.3-0.5c0.5,0,0.9,0.2,1.3,0.5c0.3,0.3,0.5,0.8,0.5,1.3c0,0.5-0.2,0.9-0.5,1.3c-0.7,0.7-1.9,0.7-2.6,0
		C-314.4,198.5-314.6,198.1-314.6,197.6z M-308,205.5c-1.1,1.1-2.9,1.1-4,0c-1.1-1.1-1.1-2.9,0-4c0.5-0.5,1.2-0.8,2-0.8
		c0.7,0,1.5,0.3,2,0.8C-307,202.6-307,204.4-308,205.5z"/>
</g>
<g id="Acht_rechts_3_">
	<path class="st2" d="M-212,197.6c0-0.9-0.3-1.6-0.9-2.2c-1.2-1.2-3.3-1.2-4.5,0c-0.6,0.6-0.9,1.4-0.9,2.2c0,0.6,0.2,1.2,0.5,1.7
		c0,0-0.1,0-0.1,0c-1.1,0-2.2,0.4-2.9,1.2c-1.6,1.6-1.6,4.3,0,5.9c0.8,0.8,1.8,1.2,2.9,1.2s2.2-0.4,2.9-1.2c0.8-0.8,1.2-1.8,1.2-2.9
		c0-1-0.4-2-1-2.7c0.7-0.1,1.4-0.4,1.9-0.9C-212.3,199.3-212,198.5-212,197.6z M-216,205.5c-1.1,1.1-2.9,1.1-4,0
		c-1.1-1.1-1.1-2.9,0-4c0.5-0.5,1.2-0.8,2-0.8s1.5,0.3,2,0.8c0.5,0.5,0.8,1.2,0.8,2S-215.5,204.9-216,205.5z M-213.9,198.9
		c-0.7,0.7-1.9,0.7-2.6,0c-0.3-0.3-0.5-0.8-0.5-1.3s0.2-0.9,0.5-1.3c0.3-0.3,0.8-0.5,1.3-0.5s0.9,0.2,1.3,0.5
		c0.3,0.3,0.5,0.8,0.5,1.3S-213.6,198.5-213.9,198.9z"/>
</g>
<path class="st0" d="M-322.4,150.4v-1.1c0.4,0,0.7-0.1,1-0.2c0.3-0.2,0.4-0.5,0.4-0.9v-13.3c0-0.8-0.5-1.2-1.4-1.2v-1.1h10.3
	c1.3,0,2.5,0.2,3.6,0.5c1.1,0.3,2.1,0.8,3,1.5c0.9,0.7,1.6,1.6,2.1,2.6c0.5,1.1,0.7,2.3,0.7,3.7c0,2.3-0.5,4.1-1.4,5.5
	c-0.9,1.4-2.2,2.4-3.9,3c-1.7,0.6-3.7,0.9-6,0.9L-322.4,150.4L-322.4,150.4z M-314.9,135.7v11.6h1.2c0.8,0,1.4-0.1,2-0.4
	c0.6-0.2,1.1-0.6,1.5-1.1c0.4-0.5,0.7-1.1,0.9-1.8c0.2-0.7,0.3-1.5,0.3-2.4c0-1.9-0.5-3.3-1.4-4.3
	C-311.5,136.3-312.9,135.8-314.9,135.7z"/>
<path class="st0" d="M-300.5,150.6v-1.1c0.4,0,0.7-0.1,1-0.2c0.3-0.2,0.4-0.5,0.4-0.9v-13.5c0-0.8-0.5-1.2-1.4-1.2v-1.1h12.2
	c0.8,0,1.6,0.1,2.3,0.3c0.7,0.2,1.3,0.5,1.8,0.8c0.5,0.4,0.9,0.9,1.2,1.5c0.3,0.6,0.4,1.3,0.4,2c0,0.8-0.2,1.5-0.5,2.2
	c-0.4,0.7-0.8,1.2-1.5,1.6c-0.6,0.4-1.3,0.7-2.1,0.9c0.6,1,1.2,2.1,1.8,3.1c0.6,1,1.2,2.1,1.8,3.2c0.3,0.4,0.5,0.8,0.8,1
	c0.2,0.2,0.5,0.3,0.9,0.3v1.1c-1.5-0.1-2.7-0.2-3.4-0.2c-0.8,0-1.9,0.1-3.5,0.2c-0.4-0.8-0.8-1.7-1.2-2.5c-0.4-0.9-0.8-1.7-1.2-2.5
	c-0.4-0.8-0.8-1.5-1.2-2.2c-0.1-0.2-0.2-0.4-0.4-0.6c-0.1-0.2-0.2-0.4-0.3-0.5c-0.1-0.1-0.1-0.3-0.1-0.4c0-0.2,0.1-0.3,0.3-0.4
	c0.2-0.1,0.5-0.1,1-0.2c0.5-0.1,0.8-0.1,0.9-0.1c0.7-0.2,1.2-0.5,1.5-0.9c0.4-0.5,0.5-1.1,0.5-1.9c0-1-0.3-1.7-0.9-2.2
	s-1.6-0.7-2.9-0.7h-0.8v13c0,0.7,0.6,1,1.6,1v1.1c-2.1-0.1-3.7-0.2-4.8-0.2C-297.1,150.4-298.6,150.5-300.5,150.6z"/>
<path class="st0" d="M-280.5,133.6v-1.1c2.1,0.1,3.6,0.2,4.4,0.2c0.9,0,2.3-0.1,4.2-0.2v1.1c-0.3,0-0.6,0.1-0.9,0.3
	c-0.3,0.2-0.4,0.5-0.4,1v10.5c0,0.9,0.2,1.5,0.5,1.9c0.4,0.4,0.9,0.6,1.5,0.6c0.6,0,1.1-0.2,1.5-0.6c0.4-0.4,0.6-1.1,0.6-1.9v-10.5
	c0-0.4-0.1-0.7-0.4-1c-0.3-0.2-0.6-0.3-0.9-0.3v-1.1c1.9,0.1,3.3,0.2,4.2,0.2c0.8,0,2.3-0.1,4.4-0.2v1.1c-0.4,0-0.7,0.1-0.9,0.3
	c-0.2,0.2-0.3,0.5-0.3,1v9c0,1.3-0.1,2.4-0.4,3.3c-0.3,0.9-0.7,1.6-1.3,2.2c-0.6,0.6-1.5,1-2.5,1.3c-1,0.3-2.4,0.4-3.9,0.4
	c-1.6,0-2.9-0.1-3.9-0.4c-1-0.3-1.9-0.7-2.5-1.3c-0.6-0.6-1.1-1.3-1.3-2.2c-0.3-0.9-0.4-2-0.4-3.3v-9c0-0.5-0.1-0.8-0.3-1
	C-279.8,133.6-280.1,133.6-280.5,133.6z"/>
<path class="st0" d="M-258.6,148.4v-13.5c0-0.8-0.5-1.2-1.4-1.2v-1.1h8.8c1.3,0,2.6,0.1,3.7,0.4c1.1,0.2,2.1,0.6,3,1.1
	c0.9,0.5,1.5,1.2,2,2c0.5,0.8,0.7,1.8,0.7,2.9c0,1.1-0.3,2.1-0.8,3c-0.5,0.9-1.3,1.5-2.2,2c-0.9,0.5-2,0.7-3.1,0.7
	c-0.6,0-1.2-0.1-1.9-0.2c-0.7-0.1-1.2-0.3-1.6-0.5c-0.4-0.2-0.6-0.4-0.6-0.7c0-0.2,0.1-0.4,0.3-0.4c0.2-0.1,0.6-0.1,1.2-0.1
	c0.8,0,1.4-0.3,1.9-0.8c0.5-0.5,0.7-1.3,0.7-2.3c0-0.7-0.1-1.4-0.4-2c-0.2-0.6-0.7-1.1-1.3-1.5c-0.6-0.4-1.5-0.6-2.5-0.6h-0.5v12.7
	c0,0.8,0.5,1.2,1.6,1.2v1.1c-1.9-0.1-3.4-0.2-4.7-0.2c-1.3,0-2.8,0.1-4.5,0.2v-1.1c0.4,0,0.7-0.1,1-0.2
	C-258.8,149.1-258.6,148.8-258.6,148.4z"/>
<path class="st0" d="M-242.3,150.6v-1.1c0.3,0,0.6-0.1,0.8-0.2s0.4-0.3,0.5-0.6c0.1-0.3,0.3-0.8,0.6-1.6l3.7-10.9
	c0.3-0.9,0.5-1.6,0.5-2c0-0.2-0.1-0.4-0.3-0.5c-0.2-0.1-0.5-0.2-0.9-0.2v-1.1c2.1,0.1,3.7,0.2,4.7,0.2c0.9,0,2.4-0.1,4.6-0.2l5,14.9
	c0.2,0.6,0.4,1.1,0.5,1.3c0.1,0.3,0.3,0.5,0.5,0.6c0.2,0.2,0.5,0.2,0.8,0.2v1.1c-2-0.1-3.6-0.2-4.9-0.2c-1,0-2.5,0.1-4.5,0.2v-1.1
	c0.3,0,0.6-0.1,0.9-0.2c0.3-0.1,0.5-0.3,0.5-0.6c0-0.4-0.3-1.6-0.9-3.4h-6.1c-0.3,1.1-0.6,1.8-0.7,2.3c-0.1,0.5-0.2,0.8-0.2,1.1
	c0,0.3,0.1,0.5,0.4,0.6c0.3,0.1,0.6,0.1,1,0.1v1.1c-1.4-0.1-2.5-0.2-3.4-0.2C-239.9,150.4-240.9,150.5-242.3,150.6z M-235.5,142.8
	h4.5l-2.2-7.1h-0.1L-235.5,142.8z"/>
<path class="st0" d="M-219.3,148.2v-13.5c0-0.8-0.5-1.2-1.4-1.2v-1.1c1.9,0.1,3.2,0.2,4.1,0.2c0.9,0,2.7-0.1,5.2-0.2v1.1
	c-0.6,0-1.1,0.1-1.4,0.2c-0.3,0.2-0.4,0.5-0.4,1.1v12.4h4.4c1.1,0,1.8-0.3,2.2-0.9c0.4-0.6,0.6-1.3,0.8-2.1h1.1
	c-0.2,1.2-0.3,2-0.4,2.5c-0.1,0.5-0.1,1-0.2,1.6s-0.1,1.3-0.1,2.1h-15.2v-1.1c0.4,0,0.7-0.1,1-0.2
	C-219.4,149-219.3,148.7-219.3,148.2z"/>
<path class="st0" d="M-289.8,170.5l-0.2,3.5c-0.7,0.5-1.5,0.9-2.4,1.2c-1,0.3-1.9,0.5-2.7,0.5c-1.5,0-2.9-0.2-4.1-0.6
	c-1.2-0.4-2.3-1.1-3.2-1.9c-0.9-0.8-1.6-1.9-2-3.1c-0.5-1.2-0.7-2.6-0.7-4.1c0-2,0.5-3.6,1.4-5c0.9-1.4,2.2-2.5,3.7-3.2
	c1.6-0.7,3.3-1.1,5.3-1.1c0.7,0,1.4,0.1,2.2,0.2c0.7,0.1,1.4,0.4,2,0.7c0,0.6,0,1.5,0.1,2.6s0.1,2.2,0.2,3.1h-1.1
	c-0.2-0.7-0.4-1.3-0.7-1.8c-0.3-0.5-0.7-0.9-1.2-1.3c-0.5-0.3-1.1-0.5-1.8-0.5c-0.9,0-1.6,0.2-2.2,0.7c-0.6,0.5-1,1.1-1.3,1.9
	c-0.3,0.8-0.4,1.6-0.4,2.4c0,1.1,0.2,2.2,0.5,3.3c0.4,1.1,0.9,2,1.7,2.7c0.8,0.7,1.7,1,2.9,1c0.7,0,1.3-0.1,2-0.3
	S-290.5,170.9-289.8,170.5z"/>
<path class="st0" d="M-289.3,175.2v-1.1c0.3,0,0.6-0.1,0.8-0.2c0.2-0.1,0.4-0.3,0.5-0.6c0.1-0.3,0.3-0.8,0.6-1.6l3.7-10.9
	c0.3-0.9,0.5-1.6,0.5-2c0-0.2-0.1-0.4-0.3-0.5c-0.2-0.1-0.5-0.2-0.9-0.2v-1.1c2.1,0.1,3.7,0.2,4.7,0.2c0.9,0,2.4-0.1,4.6-0.2l5,14.9
	c0.2,0.6,0.4,1.1,0.5,1.3c0.1,0.3,0.3,0.5,0.5,0.6c0.2,0.2,0.5,0.2,0.8,0.2v1.1c-2-0.1-3.6-0.2-4.9-0.2c-1,0-2.5,0.1-4.5,0.2v-1.1
	c0.3,0,0.6-0.1,0.9-0.2c0.3-0.1,0.5-0.3,0.5-0.6c0-0.4-0.3-1.6-0.9-3.4h-6.1c-0.3,1.1-0.6,1.8-0.7,2.3c-0.1,0.5-0.2,0.8-0.2,1.1
	c0,0.3,0.1,0.5,0.4,0.6c0.3,0.1,0.6,0.1,1,0.1v1.1c-1.4-0.1-2.5-0.2-3.4-0.2C-286.8,175-287.9,175.1-289.3,175.2z M-282.5,167.3h4.5
	l-2.2-7.1h-0.1L-282.5,167.3z"/>
<path class="st0" d="M-268.2,175.2v-1.1c0.4,0,0.8-0.1,1.1-0.3c0.3-0.2,0.4-0.6,0.4-1.4l0.6-11c0-0.3,0-0.7,0.1-1.1
	c0-0.4,0-0.7,0-0.9c0-0.5-0.1-0.9-0.4-1.1c-0.2-0.2-0.6-0.3-0.9-0.3v-1.1c2,0.1,3.3,0.2,4,0.2c0.8,0,2.1-0.1,4.1-0.2l3.9,11h0.1
	l3.6-11c2,0.1,3.3,0.2,4,0.2c0.7,0,2-0.1,3.8-0.2v1.1c-0.3,0-0.5,0-0.7,0.1s-0.3,0.2-0.4,0.4c-0.1,0.2-0.2,0.6-0.2,1
	c0,0.6,0,1.3,0.1,2.3l0.9,10.9c0,0.4,0.1,0.7,0.2,0.9c0.1,0.2,0.3,0.3,0.5,0.3c0.2,0,0.4,0.1,0.8,0.1v1.1c-2-0.1-3.4-0.2-4.4-0.2
	c-1,0-2.4,0.1-4.5,0.2v-1.1c0.5,0,0.9-0.1,1.2-0.2c0.3-0.2,0.4-0.5,0.4-1.1c0-0.3,0-0.8-0.1-1.4c0-0.7-0.1-1.1-0.1-1.3l-0.5-7.1
	h-0.1l-4.4,12.3h-3.6l-4.7-12.3h-0.1l-0.3,7.6c0,0.3,0,0.6,0,0.7c0,0.2,0,0.4,0,0.6c0,0.2,0,0.5,0,0.7c0,0.7,0.1,1.2,0.4,1.4
	c0.3,0.2,0.6,0.3,1.2,0.3v1.1c-1.4-0.1-2.4-0.2-3.1-0.2C-266,175-267,175.1-268.2,175.2z"/>
<path class="st0" d="M-239.8,172.9v-13.5c0-0.8-0.5-1.2-1.4-1.2v-1.1h8.8c1.3,0,2.6,0.1,3.7,0.3c1.1,0.2,2.1,0.6,3,1.1
	c0.9,0.5,1.5,1.2,2,2c0.5,0.8,0.7,1.8,0.7,2.9c0,1.1-0.3,2.1-0.8,3c-0.5,0.9-1.3,1.5-2.2,2s-2,0.7-3.1,0.7c-0.6,0-1.2-0.1-1.9-0.2
	c-0.7-0.1-1.2-0.3-1.6-0.5c-0.4-0.2-0.6-0.4-0.6-0.7c0-0.2,0.1-0.4,0.3-0.4c0.2-0.1,0.6-0.1,1.2-0.1c0.8,0,1.4-0.3,1.9-0.8
	c0.5-0.5,0.7-1.3,0.7-2.3c0-0.7-0.1-1.4-0.4-2c-0.2-0.6-0.7-1.1-1.3-1.5c-0.6-0.4-1.5-0.6-2.5-0.6h-0.5v12.7c0,0.8,0.5,1.2,1.6,1.2
	v1.1c-1.9-0.1-3.4-0.2-4.7-0.2c-1.3,0-2.8,0.1-4.5,0.2v-1.1c0.4,0,0.7-0.1,1-0.2C-239.9,173.7-239.8,173.4-239.8,172.9z"/>
<g>
	<path class="st0" d="M-355.5,236.7c-0.1,0-0.1,0-0.2-0.1l-8.6-9v8.1c0,0.1-0.1,0.2-0.2,0.2h-1.9c-0.1,0-0.2-0.1-0.2-0.2v-13.3
		c0-0.1,0.1-0.2,0.2-0.2c0,0,0.1,0,0.1,0c0.1,0,0.1,0,0.2,0.1l8.6,9v-8c0-0.1,0.1-0.2,0.2-0.2h1.9c0.1,0,0.2,0.1,0.2,0.2v13.2
		C-355.3,236.5-355.3,236.6-355.5,236.7C-355.5,236.7-355.5,236.7-355.5,236.7z"/>
</g>
<g>
	<path class="st0" d="M-346.6,236.2c-1.7,0-3.2-0.6-4.5-1.7c-1.5-1.3-2.2-3-2.2-5c0-1.8,0.7-3.4,2-4.7c1.3-1.3,2.9-2,4.8-2
		c1.8,0,3.4,0.7,4.7,2c1.3,1.3,2,2.9,2,4.7c0,1.8-0.7,3.4-2,4.7C-343.1,235.5-344.7,236.2-346.6,236.2z M-346.5,225
		c-1.2,0-2.3,0.4-3.1,1.3c-0.9,0.9-1.3,1.9-1.3,3.1c0,1.3,0.4,2.4,1.3,3.2c0.9,0.8,1.9,1.3,3,1.3c1.2,0,2.3-0.4,3.1-1.3
		c0.8-0.9,1.3-1.9,1.3-3.2c0-1.2-0.4-2.3-1.3-3.2C-344.3,225.5-345.3,225-346.5,225z"/>
</g>
<g>
	<path class="st0" d="M-334.2,236.9c-0.1,0-0.2-0.1-0.2-0.2l-5.4-13.4c0-0.1,0-0.2,0-0.2c0-0.1,0.1-0.1,0.2-0.1h2.1
		c0.1,0,0.2,0.1,0.2,0.2l3.2,8l3.3-8c0-0.1,0.1-0.2,0.2-0.2h2.1c0.1,0,0.2,0,0.2,0.1s0.1,0.2,0,0.2l-5.6,13.4
		C-334,236.8-334.1,236.9-334.2,236.9L-334.2,236.9z"/>
</g>
<g>
	<path class="st0" d="M-327.1,235.9c-0.1,0-0.2-0.1-0.2-0.2v-12.4c0-0.1,0.1-0.2,0.2-0.2h6.9c0.1,0,0.2,0.1,0.2,0.2v1.8
		c0,0.1-0.1,0.2-0.2,0.2h-4.7v2.5h4.6c0.1,0,0.2,0.1,0.2,0.2v1.8c0,0.1-0.1,0.2-0.2,0.2h-4.6v3.7h4.7c0.1,0,0.2,0.1,0.2,0.2v1.8
		c0,0.1-0.1,0.2-0.2,0.2L-327.1,235.9L-327.1,235.9z"/>
</g>
<g>
	<path class="st0" d="M-311.4,236.5c-0.1,0-0.2-0.1-0.2-0.1l-3.2-7.3l-1.2,6.7c0,0.1-0.1,0.2-0.2,0.2h-1.9c-0.1,0-0.1,0-0.2-0.1
		c0-0.1-0.1-0.1-0.1-0.2l2.6-13.4c0-0.1,0.1-0.2,0.2-0.2c0,0,0,0,0,0c0.1,0,0.2,0.1,0.2,0.1l4,9.1l4.2-9.2c0-0.1,0.1-0.1,0.2-0.1
		c0,0,0,0,0,0c0.1,0,0.2,0.1,0.2,0.2l2.4,13.4c0,0.1,0,0.1-0.1,0.2s-0.1,0.1-0.2,0.1h-1.9c-0.1,0-0.2-0.1-0.2-0.2l-1.1-6.7l-3.3,7.3
		C-311.2,236.4-311.3,236.5-311.4,236.5C-311.4,236.5-311.4,236.5-311.4,236.5z"/>
</g>
<g>
	<path class="st0" d="M-301.9,235.9c-0.1,0-0.2-0.1-0.2-0.2v-12.4c0-0.1,0.1-0.2,0.2-0.2h1.9c0.8,0,1.5,0.1,2.1,0.2
		c0.5,0.1,1,0.4,1.4,0.7c0.4,0.3,0.7,0.8,0.9,1.3c0.2,0.5,0.3,1,0.3,1.5c0,0.8-0.3,1.6-0.8,2.2c0.5,0.3,1,0.6,1.3,1.1
		c0.4,0.6,0.6,1.3,0.6,2.1c0,1-0.4,1.9-1.1,2.6c-0.4,0.4-0.9,0.7-1.5,0.9c-0.6,0.2-1.3,0.2-2.2,0.2H-301.9z M-298.9,233.7
		c0.8,0,1.4-0.1,1.7-0.4c0.4-0.3,0.5-0.7,0.5-1.2c0-0.5-0.2-0.8-0.5-1.2c-0.3-0.3-1-0.5-1.9-0.5h-0.7v3.3L-298.9,233.7L-298.9,233.7
		z M-299.5,228.3c0.6,0,1.1-0.1,1.4-0.4c0.3-0.3,0.4-0.7,0.4-1.2c0-0.5-0.1-0.9-0.4-1.1c-0.3-0.3-0.7-0.4-1.3-0.4h-0.4v3.1
		L-299.5,228.3L-299.5,228.3z"/>
</g>
<g>
	<path class="st0" d="M-292.2,235.9c-0.1,0-0.2-0.1-0.2-0.2v-12.4c0-0.1,0.1-0.2,0.2-0.2h6.9c0.1,0,0.2,0.1,0.2,0.2v1.8
		c0,0.1-0.1,0.2-0.2,0.2h-4.7v2.5h4.6c0.1,0,0.2,0.1,0.2,0.2v1.8c0,0.1-0.1,0.2-0.2,0.2h-4.6v3.7h4.7c0.1,0,0.2,0.1,0.2,0.2v1.8
		c0,0.1-0.1,0.2-0.2,0.2L-292.2,235.9L-292.2,235.9z"/>
</g>
<g>
	<path class="st0" d="M-277.1,235.9c-0.1,0-0.2,0-0.2-0.1l-3.4-4.9v4.8c0,0.1-0.1,0.2-0.2,0.2h-1.9c-0.1,0-0.2-0.1-0.2-0.2v-12.4
		c0-0.1,0.1-0.2,0.2-0.2h2.2c1.7,0,2.9,0.3,3.7,1c0.9,0.7,1.3,1.7,1.3,2.9c0,0.9-0.3,1.7-0.8,2.4c-0.5,0.6-1.1,1-1.8,1.2l3.6,5
		c0.1,0.1,0.1,0.2,0,0.3s-0.1,0.1-0.2,0.1L-277.1,235.9L-277.1,235.9z M-280.4,228.7c2.2,0,2.4-1,2.4-1.8c0-0.7-0.2-1.7-2.3-1.7
		h-0.4v3.4H-280.4z"/>
</g>
<g>
	<path class="st0" d="M-264.2,236.1c-1.2,0-2.2-0.4-3.1-1.3c-0.9-0.8-1.3-1.9-1.3-3c0-1,0.4-2.1,1.3-3.3l4.3-5.9
		c0-0.1,0.1-0.1,0.2-0.1c0,0,0,0,0,0c0.1,0,0.1,0,0.1,0.1l1.4,1c0.1,0.1,0.1,0.2,0.1,0.3l-2.6,3.6c0.1,0,0.1,0,0.1,0
		c1.1,0,2,0.4,2.8,1.2c0.8,0.8,1.2,1.8,1.2,2.9c0,1.2-0.4,2.2-1.3,3.1C-262,235.7-263,236.1-264.2,236.1z M-264.3,229.7
		c-0.6,0-1.1,0.2-1.5,0.6c-0.4,0.4-0.6,0.9-0.6,1.5c0,0.6,0.2,1.1,0.6,1.5c0.4,0.4,0.9,0.6,1.5,0.6c0.6,0,1.1-0.2,1.5-0.6
		c0.4-0.4,0.6-0.9,0.6-1.5c0-0.6-0.2-1.1-0.6-1.5C-263.2,229.9-263.7,229.7-264.3,229.7z"/>
</g>
<g>
	<path class="st0" d="M-257.4,230.4c-0.1,0-0.2-0.1-0.2-0.2v-6h-1.4c-0.1,0-0.2-0.1-0.2-0.2v-1c0-0.1,0.1-0.2,0.2-0.2h4.4
		c0.1,0,0.2,0.1,0.2,0.2v1c0,0.1-0.1,0.2-0.2,0.2h-1.4v6c0,0.1-0.1,0.2-0.2,0.2H-257.4z"/>
</g>
<g>
	<path class="st0" d="M-249.5,230.4c-0.1,0-0.2-0.1-0.2-0.2v-3.1h-2.6v3.1c0,0.1-0.1,0.2-0.2,0.2h-1.1c-0.1,0-0.2-0.1-0.2-0.2v-7.2
		c0-0.1,0.1-0.2,0.2-0.2h1.1c0.1,0,0.2,0.1,0.2,0.2v2.6h2.6v-2.6c0-0.1,0.1-0.2,0.2-0.2h1.1c0.1,0,0.2,0.1,0.2,0.2v7.2
		c0,0.1-0.1,0.2-0.2,0.2H-249.5z"/>
</g>
<g>
	<path class="st0" d="M-237.5,236.2c-1.2,0-2.2-0.4-3-1.1c-0.8-0.8-1.2-1.7-1.2-2.8c0-1.3,0.6-2.4,1.9-3.3l0.8-0.5
		c-0.7-0.9-1.1-1.7-1.1-2.5c0-0.9,0.3-1.7,0.9-2.2c0.6-0.6,1.4-0.9,2.3-0.9c0.9,0,1.7,0.3,2.3,0.8c0.6,0.6,0.9,1.3,0.9,2.1
		c0,0.6-0.2,1.1-0.5,1.6c-0.3,0.4-0.8,0.9-1.5,1.5l1.9,2.3c0.2-0.2,0.4-0.4,0.6-0.6c0.2-0.2,0.4-0.5,0.6-0.8c0-0.1,0.1-0.1,0.2-0.1
		c0,0,0,0,0,0c0.1,0,0.1,0,0.2,0.1l1.2,1.3c0.1,0.1,0.1,0.2,0,0.3c-0.2,0.2-0.4,0.5-0.6,0.8c-0.2,0.2-0.5,0.5-0.7,0.8l2.2,2.7
		c0.1,0.1,0.1,0.2,0,0.3s-0.1,0.1-0.2,0.1h-2.3c-0.1,0-0.1,0-0.2-0.1l-1.1-1.3C-235.1,235.6-236.3,236.2-237.5,236.2z M-237.6,230.2
		c-0.7,0.5-1.2,0.9-1.4,1.2c-0.2,0.3-0.4,0.6-0.4,0.9c0,0.5,0.2,0.9,0.6,1.2c0.4,0.4,0.8,0.5,1.2,0.5c0.6,0,1.3-0.4,2.2-1.2
		L-237.6,230.2z M-236.9,224.9c-0.3,0-0.5,0.1-0.7,0.2c-0.2,0.2-0.3,0.3-0.3,0.6c0,0.3,0.1,0.6,0.4,0.9l0.4,0.5
		c0.2-0.2,0.4-0.3,0.6-0.5c0.2-0.1,0.3-0.2,0.3-0.3c0.1-0.2,0.2-0.4,0.2-0.6c0-0.3-0.1-0.5-0.2-0.6
		C-236.4,224.9-236.6,224.9-236.9,224.9z"/>
</g>
<g>
	<path class="st0" d="M-223,236.4c0,0-0.1,0-0.1,0l-1.5-0.9c-0.1-0.1-0.2-0.2-0.1-0.3l6-9.8h-5.7c-0.1,0-0.2-0.1-0.2-0.2v-1.8
		c0-0.1,0.1-0.2,0.2-0.2h9.3c0.1,0,0.2,0,0.2,0.1c0,0.1,0,0.2,0,0.3l-7.8,12.9C-222.8,236.3-222.9,236.3-223,236.4
		C-223,236.4-223,236.4-223,236.4z"/>
</g>
<g>
	<path class="st0" d="M-213.3,230.4c-0.1,0-0.2-0.1-0.2-0.2v-6h-1.4c-0.1,0-0.2-0.1-0.2-0.2v-1c0-0.1,0.1-0.2,0.2-0.2h4.4
		c0.1,0,0.2,0.1,0.2,0.2v1c0,0.1-0.1,0.2-0.2,0.2h-1.4v6c0,0.1-0.1,0.2-0.2,0.2H-213.3z"/>
</g>
<g>
	<path class="st0" d="M-205.4,230.4c-0.1,0-0.2-0.1-0.2-0.2v-3.1h-2.6v3.1c0,0.1-0.1,0.2-0.2,0.2h-1.1c-0.1,0-0.2-0.1-0.2-0.2v-7.2
		c0-0.1,0.1-0.2,0.2-0.2h1.1c0.1,0,0.2,0.1,0.2,0.2v2.6h2.6v-2.6c0-0.1,0.1-0.2,0.2-0.2h1.1c0.1,0,0.2,0.1,0.2,0.2v7.2
		c0,0.1-0.1,0.2-0.2,0.2H-205.4z"/>
</g>
<g>
	<path class="st0" d="M-197.9,235.9c-0.1,0-0.2-0.1-0.2-0.1c0-0.1,0-0.2,0-0.3l4.3-5.2c0.4-0.5,0.8-1,1.1-1.3
		c0.3-0.4,0.5-0.7,0.6-0.9c0.3-0.5,0.4-0.9,0.4-1.2c0-0.5-0.2-0.9-0.5-1.3c-0.4-0.3-0.8-0.5-1.3-0.5c-1.1,0-1.7,0.7-1.9,2
		c0,0.1-0.1,0.2-0.2,0.2h-1.9c-0.1,0-0.1,0-0.2-0.1c0-0.1-0.1-0.1-0.1-0.2c0.3-2.8,1.7-4.1,4.2-4.1c1.2,0,2.2,0.4,3,1.1
		c0.8,0.8,1.2,1.7,1.2,2.9c0,0.7-0.2,1.4-0.6,2.1c-0.2,0.3-0.5,0.8-0.8,1.2c-0.4,0.5-0.8,1-1.3,1.7l-1.6,1.9h4.1
		c0.1,0,0.2,0.1,0.2,0.2v1.8c0,0.1-0.1,0.2-0.2,0.2L-197.9,235.9L-197.9,235.9z"/>
</g>
<g>
	<path class="st0" d="M-183.1,236.1c-1.2,0-2.3-0.6-3.2-1.7c-1-1.2-1.4-2.9-1.4-5c0-2,0.5-3.7,1.4-4.9c0.9-1.1,1.9-1.7,3.2-1.7
		s2.3,0.6,3.2,1.7c1,1.2,1.4,2.9,1.4,5c0,2.1-0.5,3.7-1.4,5C-180.8,235.6-181.8,236.1-183.1,236.1z M-183.1,225
		c-0.6,0-1.2,0.4-1.6,1.2c-0.5,0.8-0.7,1.9-0.7,3.2c0,1.3,0.2,2.4,0.7,3.3c0.4,0.8,1,1.2,1.6,1.2c0.6,0,1.2-0.4,1.6-1.2
		c0.5-0.9,0.7-1.9,0.7-3.3c0-1.3-0.2-2.4-0.7-3.3C-181.9,225.4-182.4,225-183.1,225z"/>
</g>
<g>
	<path class="st0" d="M-174.8,235.9c-0.1,0-0.2-0.1-0.2-0.2v-10.4h-1.9c-0.1,0-0.2,0-0.2-0.1s0-0.2,0-0.3l1-1.8
		c0-0.1,0.1-0.1,0.2-0.1h3c0.1,0,0.2,0.1,0.2,0.2v12.4c0,0.1-0.1,0.2-0.2,0.2L-174.8,235.9L-174.8,235.9z"/>
</g>
<g>
	<path class="st0" d="M-166.2,236.1c-1.7,0-3.1-0.8-4.1-2.4c-0.1-0.1,0-0.2,0.1-0.3l1.4-1.2c0,0,0.1-0.1,0.2-0.1c0,0,0,0,0,0
		c0.1,0,0.1,0.1,0.2,0.1c0.4,0.6,0.7,1.1,1.1,1.3c0.4,0.2,0.8,0.4,1.3,0.4c0.7,0,1.2-0.2,1.7-0.7c0.5-0.5,0.7-1.1,0.7-1.8
		c0-0.7-0.2-1.3-0.7-1.8c-0.5-0.5-1-0.7-1.7-0.7c-0.8,0-1.4,0.3-2,1c0,0.1-0.1,0.1-0.2,0.1h-0.6c-0.1,0-0.2,0-0.2-0.1
		c0-0.1-0.1-0.1,0-0.2l2-6.5c0-0.1,0.1-0.2,0.2-0.2h5.1c0.1,0,0.2,0.1,0.2,0.2v1.8c0,0.1-0.1,0.2-0.2,0.2h-3.6l-0.5,1.5
		c0.1,0,0.1,0,0.1,0c1.3,0,2.3,0.4,3.2,1.3c0.8,0.9,1.2,2,1.2,3.3c0,1.4-0.5,2.5-1.4,3.4C-163.6,235.7-164.8,236.1-166.2,236.1z"/>
</g>
</svg>
