<?xml version="1.0" encoding="utf-8"?>
<!-- Generator: Adobe Illustrator 15.1.0, SVG Export Plug-In  -->
<!DOCTYPE svg PUBLIC "-//W3C//DTD SVG 1.1//EN" "http://www.w3.org/Graphics/SVG/1.1/DTD/svg11.dtd" [
	<!ENTITY ns_flows "http://ns.adobe.com/Flows/1.0/">
]>
<svg version="1.1"
	 xmlns="http://www.w3.org/2000/svg" xmlns:xlink="http://www.w3.org/1999/xlink" xmlns:a="http://ns.adobe.com/AdobeSVGViewerExtensions/3.0/"
	 x="0px" y="0px" width="207px" height="185px" viewBox="-17.434 -13.731 207 185"
	 overflow="visible" enable-background="new -17.434 -13.731 207 185" xml:space="preserve">
<defs>
</defs>
<g id="achtergrond_krullen__x2B__druplicon_1_">
	<g>
		<path fill="#FFFFFF" d="M165.974,81.215c-0.995-2.025-1.46-3.512-1.645-4.564c0.34,0.129,0.723,0.199,1.13,0.199
			c1.732,0,3.008-1.213,3.101-2.947l0.002-0.039v-0.037c0-1.762-0.649-2.832-1.193-3.42c-0.736-0.793-1.743-1.23-2.836-1.23
			c-1.135,0-2.219,0.48-2.975,1.314c-0.012,0.014-0.023,0.025-0.035,0.039c-0.364-2.867-0.021-5.904,0.695-7.67l0.578-1.426
			l-1.468-0.461c-0.592-0.186-1.157-0.279-1.68-0.279c-1.026,0-1.93,0.363-2.612,1.051c-0.093,0.094-0.181,0.191-0.263,0.293
			c0.111-1.59,0.385-3.469,0.94-5.354l0.428-1.449l-1.474-0.334c-0.503-0.113-0.986-0.172-1.436-0.172
			c-1.312,0-2.412,0.49-3.184,1.416c-0.45,0.541-0.746,1.178-0.936,1.838c-0.403-2.059-0.767-4.832-0.881-8.133
			c0.47,0.445,1.084,0.887,1.886,1.307c0.691,0.363,1.462,0.547,2.289,0.547c2.983,0,6.177-2.537,6.177-6.312
			c0-2.145-0.786-4.115-2.215-5.551c-1.408-1.416-3.313-2.195-5.363-2.195l-0.148,0.002c-3.87,0.072-6.866,2.285-7.799,5.512
			c-1.205-1.334-4.092-4.154-6.969-4.154c-1.355,0.002-3.224,0.604-4.415,3.471l-0.632,1.516h-23.89
			c0.461-1.853,0.705-3.809,0.705-5.842c0-8.622-4.263-16.224-11.697-20.855c-1.361-0.848-2.64-1.427-3.769-1.938
			c-1.086-0.492-2.112-0.957-3.062-1.584c-1.106-0.749-3.31-3.379-4.25-4.502l-4.847-5.784l-0.76,7.509
			c-0.228,2.247-0.783,2.77-1.168,3.092c-1.479,1.156-2.506,1.683-3.803,2.349c-0.443,0.228-0.898,0.461-1.384,0.726
			c-1.435,0.745-12.375,6.881-12.375,20.629c0,2.147,0.304,4.226,0.861,6.201H39.558l-0.632-1.516
			c-1.191-2.867-3.06-3.469-4.415-3.471c-2.877,0-5.764,2.82-6.969,4.154c-0.933-3.227-3.929-5.439-7.799-5.512l-0.148-0.002
			c-2.05,0-3.955,0.779-5.363,2.195c-1.429,1.436-2.215,3.406-2.215,5.551c0,3.775,3.193,6.312,6.177,6.312
			c0.827,0,1.598-0.184,2.289-0.547c0.802-0.42,1.416-0.861,1.886-1.307c-0.114,3.301-0.478,6.074-0.881,8.133
			c-0.189-0.66-0.485-1.297-0.936-1.838c-0.771-0.926-1.872-1.416-3.184-1.416c-0.449,0-0.933,0.059-1.436,0.172l-1.474,0.334
			l0.428,1.449c0.556,1.885,0.829,3.764,0.94,5.354c-0.082-0.102-0.17-0.199-0.263-0.293c-0.683-0.688-1.586-1.051-2.612-1.051
			c-0.522,0-1.088,0.094-1.68,0.279l-1.468,0.461l0.578,1.426c0.717,1.766,1.06,4.803,0.695,7.67
			c-0.012-0.014-0.023-0.025-0.035-0.039c-0.756-0.834-1.84-1.314-2.975-1.314c-1.093,0-2.1,0.438-2.836,1.23
			c-0.544,0.588-1.193,1.658-1.193,3.42v0.037l0.002,0.039c0.093,1.734,1.368,2.947,3.101,2.947c0.407,0,0.79-0.07,1.13-0.199
			c-0.185,1.053-0.649,2.539-1.645,4.564c-2.719,5.535-8.512,22.617-2.74,35.031c2.807,6.033,7.917,10.01,15.19,11.818
			c1.484,0.369,2.91,0.557,4.237,0.557c3.849,0,6.557-1.566,8.276-3.502H141.01c1.72,1.936,4.428,3.502,8.276,3.502
			c1.327,0,2.753-0.188,4.237-0.557c7.273-1.809,12.384-5.785,15.19-11.818C174.485,103.832,168.692,86.75,165.974,81.215z"/>
	</g>
	<g>
		<path fill="none" stroke="#FFFFFF" stroke-width="2.8347" stroke-miterlimit="10" d="M165.974,81.215
			c-0.995-2.025-1.46-3.512-1.645-4.564c0.34,0.129,0.723,0.199,1.13,0.199c1.732,0,3.008-1.213,3.101-2.947l0.002-0.039v-0.037
			c0-1.762-0.649-2.832-1.193-3.42c-0.736-0.793-1.743-1.23-2.836-1.23c-1.135,0-2.219,0.48-2.975,1.314
			c-0.012,0.014-0.023,0.025-0.035,0.039c-0.364-2.867-0.021-5.904,0.695-7.67l0.578-1.426l-1.468-0.461
			c-0.592-0.186-1.157-0.279-1.68-0.279c-1.026,0-1.93,0.363-2.612,1.051c-0.093,0.094-0.181,0.191-0.263,0.293
			c0.111-1.59,0.385-3.469,0.94-5.354l0.428-1.449l-1.474-0.334c-0.503-0.113-0.986-0.172-1.436-0.172
			c-1.312,0-2.412,0.49-3.184,1.416c-0.45,0.541-0.746,1.178-0.936,1.838c-0.403-2.059-0.767-4.832-0.881-8.133
			c0.47,0.445,1.084,0.887,1.886,1.307c0.691,0.363,1.462,0.547,2.289,0.547c2.983,0,6.177-2.537,6.177-6.312
			c0-2.145-0.786-4.115-2.215-5.551c-1.408-1.416-3.313-2.195-5.363-2.195l-0.148,0.002c-3.87,0.072-6.866,2.285-7.799,5.512
			c-1.205-1.334-4.092-4.154-6.969-4.154c-1.355,0.002-3.224,0.604-4.415,3.471l-0.632,1.516h-23.89
			c0.461-1.853,0.705-3.809,0.705-5.842c0-8.622-4.263-16.224-11.697-20.855c-1.361-0.848-2.64-1.427-3.769-1.938
			c-1.086-0.492-2.112-0.957-3.062-1.584c-1.106-0.749-3.31-3.379-4.25-4.502l-4.847-5.784l-0.76,7.509
			c-0.228,2.247-0.783,2.77-1.168,3.092c-1.479,1.156-2.506,1.683-3.803,2.349c-0.443,0.228-0.898,0.461-1.384,0.726
			c-1.435,0.745-12.375,6.881-12.375,20.629c0,2.147,0.304,4.226,0.861,6.201H39.558l-0.632-1.516
			c-1.191-2.867-3.06-3.469-4.415-3.471c-2.877,0-5.764,2.82-6.969,4.154c-0.933-3.227-3.929-5.439-7.799-5.512l-0.148-0.002
			c-2.05,0-3.955,0.779-5.363,2.195c-1.429,1.436-2.215,3.406-2.215,5.551c0,3.775,3.193,6.312,6.177,6.312
			c0.827,0,1.598-0.184,2.289-0.547c0.802-0.42,1.416-0.861,1.886-1.307c-0.114,3.301-0.478,6.074-0.881,8.133
			c-0.189-0.66-0.485-1.297-0.936-1.838c-0.771-0.926-1.872-1.416-3.184-1.416c-0.449,0-0.933,0.059-1.436,0.172l-1.474,0.334
			l0.428,1.449c0.556,1.885,0.829,3.764,0.94,5.354c-0.082-0.102-0.17-0.199-0.263-0.293c-0.683-0.688-1.586-1.051-2.612-1.051
			c-0.522,0-1.088,0.094-1.68,0.279l-1.468,0.461l0.578,1.426c0.717,1.766,1.06,4.803,0.695,7.67
			c-0.012-0.014-0.023-0.025-0.035-0.039c-0.756-0.834-1.84-1.314-2.975-1.314c-1.093,0-2.1,0.438-2.836,1.23
			c-0.544,0.588-1.193,1.658-1.193,3.42v0.037l0.002,0.039c0.093,1.734,1.368,2.947,3.101,2.947c0.407,0,0.79-0.07,1.13-0.199
			c-0.185,1.053-0.649,2.539-1.645,4.564c-2.719,5.535-8.512,22.617-2.74,35.031c2.807,6.033,7.917,10.01,15.19,11.818
			c1.484,0.369,2.91,0.557,4.237,0.557c3.849,0,6.557-1.566,8.276-3.502H141.01c1.72,1.936,4.428,3.502,8.276,3.502
			c1.327,0,2.753-0.188,4.237-0.557c7.273-1.809,12.384-5.785,15.19-11.818C174.485,103.832,168.692,86.75,165.974,81.215z"/>
	</g>
</g>
<path id="vulling_krullen_5_" fill="#1D1D1B" d="M149.913,88.029c0.257,0.59,0.626,1.076,1.035,1.477
	c-2.635,0.484-3.627,2.908-3.78,4.256l-0.18,1.582l1.592-0.004h0.061c5.195,0,9.34,1.697,11.671,4.781
	c1.024,1.355,1.662,2.92,1.899,4.611c-0.455-0.266-0.977-0.402-1.546-0.402h-0.001h-0.042h-0.011l-2.028,0.031l0.727,1.895
	c1.658,4.322,0.008,10.297-0.545,11.574c0.369-3.877-0.441-8.42-0.997-10.928c-0.608-2.732,0.928-4.557,0.985-4.623l1.192-1.336
	l-1.574-0.854c-0.639-0.346-1.336-0.529-2.019-0.529c-1.004,0-1.918,0.4-2.574,1.125c-0.165,0.184-0.312,0.385-0.441,0.602
	c-0.664-1.076-1.573-1.758-2.397-2.186c-1.576-0.818-3.177-0.881-3.63-0.881h-0.061h-0.019l-0.851,0.023l-0.38,0.76
	c-0.848,1.695-1.709,5.088,0.435,7.055c0.092,0.084,0.224,0.203,0.37,0.342c-3.735,0.574-4.345,2.289-4.443,2.816l-0.335,1.801
	l1.828-0.127c0.298-0.021,0.595-0.031,0.882-0.031c4.995,0,7.527,3.273,7.821,6.518c0.186,2.045-0.571,4.422-2.67,4.805
	c-0.319,0.059-0.64,0.088-0.951,0.088c-2.012,0-3.631-1.24-4.479-2.598c0.704,0.486,1.632,0.777,2.507,0.777
	c1,0,1.904-0.385,2.545-1.084c1.008-1.098,1.25-2.568,0.65-3.934c-0.799-1.816-2.823-2.988-5.158-2.988
	c-0.297,0-0.601,0.02-0.902,0.057c-1.654,0.209-3.043,0.984-4.016,2.244c-0.909,1.178-1.41,2.77-1.438,4.418H33.955
	c-0.027-1.648-0.528-3.24-1.438-4.418c-0.973-1.26-2.361-2.035-4.016-2.244c-0.302-0.037-0.605-0.057-0.902-0.057
	c-2.335,0-4.359,1.172-5.158,2.988c-0.6,1.365-0.357,2.836,0.65,3.934c0.641,0.699,1.545,1.084,2.545,1.084
	c0.875,0,1.803-0.291,2.507-0.777c-0.849,1.357-2.468,2.598-4.479,2.598c-0.312,0-0.632-0.029-0.951-0.088
	c-2.099-0.383-2.855-2.76-2.67-4.805c0.294-3.244,2.826-6.518,7.821-6.518c0.287,0,0.584,0.01,0.882,0.031l1.828,0.127l-0.335-1.801
	c-0.099-0.527-0.708-2.242-4.443-2.816c0.146-0.139,0.278-0.258,0.37-0.342c2.144-1.967,1.282-5.359,0.435-7.055l-0.38-0.76
	l-0.851-0.023h-0.019h-0.061c-0.453,0-2.054,0.062-3.63,0.881c-0.824,0.428-1.733,1.109-2.397,2.186
	c-0.129-0.217-0.276-0.418-0.441-0.602c-0.656-0.725-1.57-1.125-2.574-1.125c-0.683,0-1.38,0.184-2.019,0.529l-1.574,0.854
	l1.192,1.336c0.058,0.066,1.594,1.891,0.985,4.623c-0.556,2.508-1.366,7.051-0.997,10.928c-0.553-1.277-2.203-7.252-0.545-11.574
	l0.727-1.895l-2.028-0.031h-0.011h-0.042h-0.001c-0.569,0-1.091,0.137-1.546,0.402c0.237-1.691,0.875-3.256,1.899-4.611
	c2.331-3.084,6.476-4.781,11.671-4.781h0.061l1.592,0.004l-0.18-1.582c-0.153-1.348-1.146-3.771-3.78-4.256
	c0.409-0.4,0.778-0.887,1.035-1.477c1.322-3.039,0.878-4.814,0.106-6.99l-0.396-1.115l-1.168,0.191
	c-0.231,0.037-4.194,0.721-6.794,3.574c-0.069-0.244-0.167-0.465-0.292-0.668l0.233-0.516c2.988-6.17,4.971-8.875,6.888-11.492
	c2.625-3.584,5.104-6.971,9.467-18.434c0.379-0.996,0.737-1.867,1.08-2.633h108.976c0.343,0.766,0.701,1.637,1.08,2.633
	c4.362,11.463,6.842,14.85,9.467,18.434c1.917,2.617,3.899,5.322,6.888,11.492l0.233,0.516c-0.125,0.203-0.223,0.424-0.292,0.668
	c-2.6-2.854-6.562-3.537-6.794-3.574l-1.168-0.191l-0.396,1.115C149.035,83.215,148.591,84.99,149.913,88.029z"/>
<path id="tekening_krullen_4_" fill="#1D1D1B" d="M165.974,81.215c-0.995-2.025-1.46-3.512-1.645-4.564
	c0.34,0.129,0.723,0.199,1.13,0.199c1.732,0,3.008-1.213,3.101-2.947l0.002-0.039v-0.037c0-1.762-0.649-2.832-1.193-3.42
	c-0.736-0.793-1.743-1.23-2.836-1.23c-1.135,0-2.219,0.48-2.975,1.314c-0.012,0.014-0.023,0.025-0.035,0.039
	c-0.364-2.867-0.021-5.904,0.695-7.67l0.578-1.426l-1.468-0.461c-0.592-0.186-1.157-0.279-1.68-0.279
	c-1.026,0-1.93,0.363-2.612,1.051c-0.093,0.094-0.181,0.191-0.263,0.293c0.111-1.59,0.385-3.469,0.94-5.354l0.428-1.449
	l-1.474-0.334c-0.503-0.113-0.986-0.172-1.436-0.172c-1.312,0-2.412,0.49-3.184,1.416c-0.45,0.541-0.746,1.178-0.936,1.838
	c-0.403-2.059-0.767-4.832-0.881-8.133c0.47,0.445,1.084,0.887,1.886,1.307c0.691,0.363,1.462,0.547,2.289,0.547
	c2.983,0,6.177-2.537,6.177-6.312c0-2.145-0.786-4.115-2.215-5.551c-1.408-1.416-3.313-2.195-5.363-2.195l-0.148,0.002
	c-3.87,0.072-6.866,2.285-7.799,5.512c-1.205-1.334-4.092-4.154-6.969-4.154c-1.355,0.002-3.224,0.604-4.415,3.471l-0.632,1.516
	H39.558l-0.632-1.516c-1.191-2.867-3.06-3.469-4.415-3.471c-2.877,0-5.764,2.82-6.969,4.154c-0.933-3.227-3.929-5.439-7.799-5.512
	l-0.148-0.002c-2.05,0-3.955,0.779-5.363,2.195c-1.429,1.436-2.215,3.406-2.215,5.551c0,3.775,3.193,6.312,6.177,6.312
	c0.827,0,1.598-0.184,2.289-0.547c0.802-0.42,1.416-0.861,1.886-1.307c-0.114,3.301-0.478,6.074-0.881,8.133
	c-0.189-0.66-0.485-1.297-0.936-1.838c-0.771-0.926-1.872-1.416-3.184-1.416c-0.449,0-0.933,0.059-1.436,0.172l-1.474,0.334
	l0.428,1.449c0.556,1.885,0.829,3.764,0.94,5.354c-0.082-0.102-0.17-0.199-0.263-0.293c-0.683-0.688-1.586-1.051-2.612-1.051
	c-0.522,0-1.088,0.094-1.68,0.279l-1.468,0.461l0.578,1.426c0.717,1.766,1.06,4.803,0.695,7.67
	c-0.012-0.014-0.023-0.025-0.035-0.039c-0.756-0.834-1.84-1.314-2.975-1.314c-1.093,0-2.1,0.438-2.836,1.23
	c-0.544,0.588-1.193,1.658-1.193,3.42v0.037l0.002,0.039c0.093,1.734,1.368,2.947,3.101,2.947c0.407,0,0.79-0.07,1.13-0.199
	c-0.185,1.053-0.649,2.539-1.645,4.564c-2.719,5.535-8.512,22.617-2.74,35.031c2.807,6.033,7.917,10.01,15.19,11.818
	c1.484,0.369,2.91,0.557,4.237,0.557c3.849,0,6.557-1.566,8.276-3.502H141.01c1.72,1.936,4.428,3.502,8.276,3.502
	c1.327,0,2.753-0.188,4.237-0.557c7.273-1.809,12.384-5.785,15.19-11.818C174.485,103.832,168.692,86.75,165.974,81.215z
	 M149.913,88.029c0.257,0.59,0.626,1.076,1.035,1.477c-2.635,0.484-3.627,2.908-3.78,4.256l-0.18,1.582l1.592-0.004h0.061
	c5.195,0,9.34,1.697,11.671,4.781c1.024,1.355,1.662,2.92,1.899,4.611c-0.455-0.266-0.977-0.402-1.546-0.402h-0.001h-0.042h-0.011
	l-2.028,0.031l0.727,1.895c1.658,4.322,0.008,10.297-0.545,11.574c0.369-3.877-0.441-8.42-0.997-10.928
	c-0.608-2.732,0.928-4.557,0.985-4.623l1.192-1.336l-1.574-0.854c-0.639-0.346-1.336-0.529-2.019-0.529
	c-1.004,0-1.918,0.4-2.574,1.125c-0.165,0.184-0.312,0.385-0.441,0.602c-0.664-1.076-1.573-1.758-2.397-2.186
	c-1.576-0.818-3.177-0.881-3.63-0.881h-0.061h-0.019l-0.851,0.023l-0.38,0.76c-0.848,1.695-1.709,5.088,0.435,7.055
	c0.092,0.084,0.224,0.203,0.37,0.342c-3.735,0.574-4.345,2.289-4.443,2.816l-0.335,1.801l1.828-0.127
	c0.298-0.021,0.595-0.031,0.882-0.031c4.995,0,7.527,3.273,7.821,6.518c0.186,2.045-0.571,4.422-2.67,4.805
	c-0.319,0.059-0.64,0.088-0.951,0.088c-2.012,0-3.631-1.24-4.479-2.598c0.704,0.486,1.632,0.777,2.507,0.777
	c1,0,1.904-0.385,2.545-1.084c1.008-1.098,1.25-2.568,0.65-3.934c-0.799-1.816-2.823-2.988-5.158-2.988
	c-0.297,0-0.601,0.02-0.902,0.057c-1.654,0.209-3.043,0.984-4.016,2.244c-0.909,1.178-1.41,2.77-1.438,4.418H33.955
	c-0.027-1.648-0.528-3.24-1.438-4.418c-0.973-1.26-2.361-2.035-4.016-2.244c-0.302-0.037-0.605-0.057-0.902-0.057
	c-2.335,0-4.359,1.172-5.158,2.988c-0.6,1.365-0.357,2.836,0.65,3.934c0.641,0.699,1.545,1.084,2.545,1.084
	c0.875,0,1.803-0.291,2.507-0.777c-0.849,1.357-2.468,2.598-4.479,2.598c-0.312,0-0.632-0.029-0.951-0.088
	c-2.099-0.383-2.855-2.76-2.67-4.805c0.294-3.244,2.826-6.518,7.821-6.518c0.287,0,0.584,0.01,0.882,0.031l1.828,0.127l-0.335-1.801
	c-0.099-0.527-0.708-2.242-4.443-2.816c0.146-0.139,0.278-0.258,0.37-0.342c2.144-1.967,1.282-5.359,0.435-7.055l-0.38-0.76
	l-0.851-0.023h-0.019h-0.061c-0.453,0-2.054,0.062-3.63,0.881c-0.824,0.428-1.733,1.109-2.397,2.186
	c-0.129-0.217-0.276-0.418-0.441-0.602c-0.656-0.725-1.57-1.125-2.574-1.125c-0.683,0-1.38,0.184-2.019,0.529l-1.574,0.854
	l1.192,1.336c0.058,0.066,1.594,1.891,0.985,4.623c-0.556,2.508-1.366,7.051-0.997,10.928c-0.553-1.277-2.203-7.252-0.545-11.574
	l0.727-1.895l-2.028-0.031h-0.011h-0.042h-0.001c-0.569,0-1.091,0.137-1.546,0.402c0.237-1.691,0.875-3.256,1.899-4.611
	c2.331-3.084,6.476-4.781,11.671-4.781h0.061l1.592,0.004l-0.18-1.582c-0.153-1.348-1.146-3.771-3.78-4.256
	c0.409-0.4,0.778-0.887,1.035-1.477c1.322-3.039,0.878-4.814,0.106-6.99l-0.396-1.115l-1.168,0.191
	c-0.231,0.037-4.194,0.721-6.794,3.574c-0.069-0.244-0.167-0.465-0.292-0.668l0.233-0.516c2.988-6.17,4.971-8.875,6.888-11.492
	c2.625-3.584,5.104-6.971,9.467-18.434c0.379-0.996,0.737-1.867,1.08-2.633h108.976c0.343,0.766,0.701,1.637,1.08,2.633
	c4.362,11.463,6.842,14.85,9.467,18.434c1.917,2.617,3.899,5.322,6.888,11.492l0.233,0.516c-0.125,0.203-0.223,0.424-0.292,0.668
	c-2.6-2.854-6.562-3.537-6.794-3.574l-1.168-0.191l-0.396,1.115C149.035,83.215,148.591,84.99,149.913,88.029z M32.716,48.104
	c0.544-1.01,1.045-1.742,1.512-2.268h104.146c0.467,0.525,0.967,1.258,1.512,2.268H32.716z M23.314,127.203
	c-1.162,0-2.457-0.156-3.896-0.514c-24.588-6.113-15.697-36.346-11.52-44.85c3.349-6.816,1.466-8.721,0.362-8.721
	c-0.564,0-0.925,0.5-0.271,1.096c0.729,0.664,0.009,1.217-0.85,1.217c-0.758,0-1.623-0.434-1.686-1.605
	c0-2.238,1.306-3.232,2.612-3.232c1.392,0,2.783,1.131,2.588,3.09c-0.092,0.914,0.053,1.24,0.27,1.24c0.264,0,0.637-0.49,0.814-0.99
	c1.291-3.633,1.123-8.732-0.044-11.607c0.474-0.148,0.89-0.215,1.256-0.215c2.719,0,2.678,3.67,2.672,4.768
	c-0.003,0.496,0.17,0.682,0.396,0.682c0.342,0,0.805-0.418,0.975-0.811c0.401-0.928,0.628-5.801-0.748-10.467
	c0.413-0.094,0.785-0.137,1.122-0.137c3.554,0,3.062,4.814,2.852,5.959c-0.108,0.592,0.145,0.838,0.485,0.838
	c0.38,0,0.868-0.307,1.081-0.777c0.724-1.598,2.278-7.652,2.006-16.508c-0.062-2.023-2.097-3.646-3.99-3.646
	c-1.939,0-3.847,1.24-3.718,3.613c0.068,1.287,1.404,2.395,2.333,2.408c0.024,0.002,0.049,0.002,0.072,0.002
	c2.72,0,2.754-2.34,1.988-3.047c-0.167-0.152-0.354-0.24-0.514-0.24c-0.328,0-0.533,0.371-0.172,1.285
	c0.096,0.242-0.419,0.811-1.002,0.811c-0.401,0-0.834-0.27-1.123-1.102c-0.43-1.24,0.795-2.496,2.106-2.496
	c1.182,0,2.71,1.293,2.71,2.537c0,1.242,0.084,2.68-2.659,4.117c-0.498,0.262-1.057,0.385-1.631,0.385
	c-2.258,0-4.76-1.91-4.76-4.895c0-3.699,2.753-6.328,6.161-6.328c0.041,0,0.081,0,0.122,0c3.743,0.07,6.712,2.543,6.712,6.285
	c0,1.184-0.459,2.688-0.87,3.713c-0.221,0.555,0.045,0.887,0.408,0.887c0.212,0,0.457-0.111,0.659-0.357
	c0.9-1.1,1.471-4.904,1.471-4.904s3.436-4.264,6.414-4.264c1.191,0,2.311,0.684,3.106,2.596c-2.284,0.059-4.659-0.275-8.21,9.059
	C21.97,71.625,20.304,67.02,13.103,81.889c0,0-0.425-0.168-1.121-0.168c-0.079,0-0.168,0.008-0.254,0.014
	c0.063-0.121,0.123-0.238,0.188-0.357c1.438-2.627,3.125-5.328,4.866-7.971c1.739-2.645,3.447-5.141,4.914-7.477
	c1.471-2.334,2.69-4.51,3.575-6.402c1.788-3.791,2.284-6.352,2.312-6.336c-0.026-0.016-0.733,2.488-2.694,6.143
	c-0.972,1.828-2.27,3.926-3.799,6.201c-1.525,2.279-3.275,4.742-5.024,7.4c-1.75,2.656-3.407,5.412-4.789,8.104
	c-0.143,0.277-0.271,0.551-0.405,0.826c-0.973,0.236-2.169,0.828-3.411,2.197c0.677,0.863,1.097,1.705,1.356,2.459
	c-0.287,0.738-0.557,1.463-0.781,2.15c-0.766,2.316-1.189,4.32-1.352,5.738c-0.177,1.424-0.046,2.246-0.035,2.24
	c-0.012,0.004-0.087-0.822,0.168-2.221c0.24-1.396,0.765-3.357,1.623-5.615c0.184-0.486,0.386-0.988,0.603-1.502
	c0.208,0.949,0.153,1.672,0.066,1.971c-2.275,7.793-1.221,7.863-1.221,7.863c4.949-7.227,1.508-12.814,1.508-12.814
	c0.636-0.49,1.719-1.057,2.559-1.057c0.819,0,1.408,0.539,1.122,2.213c-0.137,0.801-0.481,1.463-0.568,2.451
	c-0.055,0.58,0.339,0.83,0.69,0.83c0.247,0,0.474-0.125,0.506-0.346c0.853-5.787,7.754-6.91,7.754-6.91
	c0.688,1.938,1.069,3.332-0.07,5.951c-0.661,1.52-2.544,2.172-2.994,2.441c-0.407,0.244-0.258,1.232,0.402,1.232
	c0.069,0,0.145-0.012,0.226-0.035c0.628-0.186,1.178-0.266,1.659-0.266c2.993,0,3.344,3.084,3.344,3.084c-0.022,0-0.043,0-0.064,0
	c-11.612,0-16.899,7.865-14.538,16.199c0.248,0.875,0.512,1.693,0.786,2.453c0.001,0.004,0.002,0.006,0.003,0.006
	c0.03,0-1.37-6.834,1.726-6.832c0.01,0,0.021,0,0.031,0c-1.941,5.062,0.148,11.965,0.719,12.951c1.677,2.9,4.882,4.197,4.969,4.197
	c0.004,0,0.001-0.002-0.01-0.008c-3.449-1.908-2.681-10.035-1.429-15.68c0.785-3.525-1.312-5.873-1.312-5.873
	c0.42-0.229,0.887-0.357,1.343-0.357c1.31,0,2.522,1.076,2.224,4.008c-0.049,0.479,0.238,0.689,0.549,0.689
	c0.337,0,0.703-0.246,0.703-0.662c0-5.242,5.052-5.375,5.567-5.375c0.027,0,0.042,0,0.042,0s1.803,3.607-0.125,5.375
	c-2.326,2.133-2.451,2.438-0.026,2.732c3.42,0.416,3.664,1.73,3.664,1.73c-0.336-0.023-0.663-0.035-0.981-0.035
	c-10.719,0-11.601,13.002-5.406,14.135c0.414,0.076,0.816,0.111,1.206,0.111c5.083,0,7.995-6.021,5.731-7.299
	c-0.889-0.502-1.575-0.688-2.089-0.688c-1.501,0-1.514,1.598-0.727,1.598c0.005,0,0.011,0,0.017,0
	c0.052-0.002,0.102-0.002,0.15-0.002c2.345,0,0.614,1.734-1.11,1.734c-0.543,0-1.086-0.172-1.5-0.623
	c-1.639-1.787,0.258-4.547,3.463-4.547c0.235,0,0.478,0.014,0.726,0.045c3.397,0.428,4.505,3.705,4.162,6.299
	C32.222,122.215,29.875,127.203,23.314,127.203z M32.891,123.275c0.427-0.777,0.727-1.555,0.89-2.268h105.04
	c0.163,0.713,0.463,1.49,0.89,2.268H32.891z M153.182,126.689c-1.438,0.357-2.733,0.514-3.896,0.514
	c-6.561,0-8.907-4.988-9.173-6.998c-0.343-2.594,0.765-5.871,4.162-6.299c0.248-0.031,0.49-0.045,0.726-0.045
	c3.205,0,5.102,2.76,3.463,4.547c-0.414,0.451-0.957,0.623-1.5,0.623c-1.725,0-3.455-1.734-1.11-1.734c0.049,0,0.099,0,0.15,0.002
	c0.006,0,0.012,0,0.017,0c0.787,0,0.774-1.598-0.727-1.598c-0.514,0-1.2,0.186-2.089,0.688c-2.264,1.277,0.648,7.299,5.731,7.299
	c0.39,0,0.792-0.035,1.206-0.111c6.194-1.133,5.312-14.135-5.406-14.135c-0.318,0-0.646,0.012-0.981,0.035
	c0,0,0.244-1.314,3.664-1.73c2.425-0.295,2.3-0.6-0.026-2.732c-1.928-1.768-0.125-5.375-0.125-5.375s0.015,0,0.042,0
	c0.516,0,5.567,0.133,5.567,5.375c0,0.416,0.366,0.662,0.703,0.662c0.311,0,0.598-0.211,0.549-0.689
	c-0.299-2.932,0.914-4.008,2.224-4.008c0.456,0,0.923,0.129,1.343,0.357c0,0-2.097,2.348-1.312,5.873
	c1.252,5.645,2.021,13.771-1.429,15.68c-0.011,0.006-0.014,0.008-0.01,0.008c0.087,0,3.292-1.297,4.969-4.197
	c0.57-0.986,2.66-7.889,0.719-12.951c0.011,0,0.021,0,0.031,0c3.096-0.002,1.695,6.832,1.726,6.832c0.001,0,0.002-0.002,0.003-0.006
	c0.274-0.76,0.538-1.578,0.786-2.453c2.361-8.334-2.926-16.199-14.538-16.199c-0.021,0-0.042,0-0.064,0c0,0,0.351-3.084,3.344-3.084
	c0.481,0,1.031,0.08,1.659,0.266c0.081,0.023,0.156,0.035,0.226,0.035c0.66,0,0.81-0.988,0.402-1.232
	c-0.45-0.27-2.333-0.922-2.994-2.441c-1.14-2.619-0.758-4.014-0.07-5.951c0,0,6.901,1.123,7.754,6.91
	c0.032,0.221,0.259,0.346,0.506,0.346c0.352,0,0.745-0.25,0.69-0.83c-0.087-0.988-0.432-1.65-0.568-2.451
	c-0.286-1.674,0.303-2.213,1.122-2.213c0.84,0,1.923,0.566,2.559,1.057c0,0-3.441,5.588,1.508,12.814c0,0,1.055-0.07-1.221-7.863
	c-0.087-0.299-0.142-1.021,0.066-1.971c0.217,0.514,0.419,1.016,0.603,1.502c0.858,2.258,1.383,4.219,1.623,5.615
	c0.255,1.398,0.18,2.225,0.168,2.221c0.011,0.006,0.142-0.816-0.035-2.24c-0.162-1.418-0.586-3.422-1.352-5.738
	c-0.225-0.688-0.494-1.412-0.781-2.15c0.26-0.754,0.68-1.596,1.356-2.459c-1.242-1.369-2.438-1.961-3.411-2.197
	c-0.135-0.275-0.263-0.549-0.405-0.826c-1.382-2.691-3.039-5.447-4.789-8.104c-1.749-2.658-3.499-5.121-5.024-7.4
	c-1.529-2.275-2.827-4.373-3.799-6.201c-1.961-3.654-2.668-6.158-2.694-6.143c0.027-0.016,0.523,2.545,2.312,6.336
	c0.885,1.893,2.104,4.068,3.575,6.402c1.467,2.336,3.175,4.832,4.914,7.477c1.741,2.643,3.428,5.344,4.866,7.971
	c0.065,0.119,0.125,0.236,0.188,0.357c-0.086-0.006-0.175-0.014-0.254-0.014c-0.696,0-1.121,0.168-1.121,0.168
	c-7.201-14.869-8.867-10.264-16.305-29.812c-3.551-9.334-5.926-9-8.21-9.059c0.796-1.912,1.915-2.596,3.106-2.596
	c2.979,0,6.414,4.264,6.414,4.264s0.57,3.805,1.471,4.904c0.202,0.246,0.447,0.357,0.659,0.357c0.363,0,0.629-0.332,0.408-0.887
	c-0.411-1.025-0.87-2.529-0.87-3.713c0-3.742,2.969-6.215,6.712-6.285c0.041,0,0.081,0,0.122,0c3.408,0,6.161,2.629,6.161,6.328
	c0,2.984-2.502,4.895-4.76,4.895c-0.574,0-1.133-0.123-1.631-0.385c-2.743-1.438-2.659-2.875-2.659-4.117
	c0-1.244,1.528-2.537,2.71-2.537c1.312,0,2.536,1.256,2.106,2.496c-0.289,0.832-0.722,1.102-1.123,1.102
	c-0.583,0-1.098-0.568-1.002-0.811c0.361-0.914,0.156-1.285-0.172-1.285c-0.159,0-0.347,0.088-0.514,0.24
	c-0.766,0.707-0.731,3.047,1.988,3.047c0.023,0,0.048,0,0.072-0.002c0.929-0.014,2.265-1.121,2.333-2.408
	c0.129-2.373-1.778-3.613-3.718-3.613c-1.894,0-3.928,1.623-3.99,3.646c-0.272,8.855,1.282,14.91,2.006,16.508
	c0.213,0.471,0.701,0.777,1.081,0.777c0.341,0,0.594-0.246,0.485-0.838c-0.21-1.145-0.702-5.959,2.852-5.959
	c0.337,0,0.709,0.043,1.122,0.137c-1.376,4.666-1.149,9.539-0.748,10.467c0.17,0.393,0.633,0.811,0.975,0.811
	c0.226,0,0.398-0.186,0.396-0.682c-0.006-1.098-0.047-4.768,2.672-4.768c0.366,0,0.782,0.066,1.256,0.215
	c-1.167,2.875-1.335,7.975-0.044,11.607c0.178,0.5,0.551,0.99,0.814,0.99c0.217,0,0.361-0.326,0.27-1.24
	c-0.195-1.959,1.196-3.09,2.588-3.09c1.307,0,2.612,0.994,2.612,3.232c-0.062,1.172-0.928,1.605-1.686,1.605
	c-0.858,0-1.579-0.553-0.85-1.217c0.654-0.596,0.294-1.096-0.271-1.096c-1.104,0-2.986,1.904,0.362,8.721
	C168.879,90.344,177.77,120.576,153.182,126.689z"/>
<path fill="#1D1D1B" d="M9.083,111.764c-3.812-12.625,5-18.875,12.812-18.562c0,0-8.949-1.43-12.75,6.07
	C5.795,105.885,9.083,111.764,9.083,111.764z"/>
<path fill="#1D1D1B" d="M22.679,40.395c2.997,0.902,3.947,4.543,2.589,7.037C25.268,47.432,26.438,42.469,22.679,40.395z"/>
<path fill="#1D1D1B" d="M20.224,39.723c-5.042,1.174-6.406,4.641-4.704,8.871C11.324,43.248,17.098,38.836,20.224,39.723z"/>
<path fill="#1D1D1B" d="M17.098,56.881c1.105,0.713,1.579,2.141,0.826,6.025C18.003,58.783,17.098,56.881,17.098,56.881z"/>
<path fill="#1D1D1B" d="M3.956,100.986c-0.145,18.465,12.314,26.24,23.627,24.34C23.846,127.965,1.831,125.451,3.956,100.986z"/>
<path fill="#1D1D1B" d="M18.43,88.951c3.135-1.311,2.9-4.789,2.588-5.5C20.449,86.217,18.43,88.951,18.43,88.951z"/>
<path fill="#1D1D1B" d="M23.455,105.098c2.343-0.979,2.002-2.664,1.769-3.195C24.799,103.969,23.455,105.098,23.455,105.098z"/>
<path fill="#1D1D1B" d="M12.532,62.793c1.135,2.637,0.837,7.383,0.373,8.902C14.12,68.275,14.402,62.377,12.532,62.793z"/>
<path fill="#1D1D1B" d="M163.518,111.764c3.812-12.625-5-18.875-12.812-18.562c0,0,8.949-1.43,12.75,6.07
	C166.806,105.885,163.518,111.764,163.518,111.764z"/>
<path fill="#1D1D1B" d="M149.922,40.395c-2.997,0.902-3.947,4.543-2.589,7.037C147.333,47.432,146.163,42.469,149.922,40.395z"/>
<path fill="#1D1D1B" d="M152.377,39.723c5.042,1.174,6.406,4.641,4.704,8.871C161.276,43.248,155.503,38.836,152.377,39.723z"/>
<path fill="#1D1D1B" d="M155.503,56.881c-1.105,0.713-1.579,2.141-0.826,6.025C154.598,58.783,155.503,56.881,155.503,56.881z"/>
<path fill="#1D1D1B" d="M168.645,100.986c0.145,18.465-12.314,26.24-23.627,24.34C148.755,127.965,170.77,125.451,168.645,100.986z"
	/>
<path fill="#1D1D1B" d="M154.171,88.951c-3.135-1.311-2.9-4.789-2.588-5.5C152.151,86.217,154.171,88.951,154.171,88.951z"/>
<path fill="#1D1D1B" d="M149.146,105.098c-2.343-0.979-2.002-2.664-1.769-3.195C147.802,103.969,149.146,105.098,149.146,105.098z"
	/>
<path fill="#1D1D1B" d="M160.068,62.793c-1.135,2.637-0.837,7.383-0.373,8.902C158.48,68.275,158.198,62.377,160.068,62.793z"/>
<path id="buitenste_rand_druplicon_2_" fill="#1D1D1B" d="M82.233,3.485l-0.76,7.509c-0.228,2.247-0.783,2.77-1.168,3.092
	c-1.479,1.156-2.506,1.683-3.803,2.349c-0.443,0.228-0.898,0.461-1.384,0.726c-1.435,0.745-12.375,6.881-12.375,20.629
	c0,12.842,10.648,23.289,23.737,23.289c13.328,0,23.378-9.857,23.378-22.93c0-8.622-4.263-16.224-11.697-20.855
	c-1.361-0.848-2.64-1.427-3.769-1.938c-1.086-0.492-2.112-0.957-3.062-1.584c-1.106-0.749-3.31-3.379-4.25-4.502L82.233,3.485
	L82.233,3.485z"/>
<path id="zwart_hoofd_druplicon_1_" fill="#1D1D1B" d="M96.442,19.973c-2.378-1.48-4.624-2.064-6.866-3.545
	c-1.392-0.941-3.321-3.186-4.937-5.113c-0.313,3.096-1.257,4.352-2.335,5.248c-2.287,1.795-3.724,2.336-5.696,3.41
	c-1.662,0.854-10.683,6.238-10.683,17.816s9.738,20.105,20.554,20.105s20.195-7.854,20.195-19.746S97.88,20.869,96.442,19.973z"/>
<path id="witte_rand_in_druplicon_1_" fill="#FFFFFF" d="M84.64,11.314c1.615,1.928,3.545,4.172,4.937,5.113
	c2.242,1.48,4.488,2.064,6.866,3.545c1.438,0.896,10.232,6.283,10.232,18.176s-9.38,19.746-20.195,19.746
	s-20.554-8.527-20.554-20.105s9.021-16.963,10.683-17.816c1.973-1.074,3.409-1.615,5.696-3.41
	C83.383,15.666,84.326,14.41,84.64,11.314 M83.507,7.632l-0.357,3.531c-0.28,2.77-1.078,3.646-1.803,4.248
	c-1.592,1.249-2.743,1.84-4.076,2.523c-0.441,0.227-0.895,0.459-1.379,0.723c-1.145,0.588-11.464,6.259-11.464,19.132
	c0,11.912,9.892,21.603,22.051,21.603c12.367,0,21.693-9.133,21.693-21.243c0-8.027-3.974-15.107-10.903-19.425
	c-1.267-0.788-2.438-1.319-3.572-1.833c-1.149-0.52-2.234-1.012-3.296-1.712c-1.318-0.892-3.462-3.451-4.614-4.826L83.507,7.632
	L83.507,7.632z"/>
<path fill="#FFFFFF" d="M92.102,47.143c0.718,0,1.48,0.043,2.019,0.402c0.539,0.359,0.854,1.166,1.032,1.615s0,0.719-0.359,0.898
	c-0.313,0.178-0.358,0.088-0.673-0.494c-0.313-0.584-0.581-1.168-2.154-1.168c-1.57,0-2.063,0.539-2.827,1.168
	c-0.763,0.629-1.031,0.852-1.301,0.494c-0.27-0.359-0.179-0.719,0.314-1.168c0.494-0.449,1.301-1.166,2.064-1.48
	C90.979,47.096,91.384,47.143,92.102,47.143L92.102,47.143z"/>
<path fill="#FFFFFF" d="M84.651,52.256c0.897,0.721,2.244,1.303,5.117,1.303c2.871,0,4.891-0.807,5.787-1.482
	c0.405-0.314,0.585-0.045,0.629,0.135c0.046,0.18,0.135,0.451-0.18,0.766c-0.222,0.223-2.288,1.66-4.711,1.883
	c-2.424,0.227-5.699,0.361-7.676-1.436c-0.312-0.314-0.224-0.762,0-0.943c0.226-0.18,0.405-0.312,0.673-0.312
	C84.562,52.168,84.518,52.168,84.651,52.256L84.651,52.256z"/>
<path fill="#FFFFFF" d="M74.06,44.09c0.045-3.502,3.322-6.775,7.451-6.822c5.249-0.045,8.885,5.207,11.533,5.162
	c2.243-0.045,6.551-4.443,8.66-4.443c2.244,0,2.872,2.332,2.872,3.725c0,1.391-0.449,3.904-1.525,5.475
	c-1.076,1.572-1.751,2.154-3.006,2.064c-1.616-0.135-4.847-5.16-6.913-5.252c-2.601-0.088-8.255,5.432-12.699,5.432
	c-2.69,0-3.498-0.404-4.396-0.988C74.688,47.5,74.016,46.062,74.06,44.09L74.06,44.09z"/>
<g>
	<path fill="#FFFFFF" d="M59.571,23.325c0.347,0,0.686,0.059,1.017,0.179c0.384,0.137,0.732,0.35,1.047,0.637
		c0.313,0.287,0.567,0.633,0.763,1.035c0.194,0.4,0.296,0.805,0.307,1.215c0.011,0.412-0.058,0.803-0.205,1.178
		c-0.147,0.373-0.36,0.711-0.639,1.012c-0.278,0.303-0.603,0.543-0.973,0.723c-0.426,0.206-0.869,0.311-1.329,0.311
		c-0.08,0-0.161-0.003-0.243-0.01c-0.547-0.041-1.049-0.219-1.506-0.529s-0.813-0.73-1.068-1.258
		c-0.191-0.395-0.294-0.801-0.308-1.217c-0.014-0.418,0.051-0.818,0.195-1.201c0.144-0.385,0.353-0.729,0.626-1.031
		s0.594-0.543,0.961-0.721c0.388-0.188,0.784-0.293,1.188-0.316C59.46,23.327,59.516,23.325,59.571,23.325 M60.294,28.335
		c0.122,0,0.242-0.028,0.359-0.085c0.536-0.26,0.582-0.85,0.137-1.77c-0.104-0.213-0.241-0.445-0.413-0.693
		c-0.171-0.25-0.359-0.475-0.565-0.676c-0.205-0.201-0.428-0.346-0.668-0.438c-0.11-0.041-0.219-0.062-0.325-0.062
		c-0.125,0-0.248,0.028-0.368,0.087c-0.2,0.098-0.329,0.238-0.385,0.422c-0.057,0.186-0.062,0.383-0.018,0.592
		c0.045,0.211,0.117,0.42,0.217,0.625c0.146,0.303,0.351,0.631,0.611,0.982c0.262,0.352,0.551,0.631,0.868,0.834
		C59.933,28.274,60.116,28.335,60.294,28.335 M113.322,23.582c0.646,0,1.303,0.172,1.97,0.512c0.382,0.195,0.714,0.441,0.995,0.738
		c0.282,0.299,0.465,0.629,0.548,0.994s0.029,0.732-0.161,1.105c-0.16,0.312-0.385,0.568-0.675,0.77
		c-0.291,0.201-0.624,0.354-0.999,0.457s-0.748,0.164-1.119,0.184c-0.123,0.007-0.246,0.01-0.368,0.01
		c-0.25,0-0.501-0.014-0.753-0.041l-0.009,0.016l2.709,1.305c-0.074,0.123-0.294,0.459-0.659,1.008l-4.248-2.17l0.467-0.799
		c0.227,0.017,0.45,0.024,0.667,0.024c0.136,0,0.271-0.003,0.404-0.009c0.345-0.016,0.671-0.068,0.979-0.154
		c0.309-0.088,0.59-0.229,0.844-0.424s0.46-0.449,0.619-0.76c0.158-0.311,0.234-0.592,0.228-0.846
		c-0.008-0.252-0.145-0.447-0.411-0.584c-0.177-0.09-0.354-0.137-0.531-0.141c-0.004,0-0.008,0-0.013,0
		c-0.173,0-0.338,0.039-0.494,0.119c-0.16,0.082-0.31,0.199-0.447,0.35l-0.431-0.219c0.325-0.469,0.613-0.949,0.866-1.445
		C113.307,23.582,113.314,23.582,113.322,23.582 M54.756,25.535l0.19,0.295c-0.089,0.059-0.154,0.137-0.198,0.238
		c-0.043,0.102-0.031,0.203,0.035,0.307l2.842,4.404l-1.118,0.723c-0.391-0.164-0.804-0.336-1.238-0.518
		c-0.436-0.184-0.841-0.352-1.217-0.508s-0.754-0.311-1.135-0.465c-0.381-0.152-0.753-0.297-1.116-0.434l-0.015,0.008l1.796,2.783
		c0.103,0.159,0.23,0.238,0.383,0.238c0.12,0,0.255-0.049,0.405-0.146l0.19,0.297c-0.451,0.248-0.787,0.443-1.008,0.584
		c-0.18,0.117-0.43,0.301-0.751,0.551l-0.19-0.297c0.239-0.154,0.273-0.365,0.101-0.633l-2.341-3.627
		c-0.105-0.163-0.225-0.244-0.358-0.244c-0.08,0-0.164,0.028-0.253,0.086l-0.191-0.295c0.583-0.33,0.98-0.562,1.194-0.701
		c0.191-0.123,0.516-0.355,0.972-0.695c0.287,0.117,0.571,0.236,0.853,0.354s0.593,0.248,0.937,0.393
		c0.343,0.145,0.636,0.27,0.878,0.375c0.242,0.104,0.5,0.221,0.773,0.348l0.004-0.023l-1.194-1.852
		c-0.107-0.168-0.224-0.256-0.347-0.268c-0.013-0.001-0.026-0.002-0.04-0.002c-0.113,0-0.238,0.044-0.378,0.135l-0.19-0.295
		c0.448-0.244,0.753-0.418,0.916-0.523C54.102,26.027,54.371,25.83,54.756,25.535 M119.215,26.721c0.109,0,0.22,0.008,0.333,0.023
		c0.377,0.055,0.762,0.209,1.153,0.463c0.394,0.258,0.69,0.547,0.892,0.869c0.2,0.322,0.311,0.658,0.332,1.006
		c0.021,0.35-0.03,0.709-0.156,1.082c-0.125,0.371-0.306,0.744-0.541,1.117c-0.244,0.375-0.508,0.693-0.792,0.953
		s-0.592,0.451-0.924,0.574c-0.234,0.085-0.479,0.128-0.736,0.128c-0.108,0-0.217-0.008-0.329-0.022
		c-0.378-0.053-0.764-0.207-1.157-0.465c-0.392-0.254-0.688-0.543-0.89-0.865c-0.202-0.324-0.313-0.662-0.335-1.018
		c-0.021-0.354,0.03-0.719,0.155-1.092c0.124-0.375,0.304-0.742,0.538-1.102c0.238-0.365,0.502-0.68,0.791-0.941
		c0.29-0.264,0.602-0.457,0.935-0.582C118.717,26.764,118.961,26.721,119.215,26.721 M118.117,31.65
		c0.109,0,0.221-0.042,0.337-0.125c0.209-0.152,0.456-0.445,0.741-0.885l0.624-0.959c0.285-0.438,0.454-0.783,0.508-1.035
		c0.053-0.252-0.013-0.438-0.198-0.559c-0.083-0.055-0.169-0.082-0.257-0.082c-0.109,0-0.222,0.042-0.338,0.127
		c-0.208,0.154-0.454,0.447-0.737,0.883l-0.625,0.959c-0.283,0.436-0.453,0.781-0.508,1.033c-0.056,0.252,0.011,0.439,0.198,0.562
		C117.945,31.623,118.03,31.65,118.117,31.65 M48.86,29.402l0.228,0.268c-0.081,0.068-0.136,0.156-0.165,0.262
		c-0.03,0.105-0.005,0.205,0.074,0.301l3.392,3.994l-1.015,0.861c-0.408-0.109-0.84-0.227-1.295-0.352
		c-0.455-0.123-0.88-0.238-1.272-0.344c-0.394-0.105-0.788-0.211-1.186-0.312s-0.785-0.197-1.164-0.285l-0.013,0.01l2.144,2.525
		c0.107,0.127,0.226,0.19,0.355,0.19c0.134,0,0.279-0.067,0.438-0.202l0.228,0.27c-0.415,0.305-0.723,0.541-0.923,0.711
		c-0.163,0.139-0.388,0.354-0.673,0.643l-0.008-0.01c0.08-0.08,0.163-0.163,0.25-0.25l-0.262-0.236
		c-0.025,0.028-0.051,0.053-0.078,0.072c0.075-0.146,0.038-0.308-0.113-0.484l-2.794-3.291c-0.112-0.133-0.228-0.199-0.346-0.199
		c-0.092,0-0.186,0.041-0.281,0.121l-0.228-0.268c0.534-0.402,0.898-0.686,1.092-0.85c0.174-0.148,0.465-0.42,0.873-0.818
		c0.3,0.08,0.597,0.16,0.891,0.24s0.621,0.168,0.98,0.268c0.358,0.1,0.665,0.186,0.919,0.256c0.255,0.072,0.525,0.154,0.812,0.246
		l0.001-0.025l-1.426-1.68c-0.125-0.146-0.249-0.221-0.369-0.221c-0.003,0-0.006,0-0.009,0c-0.124,0.006-0.256,0.066-0.397,0.188
		l-0.228-0.268c0.412-0.299,0.692-0.512,0.841-0.637C48.276,29.975,48.518,29.744,48.86,29.402 M123.917,30.057
		c0.396,0.258,0.812,0.498,1.25,0.717c0.438,0.221,0.886,0.41,1.344,0.568c-0.289,0.342-0.558,0.658-0.805,0.949
		c-0.247,0.289-0.54,0.639-0.881,1.045c-0.34,0.406-0.656,0.785-0.947,1.135s-0.582,0.699-0.873,1.047
		c-0.194,0.236-0.16,0.463,0.104,0.68l-0.224,0.271c-0.552-0.5-0.975-0.871-1.267-1.111c-0.285-0.234-0.684-0.537-1.193-0.91
		l0.223-0.271c0.149,0.123,0.285,0.195,0.408,0.219c0.02,0.004,0.039,0.006,0.058,0.006c0.102,0,0.195-0.053,0.282-0.158
		l2.512-3.057c0.118-0.145,0.154-0.289,0.108-0.434c-0.047-0.145-0.154-0.287-0.322-0.424L123.917,30.057 M128.355,33.453
		l3.043,3.178c-0.132,0.088-0.266,0.18-0.398,0.277c-0.134,0.098-0.236,0.174-0.307,0.227c-0.07,0.055-0.18,0.141-0.327,0.256
		l-2.124-2.219l-0.706,0.676c0.49,0.23,0.902,0.52,1.236,0.867c0.242,0.254,0.422,0.535,0.54,0.842
		c0.118,0.309,0.149,0.613,0.094,0.916s-0.208,0.574-0.457,0.812c-0.311,0.297-0.669,0.471-1.076,0.52
		c-0.099,0.012-0.199,0.018-0.299,0.018c-0.314,0-0.64-0.056-0.975-0.17c-0.443-0.15-0.865-0.359-1.267-0.629
		c-0.4-0.27-0.759-0.566-1.072-0.895c-0.127-0.133-0.279-0.311-0.459-0.531c0.057-0.08,0.142-0.191,0.254-0.334
		c0.113-0.145,0.192-0.246,0.237-0.307c0.306,0.258,0.631,0.49,0.978,0.697c0.347,0.209,0.698,0.338,1.054,0.391
		c0.066,0.01,0.129,0.015,0.191,0.015c0.273,0,0.509-0.095,0.707-0.284c0.229-0.221,0.301-0.482,0.212-0.783
		s-0.258-0.582-0.507-0.842c-0.31-0.324-0.625-0.547-0.945-0.668c0.239-0.207,0.481-0.414,0.728-0.621
		c0.247-0.207,0.516-0.436,0.808-0.684C127.809,33.928,128.088,33.686,128.355,33.453 M42.396,35.283l4.683,2.096
		c0.193,0.086,0.336,0.145,0.428,0.174c0.065,0.022,0.127,0.032,0.188,0.032c0.024,0,0.049-0.002,0.073-0.005
		c0.052-0.009,0.101-0.029,0.148-0.062c-0.028,0.054-0.071,0.106-0.13,0.156l0.22,0.258c-0.33,0.332-0.597,0.612-0.803,0.842
		c-0.213,0.236-0.51,0.596-0.892,1.074l-0.261-0.234c0.062-0.07,0.112-0.152,0.147-0.246c0.036-0.096,0.022-0.172-0.043-0.229
		c-0.107-0.098-0.443-0.275-1.008-0.537l-1.275,1.422c0.188,0.307,0.327,0.525,0.415,0.654c0.089,0.129,0.164,0.221,0.227,0.277
		c0.049,0.044,0.099,0.066,0.148,0.066c0.026,0,0.053-0.007,0.08-0.02c0.076-0.039,0.158-0.105,0.246-0.203l0.262,0.234
		c-0.317,0.299-0.564,0.549-0.744,0.748c-0.141,0.156-0.343,0.408-0.605,0.756l-0.262-0.234c0.066-0.074,0.105-0.146,0.115-0.217
		c0.01-0.068-0.008-0.154-0.052-0.256c-0.045-0.102-0.131-0.262-0.259-0.484l-1.891-3.236c-0.165-0.275-0.297-0.457-0.396-0.545
		c-0.038-0.035-0.082-0.052-0.132-0.052c-0.023,0-0.047,0.003-0.073,0.011c-0.081,0.023-0.16,0.076-0.236,0.162l-0.262-0.234
		c0.468-0.463,0.812-0.818,1.033-1.064C41.664,36.188,41.968,35.82,42.396,35.283 M43.395,39.232l0.932-1.039l-2.188-1.043
		l-0.012,0.014L43.395,39.232 M135.109,128.459c0.824,0,1.647,0.301,2.247,0.9c0.602,0.602,0.933,1.4,0.932,2.25
		c0,0.848-0.331,1.645-0.932,2.244c-0.515,0.514-1.179,0.816-1.893,0.896c0.661,0.758,1.038,1.709,1.038,2.725
		c0.001,1.113-0.433,2.16-1.222,2.947c-0.786,0.785-1.832,1.219-2.944,1.219s-2.159-0.434-2.946-1.221
		c-1.625-1.623-1.625-4.268-0.001-5.893c0.788-0.787,1.834-1.221,2.947-1.221c0.034,0,0.067,0.01,0.102,0.01
		c-0.325-0.506-0.505-1.094-0.505-1.709c0-0.85,0.331-1.646,0.932-2.248C133.463,128.759,134.286,128.459,135.109,128.459
		 M135.11,133.401c0.47,0,0.939-0.171,1.28-0.513c0.344-0.342,0.532-0.797,0.532-1.281s-0.188-0.939-0.531-1.283
		c-0.343-0.342-0.798-0.531-1.282-0.531s-0.939,0.189-1.282,0.531c-0.343,0.344-0.53,0.799-0.53,1.283s0.188,0.939,0.53,1.279
		C134.17,133.23,134.64,133.401,135.11,133.401 M132.334,140.249c0.727,0,1.453-0.265,1.981-0.792
		c0.529-0.531,0.821-1.234,0.821-1.982s-0.292-1.453-0.821-1.984c-0.529-0.527-1.232-0.818-1.98-0.818s-1.453,0.291-1.982,0.82
		c-1.093,1.092-1.093,2.871,0,3.963C130.882,139.984,131.608,140.249,132.334,140.249 M37.491,128.459
		c0.824,0,1.648,0.301,2.248,0.9c0.601,0.602,0.931,1.398,0.931,2.248c0,0.615-0.179,1.203-0.504,1.709
		c0.034,0,0.067-0.01,0.102-0.01c1.113,0,2.159,0.434,2.946,1.221c1.624,1.625,1.624,4.27,0,5.893
		c-0.787,0.787-1.834,1.221-2.946,1.221c-1.113,0-2.159-0.434-2.945-1.219c-1.556-1.557-1.605-4.037-0.182-5.672
		c-0.715-0.08-1.379-0.383-1.895-0.898c-0.6-0.598-0.931-1.395-0.931-2.242c-0.001-0.85,0.33-1.648,0.932-2.25
		C35.845,128.759,36.668,128.459,37.491,128.459 M37.494,133.401c0.469,0,0.938-0.17,1.279-0.513
		c0.343-0.342,0.531-0.797,0.531-1.281c0-0.486-0.188-0.939-0.531-1.283c-0.342-0.342-0.797-0.531-1.281-0.531
		c-0.485,0-0.939,0.189-1.281,0.531c-0.345,0.344-0.532,0.799-0.532,1.283s0.188,0.939,0.531,1.279
		C36.553,133.229,37.023,133.401,37.494,133.401 M40.267,140.249c0.727,0,1.453-0.265,1.982-0.794
		c1.092-1.092,1.092-2.871-0.001-3.965c-0.528-0.527-1.233-0.818-1.981-0.818s-1.452,0.291-1.981,0.818
		c-1.092,1.094-1.093,2.873,0,3.967C38.814,139.984,39.541,140.249,40.267,140.249 M55.441,128.615v0.787
		c-0.464,0-0.805,0.059-1.02,0.176c-0.216,0.119-0.323,0.391-0.323,0.814v9.107h3.222c0.801,0,1.332-0.219,1.595-0.656
		s0.455-0.961,0.576-1.566h0.787c-0.135,0.875-0.227,1.488-0.277,1.838s-0.096,0.752-0.137,1.207
		c-0.04,0.455-0.061,0.965-0.061,1.529H48.575v-0.787c0.303,0,0.547-0.059,0.732-0.176c0.185-0.119,0.277-0.35,0.277-0.693v-9.924
		c0-0.58-0.337-0.869-1.01-0.869v-0.787c1.373,0.088,2.387,0.131,3.039,0.131C52.314,128.746,53.589,128.703,55.441,128.615
		 M116.806,131.432c-0.021,0.289-0.058,0.633-0.111,1.031c-0.054,0.395-0.084,0.699-0.091,0.906h0.04
		c0.425-0.463,0.909-0.826,1.454-1.09c0.546-0.262,1.107-0.393,1.687-0.393c2.262,0,3.393,1.217,3.393,3.654v4.736
		c0,0.369,0.074,0.613,0.223,0.732c0.147,0.117,0.4,0.176,0.757,0.176v0.787c-1.077-0.08-1.918-0.121-2.524-0.121
		c-0.612,0-1.511,0.041-2.696,0.121c0.074-0.545,0.111-1.006,0.111-1.383v-4.736c0-0.404-0.075-0.691-0.227-0.863
		c-0.152-0.172-0.423-0.258-0.813-0.258c-0.384,0-0.69,0.125-0.919,0.375c-0.229,0.248-0.343,0.602-0.343,1.059v4.303
		c0,0.297,0.096,0.49,0.287,0.58c0.192,0.092,0.423,0.137,0.692,0.137v0.787c-1.468-0.08-2.481-0.121-3.04-0.121
		c-0.565,0-1.582,0.041-3.05,0.121v-0.787c0.27,0,0.5-0.043,0.692-0.131c0.191-0.088,0.287-0.283,0.287-0.586v-6.514
		c0-0.443-0.326-0.666-0.979-0.666v-0.787c0.728-0.053,1.604-0.182,2.631-0.383C115.292,131.916,116.139,131.688,116.806,131.432
		 M85.31,131.432c0.021,0.445,0.016,1.209-0.015,2.291c-0.03,1.084-0.046,1.689-0.046,1.818v4.736c0,0.369,0.074,0.613,0.223,0.732
		c0.147,0.117,0.4,0.176,0.757,0.176v0.787c-1.131-0.08-1.985-0.121-2.564-0.121c-0.525,0-1.312,0.041-2.363,0.121v-1.584h-0.04
		c-0.229,0.402-0.496,0.746-0.803,1.029s-0.655,0.502-1.045,0.656c-0.391,0.154-0.802,0.232-1.232,0.232
		c-1.07,0-1.92-0.289-2.55-0.869c-0.629-0.578-0.944-1.514-0.944-2.807v-4.676c0-0.443-0.326-0.666-0.979-0.666v-0.787
		c0.728-0.053,1.604-0.182,2.631-0.383c1.026-0.203,1.873-0.432,2.54-0.688c0,0.641-0.002,1.143-0.006,1.51
		c-0.003,0.367-0.008,0.844-0.015,1.434c-0.007,0.588-0.016,1.184-0.025,1.787c-0.01,0.602-0.015,1.1-0.015,1.488
		c0,0.641,0.092,1.08,0.277,1.318c0.185,0.24,0.479,0.359,0.884,0.359c0.35,0,0.627-0.127,0.833-0.379
		c0.205-0.252,0.308-0.629,0.308-1.127v-3.867c0-0.443-0.326-0.666-0.979-0.666v-0.787c0.728-0.053,1.604-0.182,2.631-0.383
		C83.797,131.916,84.644,131.688,85.31,131.432 M104.82,131.887c1.198,0,2.215,0.195,3.05,0.586c0.835,0.389,1.459,0.93,1.873,1.619
		s0.621,1.477,0.621,2.357c0,0.418-0.02,0.764-0.061,1.041h-6.533c0,0.842,0.261,1.439,0.782,1.797
		c0.522,0.357,1.237,0.535,2.146,0.535c0.518,0,1.068-0.1,1.65-0.297c0.583-0.199,1.096-0.443,1.54-0.732l-0.293,2.424
		c-0.64,0.383-1.285,0.66-1.938,0.832s-1.612,0.258-2.878,0.258c-0.916,0-1.745-0.143-2.489-0.43
		c-0.744-0.285-1.356-0.672-1.838-1.156s-0.843-1.039-1.085-1.666c-0.242-0.625-0.364-1.271-0.364-1.939
		c0-0.793,0.146-1.52,0.439-2.176s0.705-1.211,1.237-1.666c0.531-0.453,1.152-0.799,1.863-1.033
		C103.253,132.004,104.012,131.887,104.82,131.887 M103.598,135.752h2.999c-0.014-0.477-0.14-0.889-0.378-1.236
		c-0.239-0.346-0.602-0.52-1.086-0.52c-0.491,0-0.87,0.162-1.136,0.484C103.731,134.803,103.598,135.229,103.598,135.752
		 M66.892,131.887c1.198,0,2.215,0.195,3.05,0.586c0.835,0.389,1.459,0.93,1.873,1.619s0.621,1.477,0.621,2.357
		c0,0.418-0.02,0.764-0.061,1.041h-6.533c0,0.842,0.261,1.439,0.782,1.797c0.522,0.357,1.237,0.535,2.146,0.535
		c0.518,0,1.068-0.1,1.65-0.297c0.583-0.199,1.096-0.443,1.54-0.732l-0.293,2.424c-0.64,0.383-1.285,0.66-1.938,0.832
		s-1.612,0.258-2.878,0.258c-0.916,0-1.745-0.143-2.489-0.43c-0.744-0.285-1.356-0.672-1.838-1.156s-0.843-1.039-1.085-1.666
		c-0.242-0.625-0.364-1.271-0.364-1.939c0-0.793,0.146-1.52,0.439-2.176s0.705-1.211,1.237-1.666
		c0.531-0.453,1.152-0.799,1.863-1.033C65.326,132.004,66.084,131.887,66.892,131.887 M65.67,135.752h2.999
		c-0.014-0.477-0.14-0.889-0.378-1.236c-0.239-0.346-0.602-0.52-1.086-0.52c-0.491,0-0.87,0.162-1.136,0.484
		C65.803,134.803,65.67,135.229,65.67,135.752 M98.67,132.219v0.777c-0.27,0-0.481,0.068-0.637,0.201
		c-0.154,0.135-0.326,0.482-0.515,1.041l-2.443,7.734h-4.958l-2.616-8.432c-0.067-0.223-0.177-0.371-0.328-0.449
		c-0.151-0.076-0.358-0.115-0.621-0.115v-0.758c1.468,0.082,2.565,0.121,3.292,0.121c0.761,0,1.828-0.039,3.201-0.121v0.777
		c-0.403,0-0.659,0.059-0.768,0.178c-0.107,0.117-0.161,0.273-0.161,0.469c0,0.242,0.104,0.73,0.312,1.465l1.091,4.018h0.051
		l1.03-3.867c0.222-0.801,0.333-1.305,0.333-1.514c0-0.27-0.071-0.461-0.212-0.576c-0.142-0.115-0.367-0.172-0.677-0.172v-0.777
		c0.902,0.082,1.605,0.121,2.11,0.121C96.728,132.34,97.566,132.301,98.67,132.219 M59.571,22.325L59.571,22.325
		c-0.073,0-0.146,0.002-0.218,0.006c-0.54,0.031-1.066,0.171-1.571,0.415c-0.482,0.233-0.909,0.554-1.268,0.951
		c-0.357,0.396-0.634,0.851-0.821,1.352c-0.007,0.02-0.015,0.04-0.022,0.06l-0.075-0.115c-0.152-0.235-0.395-0.396-0.669-0.443
		c-0.057-0.01-0.114-0.015-0.171-0.015c-0.218,0-0.433,0.071-0.608,0.206c-0.453,0.348-0.652,0.486-0.74,0.543
		c-0.101,0.064-0.326,0.199-0.857,0.488c-0.244,0.133-0.422,0.361-0.491,0.631c-0.011,0.043-0.019,0.086-0.024,0.13
		c-0.099-0.031-0.2-0.047-0.302-0.047c-0.212,0-0.422,0.067-0.598,0.198c-0.439,0.328-0.748,0.549-0.915,0.656
		c-0.19,0.123-0.564,0.343-1.146,0.672c-0.168,0.096-0.304,0.237-0.393,0.405c-0.198,0.036-0.383,0.132-0.528,0.276
		c-0.402,0.4-0.586,0.57-0.669,0.642c-0.07,0.059-0.273,0.221-0.778,0.587c-0.226,0.164-0.373,0.414-0.406,0.69
		c-0.005,0.044-0.008,0.087-0.007,0.131c-0.058-0.011-0.117-0.016-0.175-0.016c-0.258,0-0.509,0.1-0.699,0.284
		c-0.498,0.486-0.73,0.693-0.824,0.773c-0.173,0.146-0.525,0.421-1.044,0.812c-0.22,0.166-0.362,0.415-0.393,0.688
		c-0.03,0.274,0.054,0.548,0.232,0.758l0.228,0.268c0.198,0.232,0.479,0.353,0.762,0.353c0.031,0,0.062-0.001,0.094-0.004
		l0.628,0.739l-2.299-1.029c-0.132-0.059-0.271-0.087-0.408-0.087c-0.297,0-0.587,0.133-0.782,0.376
		c-0.511,0.641-0.757,0.93-0.874,1.06c-0.214,0.238-0.558,0.592-0.992,1.021c-0.196,0.194-0.303,0.46-0.296,0.735
		c0.007,0.276,0.127,0.537,0.333,0.721l0.262,0.234c0.184,0.164,0.421,0.255,0.667,0.255c0.005,0,0.01,0,0.015,0l1.849,3.165
		c0.037,0.063,0.069,0.121,0.098,0.173c-0.104,0.357-0.002,0.759,0.293,1.024l0.262,0.234c0.184,0.165,0.422,0.255,0.667,0.255
		c0.032,0,0.064-0.002,0.097-0.005c0.278-0.026,0.533-0.169,0.701-0.393c0.302-0.399,0.466-0.596,0.551-0.689
		c0.167-0.186,0.405-0.424,0.687-0.688c0.204-0.192,0.318-0.461,0.314-0.741c-0.001-0.06-0.007-0.118-0.018-0.176
		c0.027,0.002,0.054,0.003,0.081,0.003c0.027,0,0.055-0.001,0.083-0.003c0.274-0.023,0.527-0.158,0.699-0.373
		c0.384-0.482,0.664-0.818,0.853-1.029c0.175-0.195,0.396-0.427,0.662-0.697c0.042-0.031,0.081-0.064,0.117-0.102
		c0.266-0.27,0.471-0.466,0.609-0.583c0.175-0.148,0.467-0.373,0.867-0.667c0.223-0.163,0.369-0.413,0.401-0.688
		c0.033-0.275-0.05-0.552-0.229-0.764l-0.098-0.116c0.29,0.079,0.57,0.155,0.841,0.228c0.085,0.023,0.172,0.034,0.259,0.034
		c0.234,0,0.464-0.082,0.647-0.237l1.015-0.861c0.063-0.054,0.119-0.114,0.166-0.18c0.076-0.033,0.148-0.076,0.215-0.128
		c0.299-0.233,0.529-0.402,0.683-0.502c0.135-0.086,0.417-0.256,0.943-0.546c0.243-0.133,0.419-0.361,0.487-0.63
		s0.022-0.553-0.127-0.786L55.32,32.09l0,0l0.8,0.334c0.125,0.053,0.256,0.078,0.387,0.078c0.19,0,0.379-0.054,0.543-0.16
		l1.118-0.723c0.38-0.246,0.539-0.707,0.417-1.121c0.214,0.052,0.433,0.086,0.657,0.103c0.104,0.008,0.211,0.013,0.317,0.013
		c0.607,0,1.201-0.138,1.764-0.41c0.484-0.235,0.913-0.554,1.274-0.946c0.358-0.388,0.64-0.833,0.833-1.321
		c0.196-0.5,0.289-1.028,0.274-1.571c-0.014-0.552-0.151-1.099-0.407-1.625c-0.25-0.517-0.583-0.966-0.987-1.336
		c-0.414-0.378-0.88-0.661-1.387-0.842C60.491,22.405,60.035,22.325,59.571,22.325L59.571,22.325z M59.945,27.034
		c-0.091-0.092-0.18-0.195-0.266-0.311c-0.222-0.299-0.395-0.575-0.513-0.821c-0.007-0.015-0.014-0.029-0.021-0.043
		c0.147,0.148,0.284,0.313,0.406,0.492c0.144,0.207,0.257,0.396,0.339,0.566C59.911,26.959,59.929,26.997,59.945,27.034
		L59.945,27.034z M113.322,22.582c-0.002,0-0.026,0-0.028,0c-0.374,0.002-0.715,0.213-0.885,0.546
		c-0.23,0.452-0.499,0.899-0.797,1.329c-0.165,0.237-0.219,0.535-0.148,0.815c0.071,0.279,0.259,0.516,0.517,0.646l0.431,0.219
		c0.144,0.073,0.299,0.108,0.452,0.108c0.274,0,0.544-0.112,0.738-0.325c0.018-0.02,0.036-0.037,0.054-0.054
		c-0.004,0.009-0.009,0.018-0.013,0.026c-0.091,0.179-0.202,0.317-0.338,0.421c-0.153,0.118-0.319,0.201-0.508,0.255
		c-0.234,0.065-0.489,0.105-0.751,0.117c-0.118,0.006-0.237,0.008-0.358,0.008c-0.194,0-0.392-0.007-0.594-0.021
		c-0.024-0.002-0.049-0.003-0.074-0.003c-0.354,0-0.683,0.188-0.863,0.495l-0.467,0.799c-0.139,0.238-0.174,0.521-0.096,0.786
		c0.077,0.264,0.26,0.484,0.504,0.609l4.248,2.17c0.146,0.074,0.301,0.109,0.455,0.109c0.16,0,0.318-0.038,0.46-0.111
		c0.076,0.2,0.173,0.396,0.292,0.586c0.279,0.447,0.681,0.842,1.194,1.175c0.511,0.335,1.038,0.543,1.563,0.616
		c0.162,0.021,0.316,0.032,0.467,0.032c0.299,0,0.592-0.041,0.874-0.122c-0.173,0.213-0.252,0.486-0.218,0.759
		c0.035,0.272,0.18,0.519,0.402,0.681c0.512,0.376,0.888,0.662,1.149,0.876c0.277,0.229,0.691,0.592,1.23,1.08
		c0.166,0.15,0.376,0.239,0.596,0.256c-0.036,0.267,0.037,0.544,0.216,0.764c0.2,0.245,0.37,0.442,0.512,0.591
		c0.356,0.372,0.772,0.72,1.236,1.032c0.472,0.317,0.978,0.568,1.504,0.747c0.435,0.147,0.871,0.223,1.296,0.223
		c0.139,0,0.277-0.009,0.414-0.024c0.628-0.075,1.183-0.341,1.652-0.79c0.403-0.386,0.655-0.841,0.75-1.354
		c0.016-0.088,0.028-0.176,0.035-0.265c0.197-0.011,0.392-0.081,0.557-0.21l0.17-0.134l0.155-0.121l0.282-0.208
		c0.123-0.091,0.245-0.174,0.364-0.253c0.246-0.164,0.407-0.429,0.439-0.723c0.032-0.294-0.067-0.587-0.272-0.801l-3.043-3.178
		c-0.196-0.205-0.458-0.309-0.723-0.309c-0.233,0-0.466,0.081-0.655,0.245c-0.266,0.23-0.543,0.472-0.833,0.72l-0.086,0.073
		c-0.256,0.218-0.493,0.419-0.713,0.604c-0.251,0.211-0.497,0.422-0.74,0.632c-0.267,0.23-0.392,0.584-0.33,0.931
		c0.062,0.347,0.301,0.636,0.631,0.761c0.178,0.067,0.372,0.21,0.576,0.423c0.062,0.065,0.115,0.13,0.157,0.195
		c-0.191-0.043-0.38-0.121-0.575-0.238c-0.3-0.18-0.584-0.382-0.849-0.605c-0.181-0.152-0.41-0.235-0.645-0.235
		c-0.039,0-0.077,0.002-0.116,0.007c-0.031,0.004-0.062,0.009-0.092,0.015c-0.011-0.048-0.025-0.096-0.043-0.142l0.599-0.719
		l0.953-1.141l0.064-0.077c0.311-0.37,0.58-0.691,0.81-0.96l0.808-0.953c0.213-0.252,0.288-0.592,0.201-0.91
		s-0.326-0.573-0.638-0.681c-0.415-0.144-0.825-0.316-1.22-0.516c-0.397-0.199-0.785-0.421-1.154-0.662
		c-0.167-0.109-0.357-0.162-0.545-0.162c-0.29,0-0.576,0.126-0.772,0.364l-0.224,0.271c-0.008,0.01-0.016,0.021-0.024,0.03
		c0.032-0.236,0.041-0.471,0.027-0.702c-0.032-0.515-0.193-1.01-0.48-1.472c-0.278-0.446-0.679-0.842-1.193-1.179
		c-0.516-0.334-1.038-0.54-1.558-0.615c-0.165-0.023-0.322-0.034-0.477-0.034l0,0c-0.373,0-0.735,0.064-1.079,0.191
		c-0.09,0.034-0.179,0.071-0.267,0.112c-0.008-0.14-0.028-0.28-0.06-0.42c-0.123-0.539-0.39-1.029-0.796-1.459
		c-0.359-0.379-0.785-0.695-1.267-0.942C114.938,22.791,114.122,22.582,113.322,22.582L113.322,22.582z M121.983,31.951
		c0.028-0.041,0.056-0.082,0.083-0.124c0.28-0.443,0.494-0.884,0.643-1.32c0.024,0.135,0.077,0.263,0.152,0.376L121.983,31.951
		L121.983,31.951z M120.846,33.195c0.091-0.069,0.179-0.144,0.266-0.223c0.052-0.048,0.104-0.097,0.155-0.148l-0.325,0.396
		C120.91,33.21,120.878,33.202,120.846,33.195L120.846,33.195z M135.109,127.459c-1.119,0-2.195,0.436-2.953,1.193
		c-0.79,0.791-1.224,1.841-1.224,2.955c0,0.293,0.031,0.583,0.092,0.866c-0.878,0.229-1.683,0.688-2.342,1.346
		c-0.975,0.976-1.512,2.273-1.511,3.655c0,1.382,0.537,2.679,1.512,3.653c0.976,0.976,2.273,1.513,3.653,1.513
		c1.378,0,2.675-0.537,3.651-1.511c0.978-0.977,1.516-2.274,1.515-3.656c0-0.746-0.167-1.48-0.484-2.155
		c0.384-0.194,0.735-0.448,1.045-0.757c0.79-0.789,1.225-1.837,1.225-2.952c0.001-1.115-0.434-2.166-1.225-2.957
		C137.305,127.895,136.229,127.459,135.109,127.459L135.109,127.459z M135.11,132.401c-0.225,0-0.435-0.08-0.575-0.221
		c-0.157-0.156-0.238-0.353-0.238-0.573s0.083-0.421,0.238-0.577c0.155-0.154,0.354-0.237,0.574-0.237s0.419,0.083,0.576,0.239
		c0.155,0.155,0.237,0.354,0.237,0.575c0,0.22-0.082,0.418-0.237,0.572C135.543,132.322,135.335,132.401,135.11,132.401
		L135.11,132.401z M132.334,139.249c-0.492,0-0.957-0.183-1.275-0.501c-0.34-0.34-0.527-0.792-0.527-1.274s0.187-0.935,0.527-1.274
		c0.34-0.34,0.793-0.527,1.275-0.527c0.481,0,0.934,0.188,1.275,0.526c0.339,0.341,0.527,0.795,0.527,1.276
		c0,0.48-0.188,0.934-0.53,1.276C133.291,139.066,132.827,139.249,132.334,139.249L132.334,139.249z M37.491,127.459L37.491,127.459
		c-1.12,0-2.196,0.436-2.953,1.194c-0.79,0.79-1.225,1.841-1.224,2.957c0,1.114,0.435,2.162,1.225,2.949
		c0.312,0.312,0.665,0.566,1.052,0.762c-0.882,1.916-0.528,4.255,1.023,5.808c0.977,0.975,2.273,1.512,3.653,1.512
		c1.38,0,2.677-0.537,3.653-1.514c0.974-0.974,1.511-2.271,1.511-3.652s-0.537-2.68-1.511-3.654
		c-0.659-0.659-1.464-1.118-2.343-1.347c0.061-0.283,0.091-0.573,0.091-0.866c0-1.115-0.434-2.165-1.223-2.954
		C39.687,127.895,38.61,127.459,37.491,127.459L37.491,127.459L37.491,127.459z M37.494,132.401c-0.226,0-0.436-0.08-0.577-0.222
		c-0.157-0.155-0.239-0.353-0.239-0.572c0-0.221,0.083-0.42,0.238-0.575c0.157-0.157,0.355-0.239,0.575-0.239
		s0.418,0.082,0.574,0.238c0.155,0.156,0.238,0.355,0.238,0.576c0,0.22-0.082,0.418-0.237,0.573
		C37.926,132.322,37.718,132.401,37.494,132.401L37.494,132.401z M40.267,139.249c-0.492,0-0.957-0.183-1.276-0.5
		c-0.701-0.702-0.701-1.848,0.002-2.553c0.339-0.337,0.792-0.524,1.274-0.524c0.482,0,0.935,0.187,1.275,0.526
		c0.703,0.703,0.703,1.847,0,2.55C41.224,139.066,40.759,139.249,40.267,139.249L40.267,139.249z M55.441,127.615
		c-0.016,0-0.032,0-0.047,0.001c-1.813,0.086-3.085,0.13-3.78,0.13c-0.639,0-1.64-0.043-2.975-0.129
		c-0.021-0.001-0.043-0.002-0.064-0.002c-0.253,0-0.498,0.097-0.684,0.271c-0.202,0.189-0.316,0.453-0.316,0.729v0.787
		c0,0.553,0.448,1,1,1c0.002,0,0.005,0,0.007,0l0.002,9.662c-0.003,0-0.006,0-0.01,0c-0.552,0-1,0.447-1,1v0.787
		c0,0.553,0.448,1,1,1h11.229c0.552,0,1-0.447,1-1c0-0.529,0.019-1.014,0.057-1.441c0.006-0.072,0.013-0.142,0.02-0.211
		c0.254,0.444,0.567,0.855,0.936,1.227c0.582,0.585,1.319,1.051,2.189,1.385c0.852,0.329,1.811,0.496,2.847,0.496
		c1.364,0,2.389-0.095,3.132-0.291c0.74-0.194,1.479-0.511,2.198-0.94c0.265-0.159,0.442-0.432,0.479-0.738l0.293-2.424
		c0.023-0.192-0.01-0.383-0.09-0.551c0.263-0.146,0.454-0.41,0.5-0.726c0.048-0.324,0.071-0.713,0.071-1.188
		c0-1.062-0.257-2.028-0.764-2.872c-0.518-0.862-1.295-1.539-2.309-2.011c-0.963-0.451-2.131-0.68-3.472-0.68
		c-0.913,0-1.786,0.136-2.592,0.404c-0.826,0.272-1.566,0.684-2.196,1.222c-0.645,0.551-1.149,1.229-1.501,2.02
		c-0.242,0.542-0.402,1.127-0.477,1.745h-0.635c-0.477,0-0.887,0.337-0.98,0.804c-0.098,0.491-0.25,0.911-0.453,1.248
		c-0.049,0.082-0.301,0.171-0.737,0.171h-2.222v-8.081c0.083-0.01,0.194-0.017,0.343-0.017c0.552,0,1-0.447,1-1v-0.787
		c0-0.273-0.112-0.535-0.31-0.724C55.945,127.714,55.697,127.615,55.441,127.615L55.441,127.615z M67.232,138.49h3.111
		c-0.08,0.03-0.162,0.061-0.246,0.089c-0.476,0.161-0.923,0.243-1.327,0.243C68.099,138.822,67.582,138.711,67.232,138.49
		L67.232,138.49z M116.806,130.432c-0.121,0-0.242,0.021-0.358,0.066c-0.607,0.233-1.407,0.448-2.376,0.64
		c-0.991,0.194-1.835,0.318-2.509,0.367c-0.523,0.037-0.928,0.473-0.928,0.997v0.787c0,0.546,0.437,0.989,0.979,1v5.896
		c-0.543,0.011-0.979,0.454-0.979,1v0.787c0,0.274,0.113,0.537,0.312,0.727c0.186,0.176,0.433,0.273,0.688,0.273
		c0.018,0,0.036-0.001,0.055-0.001c1.455-0.08,2.462-0.12,2.995-0.12c0.526,0,1.531,0.04,2.985,0.12
		c0.019,0,0.037,0.001,0.055,0.001c0.219,0,0.432-0.072,0.605-0.204c0.173,0.132,0.386,0.204,0.605,0.204
		c0.022,0,0.045-0.001,0.067-0.002c1.167-0.079,2.052-0.119,2.629-0.119c0.57,0,1.394,0.04,2.45,0.118
		c0.025,0.002,0.05,0.003,0.074,0.003c0.251,0,0.495-0.095,0.68-0.268c0.204-0.188,0.32-0.454,0.32-0.732v-0.787
		c0-0.266-0.105-0.52-0.293-0.707c-0.183-0.183-0.429-0.287-0.687-0.293v-4.645c0-3.001-1.56-4.654-4.393-4.654
		c-0.679,0-1.346,0.145-1.985,0.429c-0.032-0.271-0.174-0.521-0.398-0.688C117.227,130.499,117.018,130.432,116.806,130.432
		L116.806,130.432z M117.746,140.186l0-4.02c0-0.219,0.042-0.342,0.078-0.381c0.02-0.021,0.048-0.053,0.184-0.053
		c0.013,0,0.025,0,0.036,0c0.002,0.034,0.004,0.074,0.004,0.121v4.385C117.953,140.206,117.852,140.188,117.746,140.186
		L117.746,140.186z M78.878,130.432c-0.121,0-0.242,0.021-0.358,0.066c-0.607,0.233-1.407,0.448-2.376,0.64
		c-0.991,0.194-1.835,0.318-2.509,0.367c-0.523,0.037-0.928,0.473-0.928,0.997v0.787c0,0.546,0.437,0.989,0.979,1v4.342
		c0,1.577,0.426,2.77,1.268,3.543c0.816,0.751,1.902,1.133,3.227,1.133c0.554,0,1.092-0.102,1.6-0.303
		c0.266-0.104,0.519-0.234,0.756-0.387c0.026,0.031,0.055,0.061,0.085,0.089c0.186,0.172,0.429,0.267,0.68,0.267
		c0.025,0,0.051-0.001,0.076-0.003c1.029-0.078,1.798-0.118,2.287-0.118c0.543,0,1.383,0.04,2.494,0.118
		c0.024,0.002,0.047,0.003,0.071,0.003c0.252,0,0.496-0.096,0.682-0.269c0.203-0.188,0.318-0.454,0.318-0.731v-0.787
		c0-0.546-0.437-0.989-0.979-1v-4.645c0-0.119,0.014-0.651,0.04-1.6c0.084,0.023,0.172,0.035,0.263,0.035c0.013,0,0.025,0,0.037,0
		l2.573,8.292c0.13,0.419,0.517,0.704,0.955,0.704h4.958c0.436,0,0.822-0.283,0.954-0.699l2.443-7.734
		c0.096-0.283,0.169-0.45,0.216-0.543c0.04-0.001,0.08-0.004,0.119-0.009c-0.101,0.175-0.193,0.356-0.277,0.545
		c-0.349,0.782-0.526,1.651-0.526,2.583c0,0.787,0.146,1.562,0.432,2.301c0.291,0.752,0.731,1.429,1.308,2.01
		c0.582,0.585,1.319,1.051,2.189,1.385c0.852,0.329,1.811,0.496,2.847,0.496c1.364,0,2.389-0.095,3.132-0.291
		c0.74-0.194,1.479-0.511,2.198-0.94c0.265-0.159,0.442-0.432,0.479-0.738l0.293-2.424c0.023-0.192-0.01-0.383-0.09-0.551
		c0.263-0.146,0.454-0.41,0.5-0.726c0.048-0.324,0.071-0.713,0.071-1.188c0-1.062-0.257-2.028-0.764-2.872
		c-0.518-0.862-1.295-1.539-2.309-2.011c-0.963-0.451-2.131-0.68-3.472-0.68c-0.914,0-1.786,0.136-2.592,0.404
		c-0.826,0.272-1.566,0.684-2.196,1.222c-0.125,0.107-0.246,0.22-0.361,0.337v-0.631c0-0.278-0.116-0.544-0.319-0.732
		c-0.186-0.173-0.429-0.268-0.681-0.268c-0.024,0-0.049,0.001-0.074,0.003c-1.057,0.078-1.878,0.118-2.44,0.118
		c-0.486,0-1.166-0.039-2.02-0.117c-0.03-0.003-0.06-0.004-0.09-0.004c-0.176,0-0.349,0.047-0.5,0.134
		c-0.151-0.087-0.323-0.134-0.5-0.134c-0.02,0-0.04,0.001-0.06,0.002c-1.325,0.079-2.382,0.119-3.142,0.119
		c-0.728,0-1.817-0.04-3.236-0.119c-0.019-0.001-0.037-0.002-0.056-0.002c-0.088,0-0.175,0.012-0.258,0.034
		c-0.049-0.269-0.206-0.507-0.437-0.658c-0.165-0.107-0.355-0.163-0.547-0.163c-0.121,0-0.243,0.022-0.358,0.066
		c-0.606,0.232-1.405,0.448-2.375,0.64c-0.991,0.194-1.835,0.318-2.509,0.367c-0.065,0.004-0.128,0.016-0.189,0.032
		c0-0.035,0-0.07,0-0.105c0-0.329-0.162-0.638-0.434-0.824C79.276,130.491,79.078,130.432,78.878,130.432L78.878,130.432z
		 M93.174,133.988c0.134-0.018,0.259-0.062,0.371-0.126c0.104,0.061,0.221,0.103,0.345,0.122c-0.039,0.189-0.113,0.5-0.253,1.007
		l-0.101,0.378l-0.143-0.523C93.281,134.446,93.214,134.172,93.174,133.988L93.174,133.988z M79.879,138.322
		c-0.02-0.076-0.061-0.275-0.061-0.672c0-0.385,0.005-0.877,0.015-1.472c0.01-0.605,0.019-1.203,0.025-1.792
		c0-0.047,0.001-0.093,0.001-0.138c0.083,0.024,0.17,0.038,0.26,0.04v3.533c0,0.383-0.083,0.495-0.083,0.496
		c0,0.004-0.017,0.01-0.058,0.01C79.935,138.328,79.902,138.325,79.879,138.322L79.879,138.322z M105.16,138.49h3.111
		c-0.08,0.03-0.162,0.061-0.246,0.089c-0.476,0.161-0.923,0.243-1.327,0.243C106.027,138.822,105.51,138.711,105.16,138.49
		L105.16,138.49z"/>
</g>
<g>
	<path fill="#1D1D1B" d="M49.584,140.195v-9.924c0-0.58-0.337-0.869-1.01-0.869v-0.787c1.373,0.088,2.387,0.131,3.039,0.131
		c0.7,0,1.976-0.043,3.827-0.131v0.787c-0.464,0-0.805,0.059-1.02,0.176c-0.216,0.119-0.323,0.391-0.323,0.814v9.107h3.222
		c0.801,0,1.332-0.219,1.595-0.656s0.455-0.961,0.576-1.566h0.787c-0.135,0.875-0.227,1.488-0.277,1.838s-0.096,0.752-0.137,1.207
		c-0.04,0.455-0.061,0.965-0.061,1.529H48.575v-0.787c0.303,0,0.547-0.059,0.732-0.176C49.492,140.77,49.584,140.539,49.584,140.195
		z"/>
</g>
<g>
	<path fill="#1D1D1B" d="M72.375,137.49h-6.533c0,0.842,0.261,1.439,0.782,1.797c0.522,0.357,1.237,0.535,2.146,0.535
		c0.518,0,1.068-0.1,1.65-0.297c0.583-0.199,1.096-0.443,1.54-0.732l-0.293,2.424c-0.64,0.383-1.285,0.66-1.938,0.832
		s-1.612,0.258-2.878,0.258c-0.916,0-1.745-0.143-2.489-0.43c-0.744-0.285-1.356-0.672-1.838-1.156s-0.843-1.039-1.085-1.666
		c-0.242-0.625-0.364-1.271-0.364-1.939c0-0.793,0.146-1.52,0.439-2.176s0.705-1.211,1.237-1.666
		c0.531-0.453,1.152-0.799,1.863-1.033c0.71-0.236,1.469-0.354,2.276-0.354c1.198,0,2.215,0.195,3.05,0.586
		c0.835,0.389,1.459,0.93,1.873,1.619s0.621,1.477,0.621,2.357C72.436,136.867,72.417,137.213,72.375,137.49z M65.67,135.752h2.999
		c-0.014-0.477-0.14-0.889-0.378-1.236c-0.239-0.346-0.602-0.52-1.086-0.52c-0.491,0-0.87,0.162-1.136,0.484
		C65.803,134.803,65.67,135.229,65.67,135.752z"/>
</g>
<g>
	<path fill="#1D1D1B" d="M73.708,133.289v-0.787c0.728-0.053,1.604-0.182,2.631-0.383c1.026-0.203,1.873-0.432,2.54-0.688
		c0,0.641-0.002,1.143-0.006,1.51c-0.003,0.367-0.008,0.844-0.015,1.434c-0.007,0.588-0.016,1.184-0.025,1.787
		c-0.01,0.602-0.015,1.1-0.015,1.488c0,0.641,0.092,1.08,0.277,1.318c0.185,0.24,0.479,0.359,0.884,0.359
		c0.35,0,0.627-0.127,0.833-0.379c0.205-0.252,0.308-0.629,0.308-1.127v-3.867c0-0.443-0.326-0.666-0.979-0.666v-0.787
		c0.728-0.053,1.604-0.182,2.631-0.383c1.026-0.203,1.873-0.432,2.539-0.688c0.021,0.445,0.016,1.209-0.015,2.291
		c-0.03,1.084-0.046,1.689-0.046,1.818v4.736c0,0.369,0.074,0.613,0.223,0.732c0.147,0.117,0.4,0.176,0.757,0.176v0.787
		c-1.131-0.08-1.985-0.121-2.564-0.121c-0.525,0-1.312,0.041-2.363,0.121v-1.584h-0.04c-0.229,0.402-0.496,0.746-0.803,1.029
		s-0.655,0.502-1.045,0.656c-0.391,0.154-0.802,0.232-1.232,0.232c-1.07,0-1.92-0.289-2.55-0.869
		c-0.629-0.578-0.944-1.514-0.944-2.807v-4.676C74.687,133.512,74.361,133.289,73.708,133.289z"/>
</g>
<g>
	<path fill="#1D1D1B" d="M90.118,141.973l-2.616-8.432c-0.067-0.223-0.177-0.371-0.328-0.449c-0.151-0.076-0.358-0.115-0.621-0.115
		v-0.758c1.468,0.082,2.565,0.121,3.292,0.121c0.761,0,1.828-0.039,3.201-0.121v0.777c-0.403,0-0.659,0.059-0.768,0.178
		c-0.107,0.117-0.161,0.273-0.161,0.469c0,0.242,0.104,0.73,0.312,1.465l1.091,4.018h0.051l1.03-3.867
		c0.222-0.801,0.333-1.305,0.333-1.514c0-0.27-0.071-0.461-0.212-0.576c-0.142-0.115-0.367-0.172-0.677-0.172v-0.777
		c0.902,0.082,1.605,0.121,2.11,0.121c0.572,0,1.41-0.039,2.515-0.121v0.777c-0.27,0-0.481,0.068-0.637,0.201
		c-0.154,0.135-0.326,0.482-0.515,1.041l-2.443,7.734H90.118z"/>
</g>
<g>
	<path fill="#1D1D1B" d="M110.303,137.49h-6.533c0,0.842,0.261,1.439,0.782,1.797c0.522,0.357,1.237,0.535,2.146,0.535
		c0.518,0,1.068-0.1,1.65-0.297c0.583-0.199,1.096-0.443,1.54-0.732l-0.293,2.424c-0.64,0.383-1.285,0.66-1.938,0.832
		s-1.612,0.258-2.878,0.258c-0.916,0-1.745-0.143-2.489-0.43c-0.744-0.285-1.356-0.672-1.838-1.156s-0.843-1.039-1.085-1.666
		c-0.242-0.625-0.364-1.271-0.364-1.939c0-0.793,0.146-1.52,0.439-2.176s0.705-1.211,1.237-1.666
		c0.531-0.453,1.152-0.799,1.863-1.033c0.71-0.236,1.469-0.354,2.276-0.354c1.198,0,2.215,0.195,3.05,0.586
		c0.835,0.389,1.459,0.93,1.873,1.619s0.621,1.477,0.621,2.357C110.364,136.867,110.344,137.213,110.303,137.49z M103.598,135.752
		h2.999c-0.014-0.477-0.14-0.889-0.378-1.236c-0.239-0.346-0.602-0.52-1.086-0.52c-0.491,0-0.87,0.162-1.136,0.484
		C103.731,134.803,103.598,135.229,103.598,135.752z"/>
</g>
<g>
	<path fill="#1D1D1B" d="M111.635,141.973v-0.787c0.27,0,0.5-0.043,0.692-0.131c0.191-0.088,0.287-0.283,0.287-0.586v-6.514
		c0-0.443-0.326-0.666-0.979-0.666v-0.787c0.728-0.053,1.604-0.182,2.631-0.383c1.026-0.203,1.873-0.432,2.54-0.688
		c-0.021,0.289-0.058,0.633-0.111,1.031c-0.054,0.395-0.084,0.699-0.091,0.906h0.04c0.425-0.463,0.909-0.826,1.454-1.09
		c0.546-0.262,1.107-0.393,1.687-0.393c2.262,0,3.393,1.217,3.393,3.654v4.736c0,0.369,0.074,0.613,0.223,0.732
		c0.147,0.117,0.4,0.176,0.757,0.176v0.787c-1.077-0.08-1.918-0.121-2.524-0.121c-0.612,0-1.511,0.041-2.696,0.121
		c0.074-0.545,0.111-1.006,0.111-1.383v-4.736c0-0.404-0.075-0.691-0.227-0.863c-0.152-0.172-0.423-0.258-0.813-0.258
		c-0.384,0-0.69,0.125-0.919,0.375c-0.229,0.248-0.343,0.602-0.343,1.059v4.303c0,0.297,0.096,0.49,0.287,0.58
		c0.192,0.092,0.423,0.137,0.692,0.137v0.787c-1.468-0.08-2.481-0.121-3.04-0.121C114.12,141.852,113.103,141.893,111.635,141.973z"
		/>
</g>
<g>
	<path fill="#1D1D1B" d="M43.898,42.537l-0.262-0.234c0.066-0.074,0.105-0.146,0.115-0.217c0.01-0.068-0.008-0.154-0.052-0.256
		c-0.045-0.102-0.131-0.262-0.259-0.484l-1.891-3.236c-0.165-0.275-0.297-0.457-0.396-0.545c-0.056-0.051-0.124-0.064-0.205-0.041
		s-0.16,0.076-0.236,0.162l-0.262-0.234c0.468-0.463,0.812-0.818,1.033-1.064c0.179-0.199,0.482-0.566,0.911-1.104l4.683,2.096
		c0.193,0.086,0.336,0.145,0.428,0.174c0.092,0.031,0.179,0.039,0.261,0.027c0.082-0.014,0.157-0.057,0.226-0.135l0.262,0.236
		c-0.446,0.443-0.797,0.807-1.053,1.092c-0.213,0.236-0.51,0.596-0.892,1.074l-0.261-0.234c0.062-0.07,0.112-0.152,0.147-0.246
		c0.036-0.096,0.022-0.172-0.043-0.229c-0.107-0.098-0.443-0.275-1.008-0.537l-1.275,1.422c0.188,0.307,0.327,0.525,0.415,0.654
		c0.089,0.129,0.164,0.221,0.227,0.277c0.076,0.068,0.152,0.084,0.228,0.047c0.076-0.039,0.158-0.105,0.246-0.203l0.262,0.234
		c-0.317,0.299-0.564,0.549-0.744,0.748C44.363,41.938,44.161,42.189,43.898,42.537z M43.395,39.232l0.932-1.039l-2.188-1.043
		l-0.012,0.014L43.395,39.232z"/>
</g>
<g>
	<path fill="#1D1D1B" d="M48.013,37.941l-0.228-0.268c0.218-0.186,0.224-0.398,0.018-0.641l-2.794-3.291
		c-0.2-0.236-0.409-0.262-0.627-0.078l-0.228-0.268c0.534-0.402,0.898-0.686,1.092-0.85c0.174-0.148,0.465-0.42,0.873-0.818
		c0.3,0.08,0.597,0.16,0.891,0.24s0.621,0.168,0.98,0.268c0.358,0.1,0.665,0.186,0.919,0.256c0.255,0.072,0.525,0.154,0.812,0.246
		l0.001-0.025l-1.426-1.68c-0.129-0.15-0.255-0.225-0.378-0.221c-0.124,0.006-0.256,0.066-0.397,0.188l-0.228-0.268
		c0.412-0.299,0.692-0.512,0.841-0.637c0.142-0.121,0.383-0.352,0.726-0.693l0.228,0.268c-0.081,0.068-0.136,0.156-0.165,0.262
		c-0.03,0.105-0.005,0.205,0.074,0.301l3.392,3.994l-1.015,0.861c-0.408-0.109-0.84-0.227-1.295-0.352
		c-0.455-0.123-0.88-0.238-1.272-0.344c-0.394-0.105-0.788-0.211-1.186-0.312s-0.785-0.197-1.164-0.285l-0.013,0.01l2.144,2.525
		c0.218,0.258,0.481,0.254,0.793-0.012l0.228,0.27c-0.415,0.305-0.723,0.541-0.923,0.711C48.522,37.438,48.298,37.652,48.013,37.941
		z"/>
</g>
<g>
	<path fill="#1D1D1B" d="M52.802,33.893l-0.19-0.297c0.239-0.154,0.273-0.365,0.101-0.633l-2.341-3.627
		c-0.168-0.26-0.372-0.312-0.611-0.158l-0.191-0.295c0.583-0.33,0.98-0.562,1.194-0.701c0.191-0.123,0.516-0.355,0.972-0.695
		c0.287,0.117,0.571,0.236,0.853,0.354s0.593,0.248,0.937,0.393c0.343,0.145,0.636,0.27,0.878,0.375
		c0.242,0.104,0.5,0.221,0.773,0.348l0.004-0.023l-1.194-1.852c-0.107-0.168-0.224-0.256-0.347-0.268s-0.262,0.031-0.418,0.133
		l-0.19-0.295c0.448-0.244,0.753-0.418,0.916-0.523c0.156-0.1,0.426-0.297,0.811-0.592l0.19,0.295
		c-0.089,0.059-0.154,0.137-0.198,0.238c-0.043,0.102-0.031,0.203,0.035,0.307l2.842,4.404l-1.118,0.723
		c-0.391-0.164-0.804-0.336-1.238-0.518c-0.436-0.184-0.841-0.352-1.217-0.508s-0.754-0.311-1.135-0.465
		c-0.381-0.152-0.753-0.297-1.116-0.434l-0.015,0.008l1.796,2.783c0.183,0.283,0.445,0.314,0.788,0.092l0.19,0.297
		c-0.451,0.248-0.787,0.443-1.008,0.584C53.373,33.459,53.123,33.643,52.802,33.893z"/>
</g>
<g>
	<path fill="#1D1D1B" d="M56.742,27.816c-0.191-0.395-0.294-0.801-0.308-1.217c-0.014-0.418,0.051-0.818,0.195-1.201
		c0.144-0.385,0.353-0.729,0.626-1.031s0.594-0.543,0.961-0.721c0.388-0.188,0.784-0.293,1.188-0.316
		c0.404-0.021,0.799,0.035,1.183,0.174c0.384,0.137,0.732,0.35,1.047,0.637c0.313,0.287,0.567,0.633,0.763,1.035
		c0.194,0.4,0.296,0.805,0.307,1.215c0.011,0.412-0.058,0.803-0.205,1.178c-0.147,0.373-0.36,0.711-0.639,1.012
		c-0.278,0.303-0.603,0.543-0.973,0.723c-0.501,0.242-1.024,0.344-1.571,0.301c-0.547-0.041-1.049-0.219-1.506-0.529
		S56.997,28.344,56.742,27.816z M58.266,26.338c0.146,0.303,0.351,0.631,0.611,0.982c0.262,0.352,0.551,0.631,0.868,0.834
		s0.62,0.234,0.908,0.096c0.536-0.26,0.582-0.85,0.137-1.77c-0.104-0.213-0.241-0.445-0.413-0.693
		c-0.171-0.25-0.359-0.475-0.565-0.676c-0.205-0.201-0.428-0.346-0.668-0.438c-0.241-0.09-0.472-0.082-0.692,0.025
		c-0.2,0.098-0.329,0.238-0.385,0.422c-0.057,0.186-0.062,0.383-0.018,0.592C58.094,25.924,58.166,26.133,58.266,26.338z"/>
</g>
<g>
	<path fill="#1D1D1B" d="M114.801,30.639l-4.248-2.17l0.467-0.799c0.369,0.027,0.727,0.031,1.071,0.016s0.671-0.068,0.979-0.154
		c0.309-0.088,0.59-0.229,0.844-0.424s0.46-0.449,0.619-0.76c0.158-0.311,0.234-0.592,0.228-0.846
		c-0.008-0.252-0.145-0.447-0.411-0.584c-0.177-0.09-0.354-0.137-0.531-0.141c-0.178-0.002-0.347,0.037-0.507,0.119
		s-0.31,0.199-0.447,0.35l-0.431-0.219c0.325-0.469,0.613-0.949,0.866-1.445c0.653-0.004,1.317,0.168,1.992,0.512
		c0.382,0.195,0.714,0.441,0.995,0.738c0.282,0.299,0.465,0.629,0.548,0.994s0.029,0.732-0.161,1.105
		c-0.16,0.312-0.385,0.568-0.675,0.77c-0.291,0.201-0.624,0.354-0.999,0.457s-0.748,0.164-1.119,0.184
		c-0.372,0.02-0.745,0.01-1.121-0.031l-0.009,0.016l2.709,1.305C115.386,29.754,115.166,30.09,114.801,30.639z"/>
</g>
<g>
	<path fill="#1D1D1B" d="M116.759,28.373c0.238-0.365,0.502-0.68,0.791-0.941c0.29-0.264,0.602-0.457,0.935-0.582
		c0.332-0.123,0.688-0.158,1.064-0.105c0.377,0.055,0.762,0.209,1.153,0.463c0.394,0.258,0.69,0.547,0.892,0.869
		c0.2,0.322,0.311,0.658,0.332,1.006c0.021,0.35-0.03,0.709-0.156,1.082c-0.125,0.371-0.306,0.744-0.541,1.117
		c-0.244,0.375-0.508,0.693-0.792,0.953s-0.592,0.451-0.924,0.574c-0.332,0.121-0.688,0.156-1.065,0.105
		c-0.378-0.053-0.764-0.207-1.157-0.465c-0.392-0.254-0.688-0.543-0.89-0.865c-0.202-0.324-0.313-0.662-0.335-1.018
		c-0.021-0.354,0.03-0.719,0.155-1.092C116.345,29.1,116.524,28.732,116.759,28.373z M118.797,29.016l-0.625,0.959
		c-0.283,0.436-0.453,0.781-0.508,1.033c-0.056,0.252,0.011,0.439,0.198,0.562c0.186,0.119,0.383,0.105,0.592-0.045
		c0.209-0.152,0.456-0.445,0.741-0.885l0.624-0.959c0.285-0.438,0.454-0.783,0.508-1.035c0.053-0.252-0.013-0.438-0.198-0.559
		c-0.188-0.123-0.386-0.107-0.595,0.045C119.326,28.287,119.08,28.58,118.797,29.016z"/>
</g>
<g>
	<path fill="#1D1D1B" d="M120.425,34.447l0.223-0.271c0.149,0.123,0.285,0.195,0.408,0.219c0.124,0.023,0.237-0.027,0.34-0.152
		l2.512-3.057c0.118-0.145,0.154-0.289,0.108-0.434c-0.047-0.145-0.154-0.287-0.322-0.424l0.224-0.271
		c0.396,0.258,0.812,0.498,1.25,0.717c0.438,0.221,0.886,0.41,1.344,0.568c-0.289,0.342-0.558,0.658-0.805,0.949
		c-0.247,0.289-0.54,0.639-0.881,1.045c-0.34,0.406-0.656,0.785-0.947,1.135s-0.582,0.699-0.873,1.047
		c-0.194,0.236-0.16,0.463,0.104,0.68l-0.224,0.271c-0.552-0.5-0.975-0.871-1.267-1.111
		C121.333,35.123,120.935,34.82,120.425,34.447z"/>
</g>
<g>
	<path fill="#1D1D1B" d="M128.242,35.172l-0.706,0.676c0.49,0.23,0.902,0.52,1.236,0.867c0.242,0.254,0.422,0.535,0.54,0.842
		c0.118,0.309,0.149,0.613,0.094,0.916s-0.208,0.574-0.457,0.812c-0.311,0.297-0.669,0.471-1.076,0.52
		c-0.406,0.047-0.831-0.002-1.274-0.152s-0.865-0.359-1.267-0.629c-0.4-0.27-0.759-0.566-1.072-0.895
		c-0.127-0.133-0.279-0.311-0.459-0.531c0.057-0.08,0.142-0.191,0.254-0.334c0.113-0.145,0.192-0.246,0.237-0.307
		c0.306,0.258,0.631,0.49,0.978,0.697c0.347,0.209,0.698,0.338,1.054,0.391s0.655-0.037,0.898-0.27
		c0.229-0.221,0.301-0.482,0.212-0.783s-0.258-0.582-0.507-0.842c-0.31-0.324-0.625-0.547-0.945-0.668
		c0.239-0.207,0.481-0.414,0.728-0.621c0.247-0.207,0.516-0.436,0.808-0.684c0.292-0.25,0.571-0.492,0.839-0.725l3.043,3.178
		c-0.132,0.088-0.266,0.18-0.398,0.277c-0.134,0.098-0.236,0.174-0.307,0.227c-0.07,0.055-0.18,0.141-0.327,0.256L128.242,35.172z"
		/>
</g>
<g id="Acht_links_2_">
	<path fill="#1D1D1B" d="M40.267,133.307c-0.034,0-0.067,0.01-0.102,0.01c0.325-0.506,0.504-1.094,0.504-1.709
		c0-0.85-0.33-1.646-0.931-2.248c-1.199-1.199-3.294-1.201-4.492,0c-0.602,0.602-0.933,1.4-0.932,2.25
		c0,0.848,0.331,1.645,0.931,2.242c0.516,0.516,1.18,0.818,1.895,0.898c-1.424,1.635-1.374,4.115,0.182,5.672
		c0.786,0.785,1.832,1.219,2.945,1.219c1.112,0,2.159-0.434,2.946-1.221c1.624-1.623,1.624-4.268,0-5.893
		C42.426,133.74,41.38,133.307,40.267,133.307z M35.679,131.607c0-0.484,0.188-0.939,0.532-1.283
		c0.342-0.342,0.796-0.531,1.281-0.531c0.484,0,0.939,0.189,1.281,0.531c0.343,0.344,0.531,0.797,0.531,1.283
		c0,0.484-0.188,0.939-0.531,1.281c-0.684,0.686-1.879,0.684-2.563-0.002C35.867,132.547,35.679,132.092,35.679,131.607z
		 M42.249,139.455c-1.059,1.059-2.905,1.057-3.964,0.002c-1.093-1.094-1.092-2.873,0-3.967c0.529-0.527,1.233-0.818,1.981-0.818
		s1.453,0.291,1.981,0.818C43.341,136.584,43.341,138.363,42.249,139.455z"/>
</g>
<g id="Acht_rechts_2_">
	<path fill="#1D1D1B" d="M138.287,131.609c0.001-0.85-0.33-1.648-0.932-2.25c-1.198-1.199-3.292-1.201-4.492,0
		c-0.601,0.602-0.932,1.398-0.932,2.248c0,0.615,0.18,1.203,0.505,1.709c-0.034,0-0.067-0.01-0.102-0.01
		c-1.113,0-2.159,0.434-2.947,1.221c-1.624,1.625-1.624,4.27,0.001,5.893c0.787,0.787,1.834,1.221,2.946,1.221
		s2.158-0.434,2.944-1.219c0.789-0.787,1.223-1.834,1.222-2.947c0-1.016-0.377-1.967-1.038-2.725
		c0.714-0.08,1.378-0.383,1.893-0.896C137.956,133.254,138.287,132.457,138.287,131.609z M134.315,139.457
		c-1.057,1.055-2.904,1.057-3.963-0.002c-1.093-1.092-1.093-2.871,0-3.963c0.529-0.529,1.234-0.82,1.982-0.82
		s1.451,0.291,1.98,0.818c0.529,0.531,0.821,1.236,0.821,1.984S134.845,138.926,134.315,139.457z M136.391,132.889
		c-0.682,0.684-1.878,0.686-2.563-0.002c-0.343-0.34-0.53-0.795-0.53-1.279s0.188-0.939,0.53-1.283
		c0.343-0.342,0.798-0.531,1.282-0.531s0.939,0.189,1.282,0.531c0.344,0.344,0.531,0.799,0.531,1.283
		S136.734,132.547,136.391,132.889z"/>
</g>
<path fill="#FFFFFF" d="M27.926,84.449v-1.068c0.411,0,0.742-0.08,0.993-0.24s0.377-0.473,0.377-0.939V68.893
	c0-0.785-0.457-1.178-1.37-1.178v-1.057h10.32c1.316,0,2.529,0.166,3.64,0.494c1.109,0.328,2.108,0.844,2.994,1.541
	c0.887,0.699,1.571,1.582,2.057,2.646c0.483,1.064,0.726,2.309,0.726,3.734c0,2.275-0.471,4.107-1.411,5.496
	c-0.941,1.389-2.248,2.383-3.92,2.982c-1.673,0.598-3.679,0.896-6.018,0.896H27.926z M35.423,69.688v11.568h1.179
	c0.759,0,1.426-0.125,2.001-0.377c0.576-0.25,1.06-0.619,1.453-1.104c0.393-0.484,0.681-1.07,0.863-1.762
	c0.183-0.689,0.274-1.482,0.274-2.377c0-1.863-0.478-3.299-1.433-4.305C38.806,70.328,37.36,69.779,35.423,69.688z"/>
<path fill="#FFFFFF" d="M49.76,84.613v-1.068c0.411,0,0.742-0.08,0.993-0.24s0.377-0.473,0.377-0.938V68.893
	c0-0.785-0.457-1.178-1.37-1.178v-1.057h12.157c0.841,0,1.595,0.092,2.262,0.275c0.667,0.182,1.268,0.465,1.802,0.85
	c0.535,0.383,0.948,0.869,1.241,1.459c0.292,0.59,0.438,1.268,0.438,2.035c0,0.795-0.179,1.521-0.535,2.18s-0.848,1.207-1.473,1.645
	c-0.626,0.439-1.332,0.732-2.118,0.877c0.604,1.043,1.192,2.061,1.769,3.057c0.575,0.996,1.183,2.07,1.822,3.221
	c0.266,0.439,0.517,0.764,0.754,0.975c0.237,0.209,0.549,0.314,0.933,0.314v1.068c-1.535-0.109-2.673-0.164-3.413-0.164
	c-0.786,0-1.946,0.055-3.481,0.164c-0.365-0.812-0.754-1.662-1.165-2.549s-0.812-1.717-1.199-2.494
	c-0.389-0.777-0.779-1.498-1.172-2.166c-0.109-0.174-0.231-0.367-0.363-0.582c-0.133-0.215-0.229-0.395-0.288-0.541
	s-0.089-0.289-0.089-0.426c0-0.174,0.091-0.289,0.274-0.35c0.183-0.059,0.509-0.117,0.979-0.178
	c0.471-0.059,0.774-0.107,0.912-0.145c0.657-0.154,1.169-0.471,1.534-0.945c0.366-0.475,0.549-1.096,0.549-1.863
	c0-0.996-0.313-1.723-0.939-2.18s-1.587-0.686-2.885-0.686h-0.809v13.008c0.046,0.686,0.575,1.027,1.59,1.027v1.068
	c-2.12-0.109-3.719-0.164-4.797-0.164C53.163,84.449,51.733,84.504,49.76,84.613z"/>
<path fill="#FFFFFF" d="M69.825,67.551v-1.07c2.12,0.119,3.591,0.178,4.413,0.178c0.887,0,2.28-0.059,4.181-0.178v1.07
	c-0.329,0-0.63,0.102-0.904,0.307c-0.274,0.207-0.411,0.523-0.411,0.953v10.527c0,0.85,0.183,1.484,0.548,1.904
	s0.854,0.631,1.467,0.631c0.604,0,1.092-0.211,1.467-0.631c0.374-0.42,0.562-1.055,0.562-1.904V68.811
	c0-0.43-0.137-0.746-0.411-0.953c-0.274-0.205-0.575-0.307-0.904-0.307v-1.07c1.9,0.119,3.294,0.178,4.181,0.178
	c0.831,0,2.298-0.059,4.399-0.178v1.07c-0.384,0-0.672,0.098-0.863,0.293c-0.192,0.197-0.288,0.537-0.288,1.021v8.965
	c0,1.324-0.13,2.432-0.391,3.324c-0.261,0.891-0.701,1.629-1.322,2.213c-0.622,0.584-1.451,1.014-2.488,1.289
	c-1.037,0.273-2.351,0.41-3.94,0.41c-1.581,0-2.89-0.137-3.927-0.41c-1.037-0.275-1.869-0.705-2.494-1.289
	c-0.626-0.584-1.069-1.322-1.33-2.213c-0.261-0.893-0.391-2-0.391-3.324v-8.965c0-0.484-0.094-0.824-0.281-1.021
	C70.508,67.648,70.218,67.551,69.825,67.551z"/>
<path fill="#FFFFFF" d="M91.673,82.367V68.893c0-0.785-0.457-1.178-1.37-1.178v-1.057h8.812c1.325,0,2.557,0.117,3.694,0.35
	c1.138,0.234,2.141,0.605,3.009,1.117c0.867,0.512,1.549,1.182,2.042,2.008c0.493,0.828,0.74,1.803,0.74,2.928
	c0,1.133-0.266,2.123-0.795,2.973c-0.53,0.852-1.262,1.506-2.193,1.967c-0.932,0.463-1.955,0.693-3.07,0.693
	c-0.594,0-1.227-0.061-1.898-0.178c-0.671-0.119-1.215-0.283-1.631-0.494s-0.624-0.434-0.624-0.672c0-0.229,0.099-0.369,0.295-0.424
	s0.61-0.084,1.24-0.084c0.777-0.027,1.398-0.299,1.864-0.814s0.699-1.281,0.699-2.297c0-0.703-0.121-1.354-0.363-1.953
	c-0.242-0.598-0.674-1.096-1.295-1.492c-0.622-0.398-1.453-0.598-2.495-0.598H97.8V82.34c0,0.803,0.548,1.205,1.645,1.205v1.068
	c-1.864-0.109-3.427-0.164-4.688-0.164c-1.325,0-2.81,0.055-4.454,0.164v-1.068c0.411,0,0.742-0.08,0.993-0.24
	S91.673,82.832,91.673,82.367z"/>
<path fill="#FFFFFF" d="M107.983,84.613v-1.068c0.32,0,0.573-0.059,0.761-0.178s0.354-0.332,0.5-0.637
	c0.146-0.307,0.348-0.83,0.604-1.57l3.673-10.855c0.302-0.932,0.453-1.6,0.453-2.002c0-0.227-0.115-0.41-0.343-0.547
	c-0.229-0.137-0.525-0.205-0.892-0.205v-1.07c2.102,0.119,3.683,0.178,4.743,0.178c0.858,0,2.385-0.059,4.577-0.178l5.017,14.857
	c0.21,0.613,0.377,1.055,0.501,1.322c0.123,0.271,0.287,0.484,0.493,0.645c0.205,0.16,0.473,0.24,0.802,0.24v1.068
	c-2.011-0.109-3.628-0.164-4.853-0.164c-1.023,0-2.513,0.055-4.468,0.164v-1.068c0.302,0,0.603-0.055,0.904-0.164
	s0.452-0.297,0.452-0.562c0-0.438-0.292-1.562-0.877-3.371h-6.113c-0.328,1.051-0.553,1.807-0.671,2.268
	c-0.119,0.463-0.179,0.82-0.179,1.076c0,0.311,0.126,0.514,0.377,0.609c0.251,0.098,0.587,0.145,1.008,0.145v1.068
	c-1.39-0.109-2.513-0.164-3.372-0.164C110.405,84.449,109.372,84.504,107.983,84.613z M114.782,76.76h4.468l-2.192-7.072h-0.056
	L114.782,76.76z"/>
<path fill="#FFFFFF" d="M130.982,82.201V68.729c0-0.785-0.457-1.178-1.37-1.178v-1.07c1.863,0.119,3.239,0.178,4.125,0.178
	c0.95,0,2.682-0.059,5.195-0.178v1.07c-0.631,0-1.093,0.08-1.385,0.238c-0.292,0.16-0.438,0.529-0.438,1.104v12.363h4.372
	c1.088,0,1.81-0.297,2.166-0.891s0.616-1.303,0.781-2.125h1.069c-0.184,1.188-0.309,2.02-0.377,2.494
	c-0.069,0.477-0.131,1.021-0.186,1.639s-0.082,1.309-0.082,2.076h-15.241v-1.068c0.411,0,0.742-0.08,0.993-0.24
	S130.982,82.668,130.982,82.201z"/>
<path fill="#FFFFFF" d="M60.546,104.471l-0.191,3.48c-0.668,0.521-1.479,0.934-2.434,1.234s-1.857,0.453-2.707,0.453
	c-1.517,0-2.892-0.215-4.125-0.645s-2.296-1.062-3.188-1.898c-0.891-0.836-1.573-1.855-2.049-3.057
	c-0.475-1.201-0.713-2.566-0.713-4.092c0-1.957,0.457-3.637,1.371-5.045c0.913-1.406,2.158-2.475,3.735-3.201
	c1.576-0.725,3.332-1.088,5.27-1.088c0.713,0,1.435,0.072,2.166,0.219c0.73,0.146,1.393,0.369,1.987,0.672
	c0.009,0.639,0.05,1.52,0.123,2.639s0.146,2.158,0.22,3.117h-1.069c-0.165-0.666-0.402-1.26-0.713-1.781s-0.718-0.939-1.22-1.254
	c-0.503-0.316-1.092-0.473-1.769-0.473c-0.886,0-1.631,0.238-2.233,0.719c-0.604,0.48-1.047,1.102-1.33,1.863
	c-0.283,0.764-0.425,1.574-0.425,2.434c0,1.115,0.183,2.211,0.549,3.291c0.365,1.078,0.932,1.965,1.699,2.658
	c0.768,0.695,1.723,1.043,2.864,1.043c0.658,0,1.334-0.115,2.028-0.344S59.806,104.873,60.546,104.471z"/>
<path fill="#FFFFFF" d="M61.04,109.186v-1.068c0.32,0,0.573-0.061,0.761-0.18c0.188-0.117,0.354-0.33,0.5-0.637
	c0.146-0.307,0.348-0.83,0.604-1.568l3.673-10.857c0.302-0.932,0.453-1.6,0.453-2.002c0-0.227-0.115-0.41-0.343-0.547
	c-0.229-0.137-0.525-0.205-0.892-0.205v-1.07c2.102,0.119,3.683,0.178,4.743,0.178c0.858,0,2.385-0.059,4.577-0.178l5.017,14.859
	c0.21,0.611,0.377,1.053,0.501,1.322c0.123,0.27,0.287,0.484,0.493,0.645c0.205,0.16,0.473,0.24,0.802,0.24v1.068
	c-2.011-0.109-3.628-0.164-4.853-0.164c-1.023,0-2.513,0.055-4.468,0.164v-1.068c0.302,0,0.603-0.055,0.904-0.166
	c0.302-0.109,0.452-0.297,0.452-0.561c0-0.439-0.292-1.562-0.877-3.373h-6.113c-0.328,1.051-0.553,1.809-0.671,2.27
	c-0.119,0.461-0.179,0.82-0.179,1.076c0,0.311,0.126,0.514,0.377,0.609s0.587,0.145,1.008,0.145v1.068
	c-1.39-0.109-2.513-0.164-3.372-0.164C63.461,109.021,62.428,109.076,61.04,109.186z M67.838,101.332h4.468l-2.192-7.074h-0.056
	L67.838,101.332z"/>
<path fill="#FFFFFF" d="M82.079,109.186v-1.068c0.43,0,0.781-0.098,1.056-0.289s0.416-0.645,0.425-1.357l0.562-10.951
	c0.019-0.33,0.037-0.686,0.056-1.068c0.018-0.385,0.027-0.682,0.027-0.893c0-0.502-0.124-0.867-0.37-1.096
	c-0.247-0.229-0.554-0.342-0.919-0.342v-1.07c1.965,0.119,3.304,0.178,4.017,0.178c0.776,0,2.133-0.059,4.07-0.178l3.906,11.008
	h0.055l3.592-11.008c1.982,0.119,3.33,0.178,4.043,0.178c0.694,0,1.974-0.059,3.838-0.178v1.07c-0.283,0-0.503,0.023-0.658,0.074
	s-0.285,0.191-0.391,0.426c-0.105,0.232-0.157,0.582-0.157,1.049c0,0.557,0.041,1.314,0.123,2.273l0.891,10.912
	c0.027,0.393,0.104,0.682,0.227,0.863c0.123,0.184,0.274,0.295,0.452,0.336s0.432,0.062,0.761,0.062v1.068
	c-1.955-0.109-3.408-0.164-4.358-0.164s-2.439,0.055-4.469,0.164v-1.068c0.494,0,0.885-0.08,1.172-0.24
	c0.288-0.16,0.432-0.527,0.432-1.104c0-0.303-0.022-0.781-0.068-1.439s-0.077-1.096-0.096-1.316l-0.534-7.127h-0.056l-4.358,12.295
	h-3.591l-4.742-12.35h-0.055l-0.302,7.553c-0.019,0.311-0.032,0.559-0.041,0.746c-0.01,0.188-0.019,0.398-0.027,0.631
	c-0.01,0.232-0.019,0.469-0.027,0.705c0,0.732,0.125,1.189,0.377,1.371c0.251,0.184,0.642,0.275,1.172,0.275v1.068
	c-1.39-0.109-2.436-0.164-3.139-0.164C84.303,109.021,83.339,109.076,82.079,109.186z"/>
<path fill="#FFFFFF" d="M110.533,106.938V93.463c0-0.785-0.457-1.178-1.37-1.178v-1.057h8.812c1.325,0,2.557,0.117,3.694,0.35
	c1.138,0.234,2.141,0.605,3.009,1.117c0.867,0.512,1.549,1.182,2.042,2.008c0.493,0.828,0.74,1.803,0.74,2.928
	c0,1.133-0.266,2.123-0.795,2.973c-0.53,0.852-1.262,1.508-2.193,1.969s-1.955,0.691-3.07,0.691c-0.594,0-1.227-0.059-1.898-0.178
	c-0.671-0.119-1.215-0.283-1.631-0.494c-0.416-0.209-0.624-0.434-0.624-0.67c0-0.229,0.099-0.371,0.295-0.426s0.61-0.082,1.24-0.082
	c0.777-0.027,1.398-0.299,1.864-0.816c0.466-0.516,0.699-1.281,0.699-2.297c0-0.703-0.121-1.354-0.363-1.953
	c-0.242-0.598-0.674-1.096-1.295-1.492c-0.622-0.398-1.453-0.598-2.495-0.598h-0.534v12.652c0,0.805,0.548,1.207,1.645,1.207v1.068
	c-1.864-0.109-3.427-0.164-4.688-0.164c-1.325,0-2.81,0.055-4.454,0.164v-1.068c0.411,0,0.742-0.08,0.993-0.24
	S110.533,107.404,110.533,106.938z"/>
</svg>
